<svg xmlns="http://www.w3.org/2000/svg" viewBox="0 0 576 286.97">
  <defs>
    <style>
      .a {
        fill: #231f20;
      }

      .b {
        fill: #fff;
      }

      .c {
        fill: #ed1c24;
      }
    </style>
  </defs>
  <title>brown-logo</title>
  <g>
    <path class="a" d="M216.91,143.66v20.93c0,6.44,1.26,8.64,8.27,8.55,8.06,0,14.89-4,14.89-14.22,0-10.47-7.69-15.26-17.58-15.26Zm0-2.8H223c9.22,0,13.83-4.32,13.83-12.19,0-5.77-2.39-12.19-13.73-12.19a15.23,15.23,0,0,0-5.29.58c-.56.18-.86.56-.86,2.49Zm9.42-27.18c6.91,0,10.85,1.16,14,3.38s5,5.75,5,10.55c0,8.46-8,12.59-12.57,13.74v.19c8.74,1.24,16.61,6.44,16.61,16.14,0,6.81-3.36,11.62-8.92,14.78-4.91,2.7-11.05,3.66-18.35,3.66H200V173.9c8.08-.57,8.84-1.25,8.84-11.71V127.61c-.09-10.47-.67-11.13-8.27-11.71v-2.22Z"/>
    <path class="a" d="M282.8,145.86h5.58c3.93,0,7-.48,9.61-2.59,4.12-3.27,5.56-8,5.56-12.69,0-10.07-7.31-14.1-14.5-14.1-3.27,0-4.62.19-5.39.47-.57.19-.86.67-.86,2.6Zm0,16.33c0,10.46.77,11.14,8.65,11.71v2.22H265.89V173.9c8.08-.57,8.85-1.25,8.85-11.71V127.61c0-10.47-.77-11.13-8.46-11.71v-2.22h24.4c6.14,0,11.63.87,15.17,3.27,3.84,2.41,6.35,6.72,6.35,12.29,0,8-4.91,13.65-12.69,16.81,1.74,2.89,5.67,9.52,8.55,13.74a86.22,86.22,0,0,0,8.07,10.56c2,2.4,3.74,3.94,7.21,4.81l-.2,1.83h-1.35c-11-.3-14.4-3.66-18.05-8.94-3-4.34-7-11.43-9.71-16-1.52-2.49-3.06-3.45-6-3.45H282.8Z"/>
    <path class="a" d="M364.07,115.42c-11.34,0-20.95,9.32-20.95,27.36,0,18.54,9.7,31.61,23.73,31.61,11.52,0,20.94-8.93,20.94-26.8,0-20.74-10-32.17-23.72-32.17m33,28.61c0,20-13.92,33.53-32.27,33.53-18.15,0-31-13.85-31-32,0-16.14,11.33-33.33,32.74-33.33,16.63,0,30.55,12.87,30.55,31.78"/>
    <path class="a" d="M429.93,115.9l-3,.38c-4.32.57-4.89,1.44-3.56,5.67l13,40.91h.18l15.36-48.21h2.32l17.37,48.12h.21c3.92-12.11,9.5-32.37,11.14-39.28,1.34-5.57.84-6.73-3.46-7.21l-2.79-.38v-2.22h20.36v2.22c-6.34.77-7,1.16-10.18,9.89-.86,2.41-7.88,24.49-15.94,50.9h-2.6l-17.28-47-.19.2-15.66,46.77h-2.68l-16.62-51.57c-2.6-8-4-8.64-9.51-9.22v-2.22h23.53Z"/>
    <path class="a" d="M567,176.79h-2.49L522.8,126.18h-.2v24.48a149.86,149.86,0,0,0,.77,18.25c.49,3.36,3.07,4.7,9.42,5v2.22h-23V173.9c5.28-.2,7.77-1.63,8.26-5a152.09,152.09,0,0,0,.77-18.25V129.83c0-6.93-.1-8.47-1.83-10.67s-4.42-3-8.45-3.26v-2.22h14L563,162.09h.18v-23a151.75,151.75,0,0,0-.75-18.24c-.49-3.36-3.09-4.7-9.42-5v-2.22h23v2.22c-5.28.2-7.78,1.63-8.26,5a148.7,148.7,0,0,0-.76,18.24Z"/>
  </g>
  <g>
    <g>
      <g>
        <g>
          <path class="b" d="M58,38l1.3,2.14c1.52,2.51,3.87,12,6.9,15.1a33.25,33.25,0,0,1,6-3.08,66.26,66.26,0,0,0-4-6c-3.64-4.83-6.26-7.42-6.55-7.83A13.82,13.82,0,0,1,58,38Z"/>
          <path class="b" d="M85.31,50.63c.72-5-.93-13.17-1.9-15.22a20.31,20.31,0,0,1-3.55-1.25,48.42,48.42,0,0,0-1.38,8.92c-.16,2.64-.1,6.67.39,7.55A38.23,38.23,0,0,1,85.31,50.63Z"/>
          <path class="b" d="M108.87,79.79A26.28,26.28,0,0,0,82.31,53.23,26.56,26.56,0,0,0,55.74,79.79a28,28,0,0,0,.39,3.56c7.64-1.77,17.77-1.49,22.27,2.08a26.69,26.69,0,0,1,25.48.07,26.81,26.81,0,0,1,4.73-1.78A31.88,31.88,0,0,0,108.87,79.79ZM76.49,70.73a3.09,3.09,0,0,1-6.17-.31l0-.34c-.27-.4-1.66-.85-3.72.4-1,.64-2.2.2-.4-1.36a10.68,10.68,0,0,1,5.33-2.83h0a21.32,21.32,0,0,1,7.85,1c.68.28,0,3.62-.19,3.58a6.26,6.26,0,0,0-2.79-.4ZM85.35,80c-.54,1.58-6.12,2.08-7.15,0-.4-.81-1-2.91-.21-2.48,1.24.73,5.74.22,6.58,0s.27-1.23.73-1.11S85.85,78.5,85.35,80Zm13.14-8.73c-1.41-1.16-3.24-1.66-3.95-1.16l0,.24a3.09,3.09,0,1,1-6.16.54v-.13c-1.11-.35-2.88.26-3.12.16s-.9-3.21.08-3.61c2.67-1.08,11.26-1.62,13.75,3.21C99.42,71.09,99.23,71.87,98.49,71.26Z"/>
          <path class="b" d="M100.1,37.75c-3.12,2.64-7.89,9-8.5,14.18a50.41,50.41,0,0,1,5.86,2.87c3.85-3.79,3.07-8,4.57-11.19.65-1.39,1.27-2.49,1.64-3.12A13.24,13.24,0,0,1,100.1,37.75Z"/>
          <path class="b" d="M118.74,47.89c-.7.38-2.32,1.38-2.86,1.78-3.69,2.78-11.68,6.52-13.53,8.56A22.28,22.28,0,0,1,107,63.82c.9,0,3.48-2.06,8.6-8.08,1.64-1.92,3.38-2.94,6.55-4.7A17.9,17.9,0,0,1,118.74,47.89Z"/>
          <path class="b" d="M54.32,70.12c-1.73-1.7-5.16-3.17-9.64-2.81A84,84,0,0,1,26.05,67c-5.92-.85-9.6,0-12.56,0-9,0,.26.81,1.31,1.22,4.24,1.67,12.78,3.79,19.5,3.3,3.28-.23,8.78,1.77,9.72,2.09,2.42.87,6.79,2.27,9.15,2.23A41.39,41.39,0,0,1,54.32,70.12Z"/>
          <path class="b" d="M61.69,58.89c-4.6-3.71-8.83-4.51-15.58-7.67a48.35,48.35,0,0,1-4.23-2.52c-.18-.13-.52-.34-.93-.6A14.62,14.62,0,0,1,39,52c1,1.36,8.59,10,18.24,12.65A34.35,34.35,0,0,1,61.69,58.89Z"/>
          <path class="b" d="M158.39,65.54a25.85,25.85,0,0,0-3.27-.29c-1.45,0-11,0-13.6.45-5.33.84-15.66.4-21.32.19a25.11,25.11,0,0,0-10.58,2.28A26.26,26.26,0,0,1,111.35,75c1.8.32,3.53-2,8.67-1.86,5.34.09,18.51-.63,25.17-3.22a73.27,73.27,0,0,1,12.53-3.58C158.85,66.11,160.65,65.89,158.39,65.54Z"/>
        </g>
        <path class="b" d="M39.18,38.92a1.6,1.6,0,0,1,1.55-.14c4.51,1.46,11,.47,14-4.31a1.62,1.62,0,0,1,2-.61c3.11,1.27,9.5,1.85,17.28-6.05a1.62,1.62,0,0,1,2.18,0c6.83,5.48,14,5.83,21.18,1,.44-.3,1-.68,1.51-.48a1.62,1.62,0,0,1,1,1.17c2.3,10.66,13.44,9.72,16.79,9.18a1.61,1.61,0,0,1,1.87,1.37c.37,2.5,3.13,7.34,7.92,9.81,4.1,2.1,8.55,1.94,13.26-.49a1.64,1.64,0,0,1,1.51,0c6,3.23,11.48,3.42,14.92.53a7.77,7.77,0,0,0,2.44-8.28c-1.07-3.24-4.3-5.25-8.84-5.53a1.63,1.63,0,0,1-1.51-1.37A8.55,8.55,0,0,0,144,28.64c-3.55-2.17-8.78-2.42-14-.69a1.64,1.64,0,0,1-2.13-1.31,8.45,8.45,0,0,0-3.65-6.24c-2.64-1.61-6.63-1.57-11.53.11a1.62,1.62,0,0,1-2-.78c-3.15-6-7.58-10-12.81-11.35a18,18,0,0,0-14.27,2.47,1.63,1.63,0,0,1-1.86-.06,16.15,16.15,0,0,0-14.5-2.9c-4.67,1.42-8.23,5.07-10,10.27a1.61,1.61,0,0,1-.87.94,1.58,1.58,0,0,1-1.28,0c-7.16-2.87-13-2.8-16.91.22C34.89,21.93,33.86,26,34,27.2A1.58,1.58,0,0,1,32.81,29l-1.71.41c-4,.91-8.07,1.85-9.31,8.16a1.62,1.62,0,0,1-1.43,1.31C13.46,39.55,9,42.1,8,45.87a7,7,0,0,0,3,7.31c2.45,1.66,5.41,1.49,8.11-.47a1.64,1.64,0,0,1,1.54-.21c4.05,1.55,10.62,1.25,14.6-2,2.89-2.31,4-5.73,3.37-10.15A1.63,1.63,0,0,1,39.18,38.92Zm109.27.46c4.1-1,9,2,7.62,7.54-.24.94-2.55,1-2.47,0,.35-4.61-1.92-5-4.95-4.94C147.5,42,147.59,39.57,148.45,39.38Zm-17.52-8.17c4-2.28,12.12-1.87,14.65,5.39.44,1.24-1.2,3.33-2.22,1.46-3.06-5.62-8-5.61-12.14-4C130.3,34.39,129.46,32,130.93,31.21Zm-17.11-8.38c3.69-1.3,10-1.89,11.66,4.29.48,1.72-1.64,2.55-2.11,1.34-1.71-4.47-4.94-4.29-8.79-3.07C112.81,26,113.23,23,113.82,22.83ZM83.64,15.88c2.66-4.33,16.58-8.36,23.72,3.89.76,1.33-.25,2.11-1,2.66-.57.4-.9-.52-1.28-1.12-6.06-9.59-17-7.06-20-2.61C84.46,19.6,82.86,17.16,83.64,15.88Zm-22.43.7C63.65,12.7,72,6.74,79.48,13.31c.83.72-.16,3.42-1.1,2.79-6.8-4.67-12.14-.92-15,2.46C62,20.17,60.62,17.51,61.21,16.58ZM21.06,43.68c-2.84,0-5.13.06-7.13,2.23-2.14,2.32-1.62,3.59-2,4-.58.58-2.05-.44-2-1.58.12-5.46,6.71-7.59,10.62-7.15C22,41.37,22.38,43.68,21.06,43.68Zm11.58-9.16c-4.17.46-5.38,2.49-6.13,4.82-.3.88-2.63.25-2.26-1.48,1.1-5.12,6.66-6.38,8.68-5.94C33.61,32.05,33.4,34.45,32.64,34.52ZM36.19,29c.86-4.53,5.29-11.12,15.39-8.56,1.24.32.51,3.47-.82,2.94-7.38-2.9-11.08,2.7-12.28,7.12C38.32,31.1,35.85,30.87,36.19,29Z"/>
        <g>
          <path class="b" d="M15.7,84.59c-4.9-.1-9,1.28-10.41,3.79a7.24,7.24,0,0,0,2.33,9.73c4.25,2.56,8.3.89,8.6-.68-1.16-1.31-3.16-4.28-4.29-4.3-1.63,0-1.5-2.16-.31-2.55,2.84-.94,5.6,4.46,9.69,7.37,3.63,2.61,8.73.7,8.73-.37C27.82,95.56,25.16,84.81,15.7,84.59Z"/>
          <path class="b" d="M113,97.32c3.38,3.42,8,2,8.22.83-.38-.68-2.52-3.83-3.77-4.51-1-.56-1.69-1.5-1.14-2.28.92-1.31,2.77-.38,4,1s4.44,5.69,5.59,6.34c3,1.64,9.5,1.05,9-.85-1.81-2.87-3.06-8.65-8.44-11.19-5.6-2.64-12.77-2-19.42.42C108.2,89.5,111.31,95.57,113,97.32Z"/>
          <path class="b" d="M73.75,86.51c-5.6-2.64-13.51-1.76-20.16.6,1.84,2.46,4.91,8.19,6.49,10.13,3.05,3.72,8.29,1.84,8.5.72-.37-.69-3.17-4.32-4.23-4.93s-1.56-1.47-1-2.25c.93-1.3,3.11,0,4.29,1.43s4.5,5.59,5.59,6.33c3.28,2.22,9.51,1.06,9-.84C80.06,94.87,79.13,89,73.75,86.51Z"/>
        </g>
      </g>
      <g>
        <g>
          <path class="b" d="M31.78,129.37c-4,.11-7.87,1.68-10.16,1.28v26.64s1.45,1.1,5.44,0c5.16-1.47,7.46.14,7.46.14V130.52S33.92,129.3,31.78,129.37Z"/>
          <path class="b" d="M46.05,240.78c4,1.14,5.43,0,5.43,0V214.18c-2.29.4-6.18-1.17-10.16-1.3-2.14-.07-2.75,1.16-2.75,1.16v26.87S40.88,239.31,46.05,240.78Z"/>
          <path class="b" d="M132.8,129.37c-2.14-.07-2.75,1.15-2.75,1.15V157.4s2.3-1.61,7.47-.14c4,1.13,5.44,0,5.44,0V130.65C140.67,131.05,136.78,129.48,132.8,129.37Z"/>
          <path class="b" d="M41.32,129.37c-2.14-.07-2.75,1.15-2.75,1.15V157.4s2.31-1.61,7.47-.14c4,1.13,5.44,0,5.44,0V130.65C49.19,131.05,45.3,129.48,41.32,129.37Z"/>
          <path class="b" d="M34.53,240.91V214s-.61-1.23-2.74-1.16c-4,.13-7.88,1.7-10.16,1.3v26.64s1.44,1.1,5.43,0C32.23,239.31,34.53,240.91,34.53,240.91Z"/>
          <path class="b" d="M130.55,214v26.87s2.3-1.6,7.47-.13c4,1.14,5.43,0,5.43,0V214.18c-2.29.4-6.17-1.17-10.15-1.3C131.15,212.81,130.55,214,130.55,214Z"/>
          <path class="b" d="M123.26,129.37c-4,.11-7.87,1.68-10.16,1.28v26.64s1.44,1.1,5.44,0c5.15-1.47,7.46.14,7.46.14V130.52S125.41,129.3,123.26,129.37Z"/>
          <path class="b" d="M113.6,214.18v26.64s1.44,1.1,5.43,0c5.17-1.47,7.48.13,7.48.13V214s-.61-1.23-2.75-1.16C119.78,213,115.89,214.58,113.6,214.18Z"/>
        </g>
        <g>
          <path class="b" d="M160.16,117.53H96.26v57.94h63.9Zm-9.53,46.11h-18.3v2.3h-7.6v-2.3h-18.3V132.7h3.89v-5.63c4,1,10.45-1.23,13.35-1.22a7.85,7.85,0,0,1,4.86,1.4,7.88,7.88,0,0,1,4.86-1.4c2.89,0,9.36,2.16,13.34,1.22v5.63h3.9Z"/>
          <path class="b" d="M68.39,117.53H4.45v57.94H68.39Zm-9.73,46.11H40.35v2.3H32.76v-2.3H14.45V132.7h3.9v-5.63c4,1,10.45-1.23,13.34-1.22a7.9,7.9,0,0,1,4.87,1.4,7.86,7.86,0,0,1,4.85-1.4c2.9,0,9.37,2.16,13.34,1.22v5.63h3.91Z"/>
          <path class="b" d="M96.26,279.07c16.11-4.66,32.07-10.89,42.88-20.78a60,60,0,0,0,9.66-11.13H132.32v2.31h-7.58v-2.31H106.42V216.22h3.91v-5.64c4,1,10.45-1.21,13.34-1.21a7.77,7.77,0,0,1,4.86,1.4,7.86,7.86,0,0,1,4.85-1.4c2.9,0,9.38,2.16,13.35,1.21v5.64h3.91v28c5.88-10.17,8.68-22.63,9.63-40.14l-.11-2.61H96.26Z"/>
          <path class="b" d="M14.45,243.89V216.22h3.91v-5.64c4,1,10.44-1.21,13.34-1.21a7.81,7.81,0,0,1,4.86,1.4,7.88,7.88,0,0,1,4.86-1.4c2.89,0,9.36,2.16,13.33,1.21v5.64h3.91v30.94H40.34v2.31H32.76v-2.31H16.45a61.09,61.09,0,0,0,9.32,11C36,267.72,51.93,274.2,68.38,279V201.45H4.45l.13,2.46C5.21,219.92,8.22,233,14.45,243.89Z"/>
        </g>
      </g>
    </g>
    <g>
      <g>
        <path class="a" d="M167.26,63.88c-1-.7-11.15-2-12.73-2s-10.35.08-13.75.6a95.49,95.49,0,0,1-21.14,0,18.37,18.37,0,0,0-7.46,1,17.4,17.4,0,0,0,1.49-1.39c2-2.08,4.28-6,8.29-8,1-.5,2-1,2.88-1.53,3.37,1.69,8.69,2.83,15.29-.28,9.85,4.92,15.72,1.6,17.8-.15a11.2,11.2,0,0,0,4-8.49,10.36,10.36,0,0,0-.53-3.3c-1.42-4.28-5.32-7-10.69-7.58a13,13,0,0,0-1.38-3.2c.63-.8,1.22-1.54,1.6-2s2.09-3.27-2.24-1c-.23.11-.64.34-1.17.64a11.14,11.14,0,0,0-2-1.61c-4-2.47-9.5-2.77-15.13-1.27a11.2,11.2,0,0,0-4.63-7c-2.48-1.51-5.6-1.95-9.27-1.39.23-.54.44-1,.61-1.39,1.64-3.42.75-4.28-1-2.76-1.94,1.71-3.16,2.94-4.09,3.93C108.49,10.22,103.91,6.45,98.5,5A20.82,20.82,0,0,0,84.16,6.64a35.49,35.49,0,0,0-.9-5.28c-.85-2.77-1.87-.59-2,.26-.19,1.16-.45,2.76-.76,4.6A18.72,18.72,0,0,0,66.08,4.56C60.87,6.16,56.89,10,54.6,15.44a31.59,31.59,0,0,0-5.22-1.36A31.57,31.57,0,0,0,45,9.5c-1.33-1.18-2.43-.57-1.63,1.77.31.9.58,1.7.83,2.45A14.64,14.64,0,0,0,36,16.56a14.3,14.3,0,0,0-5.38,9.33l-.5.12c-3,.69-7.12,1.83-9.69,5.88l-.92-.58c-7.64-5.07-4.12,1.45-1.16,4.33C8.16,37.08,5.29,42,4.56,44.86a9,9,0,0,0-.28,2.25,10.52,10.52,0,0,0,4.61,8.56c3.39,2.3,7.51,2.16,11.18-.19,4.78,1.54,11.54,1.29,16.39-2.23,2.8,3,5.06,5.15,6.28,6.37a31.36,31.36,0,0,0,9.8,6.2,20.7,20.7,0,0,0-9.78-1.29c-8.13,1.13-13.52-.34-17-.69-5.73-.56-11.62.42-14.55.42-3.11,0-7.5,1.46-9.64,1.78-2.31.35-2.16,1.87,1.06,2.73s9.15,1.39,10.77,2.08c5.19,2.26,13.87,4.14,20,3.65,4.34-.34,8.71,1.78,9.84,2.11,2.15.66,7.48,2.12,9.68,2.08,0-.13,0,3.08.22,4.6-.83.28-1.62.57-2.34.89-2.43-1.47-13.09-5.8-26.07-.42C22,82.82,16.16,79.61,8.2,82.23c-9.82,3.24-8.23,12.24-5,16.36,4.39,5.57,12.49,4.44,14.85,1.64,5.28,3.5,10.66,2.32,14.57-.11,2.56,1.51,15.19,4,24.79.11,1.32,1,6.59,3.73,13.36.32,3.9,2.32,10.36,2.5,13.68-.43,1.2,1,4.8,2.49,12.49,2.4,9.22-.11,11.36-1.48,12.65-2.61,2,.92,7.17,3.63,13.58.9,3.45,2.17,10.37,2,14.08-.39,6.78,3.08,19.21,1.69,22.32-.46,5.57-3.86,2.88-11.72-3.25-15.46-12.05-6.07-23.27-1.36-26.24.17-3.55-2.4-11-3.93-18.69-2.5a27.5,27.5,0,0,0,0-3.14c0-.12,0-.24,0-.36,1.53-.47,3.7-2.11,8.12-2.39,6-.4,20.22-.22,27.31-3.85,4-2.07,18.15-4.84,20-5.93S168.26,64.56,167.26,63.88Zm-51.69-8.14c-5.12,6-7.7,8.12-8.6,8.08a22.28,22.28,0,0,0-4.62-5.59c1.85-2,9.84-5.78,13.53-8.56.54-.4,2.16-1.4,2.86-1.78A17.9,17.9,0,0,0,122.12,51C119,52.8,117.21,53.82,115.57,55.74ZM41.83,42.67a15.86,15.86,0,0,0,13-3.6c4.47,7.14,4.59,13.6,8.91,18.06-5.45-5.27-10.2-5.17-18-9.38-1.34-.72-3.35-2-3.91-2.31l0,0a15.23,15.23,0,0,0,.14-2.08C41.88,43.13,41.84,42.89,41.83,42.67Zm33.21,8,.12.24s-2.38-3.56-2.66-4c-.81-1.24-1.87-2.5-3-4-1.86-2.25-3.49-4.07-4.75-5.44a23.51,23.51,0,0,0,10.48-6.13c.41.29.82.52,1.23.78-.21,1.22-.4,2.33-.55,3.13a66.77,66.77,0,0,0-1,10.1C74.79,46.87,74.94,49.25,75,50.65ZM68.23,46.2a66.26,66.26,0,0,1,4,6,33.25,33.25,0,0,0-6,3.08c-3-3.13-5.38-12.59-6.9-15.1L58,38a13.82,13.82,0,0,0,3.7.33C62,38.78,64.59,41.37,68.23,46.2Zm14.08,7a26.28,26.28,0,0,1,26.56,26.56,31.88,31.88,0,0,1-.26,3.93,26.81,26.81,0,0,0-4.73,1.78,26.69,26.69,0,0,0-25.48-.07c-4.5-3.57-14.63-3.85-22.27-2.08a28,28,0,0,1-.39-3.56A26.56,26.56,0,0,1,82.31,53.23ZM78.48,43.08a48.42,48.42,0,0,1,1.38-8.92,20.31,20.31,0,0,0,3.55,1.25c1,2.05,2.62,10.27,1.9,15.22a38.23,38.23,0,0,0-6.44,0C78.38,49.75,78.32,45.72,78.48,43.08Zm23.55.53c-1.5,3.23-.72,7.4-4.57,11.19a50.41,50.41,0,0,0-5.86-2.87c.61-5.13,5.38-11.54,8.5-14.18a13.24,13.24,0,0,0,3.57,2.74C103.3,41.12,102.68,42.22,102,43.61Zm4.06-1c.13-.21.27-.49.42-.79a21.49,21.49,0,0,0,9.08.86A15.7,15.7,0,0,0,117,45.81l0,0c-1.52.73-6.14,3.89-12.89,7.65A14.35,14.35,0,0,0,100.62,56a16.9,16.9,0,0,0,2.22-3.78C104,49.2,103.71,46.76,106.09,42.58ZM89.75,46.47a32.18,32.18,0,0,0-1.29,3.87c.57-4-.51-9.8-1.67-14.83a20.2,20.2,0,0,0,10.48-2.82,14.76,14.76,0,0,0,1,2.16C96.29,36.65,91.58,41.81,89.75,46.47Zm-54.5,4.08c-4,3.2-10.55,3.5-14.6,2a1.64,1.64,0,0,0-1.54.21c-2.7,2-5.66,2.13-8.11.47a7,7,0,0,1-3-7.31c.95-3.77,5.46-6.32,12.36-7a1.62,1.62,0,0,0,1.43-1.31c1.24-6.31,5.35-7.25,9.31-8.16L32.81,29A1.58,1.58,0,0,0,34,27.2c-.15-1.19.88-5.27,4.23-7.85,3.91-3,9.75-3.09,16.91-.22a1.58,1.58,0,0,0,1.28,0,1.61,1.61,0,0,0,.87-.94c1.79-5.2,5.35-8.85,10-10.27a16.15,16.15,0,0,1,14.5,2.9,1.63,1.63,0,0,0,1.86.06A18,18,0,0,1,98,8.38c5.23,1.38,9.66,5.31,12.81,11.35a1.62,1.62,0,0,0,2,.78c4.9-1.68,8.89-1.72,11.53-.11a8.45,8.45,0,0,1,3.65,6.24A1.64,1.64,0,0,0,130.05,28c5.2-1.73,10.43-1.48,14,.69a8.55,8.55,0,0,1,4.18,6.12,1.63,1.63,0,0,0,1.51,1.37c4.54.28,7.77,2.29,8.84,5.53a7.77,7.77,0,0,1-2.44,8.28c-3.44,2.89-8.88,2.7-14.92-.53a1.64,1.64,0,0,0-1.51,0c-4.71,2.43-9.16,2.59-13.26.49-4.79-2.47-7.55-7.31-7.92-9.81a1.61,1.61,0,0,0-1.87-1.37c-3.35.54-14.49,1.48-16.79-9.18a1.62,1.62,0,0,0-1-1.17c-.5-.2-1.07.18-1.51.48-7.22,4.81-14.35,4.46-21.18-1a1.62,1.62,0,0,0-2.18,0c-7.78,7.9-14.17,7.32-17.28,6.05a1.62,1.62,0,0,0-2,.61c-3,4.78-9.49,5.77-14,4.31a1.6,1.6,0,0,0-1.55.14,1.63,1.63,0,0,0-.56,1.48C39.27,44.82,38.14,48.24,35.25,50.55ZM39,52A14.62,14.62,0,0,0,41,48.1c.41.26.75.47.93.6a48.35,48.35,0,0,0,4.23,2.52c6.75,3.16,11,4,15.58,7.67a34.35,34.35,0,0,0-4.44,5.8C47.6,62,40.05,53.4,39,52Zm5,21.5c-.94-.32-6.44-2.32-9.72-2.09-6.72.49-15.26-1.63-19.5-3.3-1.05-.41-10.31-1.22-1.31-1.22,3,0,6.64-.83,12.56,0a84,84,0,0,0,18.63.36c4.48-.36,7.91,1.11,9.64,2.81a41.39,41.39,0,0,0-1.15,5.65C50.81,75.81,46.44,74.41,44,73.54ZM21.31,98c-4.09-2.91-6.85-8.31-9.69-7.37-1.19.39-1.32,2.51.31,2.55,1.13,0,3.13,3,4.29,4.3-.3,1.57-4.35,3.24-8.6.68a7.24,7.24,0,0,1-2.33-9.73c1.44-2.51,5.51-3.89,10.41-3.79,9.46.22,12.12,11,14.34,13C30,98.65,24.94,100.56,21.31,98ZM35,97.81c-3.57-1.59-6.4-9.82-7.45-10.87-.42-.42,6.32-2.86,13.17-2.27,11.67,1,11.7,8.24,14.57,11.85C56.38,97.84,45.87,100.85,35,97.81Zm38.18.73c-1.09-.74-4.4-4.9-5.59-6.33s-3.36-2.73-4.29-1.43c-.55.78,0,1.68,1,2.25s3.86,4.24,4.23,4.93c-.21,1.12-5.45,3-8.5-.72-1.58-1.94-4.65-7.67-6.49-10.13,6.65-2.36,14.56-3.24,20.16-.6,5.38,2.53,6.31,8.36,8.46,11.19C82.73,99.6,76.5,100.76,73.22,98.54Zm14.66-.14c-3.57-1.59-6.4-9.82-7.46-10.87-.42-.42,6.33-2.85,13.18-2.27,11.67,1,11.71,8.24,14.57,11.85C109.23,98.43,98.72,101.45,87.88,98.4Zm58.35-13.53c11.66,1,14.44,8.67,13.28,11.16-1,2.19-8.17,5-19,2-3.57-1.59-6.41-9.82-7.45-10.87C132.64,86.72,139.37,84.28,146.23,84.87ZM126.42,86.7c5.38,2.54,6.63,8.32,8.44,11.19.53,1.9-6,2.49-9,.85-1.15-.65-4.41-4.89-5.59-6.34s-3-2.35-4-1c-.55.78.11,1.72,1.14,2.28,1.25.68,3.39,3.83,3.77,4.51-.22,1.13-4.84,2.59-8.22-.83-1.73-1.75-4.84-7.82-6-10.2C113.65,84.75,120.82,84.06,126.42,86.7Zm31.3-20.35a73.27,73.27,0,0,0-12.53,3.58c-6.66,2.59-19.83,3.31-25.17,3.22-5.14-.09-6.87,2.18-8.67,1.86a26.26,26.26,0,0,0-1.73-6.84,25.11,25.11,0,0,1,10.58-2.28c5.66.21,16,.65,21.32-.19,2.61-.4,12.15-.44,13.6-.45a25.85,25.85,0,0,1,3.27.29C160.65,65.89,158.85,66.11,157.72,66.35Z"/>
        <g>
          <path class="a" d="M21.06,43.68c-2.84,0-5.13.06-7.13,2.23-2.14,2.32-1.62,3.59-2,4-.58.58-2.05-.44-2-1.58.12-5.46,6.71-7.59,10.62-7.15,1.49.18,1.87,2.49.55,2.49"/>
          <path class="a" d="M32.64,34.52c-4.17.46-5.38,2.49-6.13,4.82-.3.88-2.63.25-2.26-1.48,1.1-5.12,6.66-6.38,8.68-5.94.68.13.47,2.53-.29,2.6"/>
          <path class="a" d="M50.76,23.38c-7.38-2.9-11.08,2.7-12.28,7.12-.16.6-2.63.37-2.29-1.5.86-4.53,5.29-11.12,15.39-8.56,1.24.32.51,3.47-.82,2.94"/>
          <path class="a" d="M78.38,16.1c-6.8-4.67-12.14-.92-15,2.46-1.36,1.61-2.78-1-2.19-2C63.65,12.7,72,6.74,79.48,13.31c.83.72-.16,3.42-1.1,2.79"/>
          <path class="a" d="M106.31,22.43c-.57.4-.9-.52-1.28-1.12-6.06-9.59-17-7.06-20-2.61-.6.9-2.2-1.54-1.42-2.82,2.66-4.33,16.58-8.36,23.72,3.89.76,1.33-.25,2.11-1,2.66"/>
          <path class="a" d="M123.37,28.46c-1.71-4.47-4.94-4.29-8.79-3.07-1.77.59-1.35-2.36-.76-2.56,3.69-1.3,10-1.89,11.66,4.29.48,1.72-1.64,2.55-2.11,1.34"/>
          <path class="a" d="M143.36,38.06c-3.06-5.62-8-5.61-12.14-4-.92.36-1.76-2-.29-2.82,4-2.28,12.12-1.87,14.65,5.39.44,1.24-1.2,3.33-2.22,1.46"/>
          <path class="a" d="M156.07,46.92c-.24.94-2.55,1-2.47,0,.35-4.61-1.92-5-4.95-4.94-1.15,0-1.06-2.45-.2-2.64,4.1-1,9,2,7.62,7.54"/>
        </g>
        <g>
          <path class="a" d="M76.49,70.73a3.09,3.09,0,0,1-6.17-.31l0-.34c-.27-.4-1.66-.85-3.72.4-1,.64-2.2.2-.4-1.36a10.68,10.68,0,0,1,5.33-2.83h0a21.32,21.32,0,0,1,7.85,1c.68.28,0,3.62-.19,3.58a6.26,6.26,0,0,0-2.79-.4v.24"/>
          <path class="a" d="M85.35,80c-.54,1.58-6.12,2.08-7.15,0-.4-.81-1-2.91-.21-2.48,1.24.73,5.74.22,6.58,0s.27-1.23.73-1.11.55,2.07,0,3.56"/>
          <path class="a" d="M98.49,71.26c-1.41-1.16-3.24-1.66-3.95-1.16l0,.24a3.09,3.09,0,1,1-6.16.54v-.13c-1.11-.35-2.88.26-3.12.16s-.9-3.21.08-3.61c2.67-1.08,11.26-1.62,13.75,3.21.3.58.11,1.36-.63.75"/>
        </g>
      </g>
      <g>
        <path class="a" d="M96.26,117.53h63.9v57.94H96.26Zm-91.81,0H68.39v57.94H4.45ZM68.38,279C51.93,274.2,36,267.72,25.77,258.18a61.09,61.09,0,0,1-9.32-11H32.76v2.31h7.58v-2.31H58.66V216.22H54.75v-5.64c-4,.95-10.44-1.21-13.33-1.21a7.88,7.88,0,0,0-4.86,1.4,7.81,7.81,0,0,0-4.86-1.4c-2.9,0-9.38,2.18-13.34,1.21v5.64H14.45v27.67c-6.23-10.91-9.24-24-9.87-40l-.13-2.46H68.38Zm-46.75-38.2V214.18c2.28.4,6.17-1.17,10.16-1.3,2.13-.07,2.74,1.16,2.74,1.16v26.87s-2.3-1.6-7.47-.13C23.07,241.92,21.63,240.82,21.63,240.82Zm16.94.09V214s.61-1.23,2.75-1.16c4,.13,7.87,1.7,10.16,1.3v26.64s-1.44,1.1-5.43,0C40.88,239.31,38.57,240.91,38.57,240.91Zm54.35,39.17-10.59,2.69L71.72,280V197.89H4.45V179H71.72v-61.5h21.2V179h67.24v18.86H92.92Zm57.72-35.88v-28h-3.91v-5.64c-4,.95-10.45-1.21-13.35-1.21a7.86,7.86,0,0,0-4.85,1.4,7.77,7.77,0,0,0-4.86-1.4c-2.89,0-9.37,2.18-13.34,1.21v5.64h-3.91v30.94h18.32v2.31h7.58v-2.31H148.8a60,60,0,0,1-9.66,11.13c-10.81,9.89-26.77,16.12-42.88,20.78V201.45h63.9l.11,2.61C159.32,221.57,156.52,234,150.64,244.2Zm-7.19-30v26.64s-1.44,1.1-5.43,0c-5.17-1.47-7.47.13-7.47.13V214s.6-1.23,2.75-1.16C137.28,213,141.16,214.58,143.45,214.18ZM126.51,214v26.87s-2.31-1.6-7.48-.13c-4,1.14-5.43,0-5.43,0V214.18c2.29.4,6.18-1.17,10.16-1.3C125.9,212.81,126.51,214,126.51,214ZM.53,113.62v85.75c0,28.34,7.08,48,22.23,61.76S60.31,281.77,82.33,287c22.62-5.35,44.38-12,59.57-25.84s22.18-33.42,22.18-61.76V113.62Z"/>
        <path class="a" d="M54.75,132.7v-5.63c-4,.94-10.44-1.22-13.34-1.22a7.86,7.86,0,0,0-4.85,1.4,7.9,7.9,0,0,0-4.87-1.4c-2.89,0-9.37,2.18-13.34,1.22v5.63h-3.9v30.94H32.76v2.3h7.59v-2.3H58.66V132.7ZM34.52,157.4s-2.3-1.61-7.46-.14c-4,1.13-5.44,0-5.44,0V130.65c2.29.4,6.18-1.17,10.16-1.28,2.14-.07,2.74,1.15,2.74,1.15Zm17-.11s-1.45,1.1-5.44,0c-5.16-1.47-7.47.14-7.47.14V130.52s.61-1.22,2.75-1.15c4,.11,7.87,1.68,10.16,1.28Z"/>
        <path class="a" d="M146.73,132.7v-5.63c-4,.94-10.45-1.22-13.34-1.22a7.88,7.88,0,0,0-4.86,1.4,7.85,7.85,0,0,0-4.86-1.4c-2.9,0-9.37,2.18-13.35,1.22v5.63h-3.89v30.94h18.3v2.3h7.6v-2.3h18.3V132.7ZM126,157.4s-2.31-1.61-7.46-.14c-4,1.13-5.44,0-5.44,0V130.65c2.29.4,6.19-1.17,10.16-1.28,2.15-.07,2.74,1.15,2.74,1.15Zm17-.11s-1.45,1.1-5.44,0c-5.17-1.47-7.47.14-7.47.14V130.52s.61-1.22,2.75-1.15c4,.11,7.87,1.68,10.16,1.28Z"/>
      </g>
    </g>
    <g>
      <polygon class="c" points="71.72 280.04 82.33 282.77 92.92 280.08 92.92 197.89 160.16 197.89 160.16 179.03 92.92 179.03 92.92 117.53 71.72 117.53 71.72 179.03 4.45 179.03 4.45 197.89 71.72 197.89 71.72 280.04"/>
      <g>
        <path class="c" d="M40.76,84.67c-6.85-.59-13.59,1.85-13.17,2.27,1.05,1,3.88,9.28,7.45,10.87,10.83,3,21.34,0,20.29-1.29C52.46,92.91,52.43,85.66,40.76,84.67Z"/>
        <path class="c" d="M93.6,85.26c-6.85-.58-13.6,1.85-13.18,2.27,1.06,1,3.89,9.28,7.46,10.87,10.84,3,21.35,0,20.29-1.29C105.31,93.5,105.27,86.25,93.6,85.26Z"/>
        <path class="c" d="M140.51,98c10.83,3,18,.21,19-2,1.16-2.49-1.62-10.17-13.28-11.16-6.86-.59-13.59,1.85-13.17,2.27C134.1,88.19,136.94,96.42,140.51,98Z"/>
      </g>
    </g>
  </g>
</svg>
