<?xml version="1.0" encoding="utf-8"?>
<!-- Generator: Adobe Illustrator 22.1.0, SVG Export Plug-In . SVG Version: 6.00 Build 0)  -->
<svg version="1.1" id="Layer_1" xmlns="http://www.w3.org/2000/svg" xmlns:xlink="http://www.w3.org/1999/xlink" x="0px" y="0px"
	 viewBox="0 0 2176 2179" style="enable-background:new 0 0 2176 2179;" xml:space="preserve">
<defs>
	<style>
    .st0{
        fill: #D3B34E;
		}
    .st1{
        fill: #02579A;
		}
    .st2 {
        fill: #9AAFD4;
		}
    .st3 {
        fill: #FCFDFE;
		}
	</style>
</defs>
<title>Print</title>
<g>
	<path class="st0" d="M1058-4c18,0,36,0,54,0c0,14.3,0.1,28.6,1.9,42.9c3.9,30.4,13.4,58.4,33.3,82.2c12.8,15.3,27.6,27.7,46.5,35.1
		c18.3,7.2,36.4,14.7,54.9,21.4c7.5,2.7,15.1,4.8,23.3,5.2c16.3,0.8,32.6,2.1,48.9,3.1c12,0.8,24-0.3,35.8-2.8
		c35.8-7.6,64-27.1,86.4-55.6c13.3-16.9,23.2-35.7,31-55.7c2.8-7.1,3-7.2,10.1-4.3c11.7,4.8,23.4,9.7,35,14.6c7.1,3,7.2,3.2,4.3,10
		c-3.9,9.2-7.4,18.5-10.3,28.1c-8.2,27.5-11.6,55.4-4.8,83.8c4.5,19,11.3,37.2,24.7,51.8c19.2,20.9,40,40.1,61.2,58.9
		c21.2,18.8,46.5,29.5,72.9,38.1c10.8,3.5,22.1,4.9,33.5,5c34.6,0.5,65.3-11.2,93.4-30.6c12.9-9,24.6-19.3,35.3-30.9
		c3-3.3,5.2-4.4,8.8-0.6c9.6,10.1,19.6,20,29.5,29.9c2.9,2.9,3.5,5.3,0.2,8.3c-3,2.7-5.7,5.6-8.5,8.5c-22,23.3-40.2,49-47.6,80.9
		c-6.2,26.5-6.4,52.8,5.1,78.3c6.1,13.7,12.1,27.4,17.7,41.3c11.7,28.9,29.2,53.5,51.2,75.5c33.3,33.4,73.4,46.9,119.9,42.7
		c23.1-2.1,45.1-8.6,66.2-18c7.7-3.4,7.2-3.5,10.5,4.5c4.1,9.8,8.1,19.7,12.1,29.6c6,14.9,5.6,11.9-7.3,17.4
		c-25,10.8-48.4,24.1-67.2,44.2c-23.6,25.3-37.4,54.7-37.3,90c0.1,18.3,1.1,36.6,1.4,55c0.4,16.4,2.7,32.5,8.8,47.9
		c3.2,8,5.9,16.3,8.8,24.4c14.3,39.9,41.6,67.6,80.4,84.1c28.8,12.2,59.1,15.6,90,14c0,18,0,36,0,54c-14.3-0.2-28.6,0-42.9,1.9
		c-27.9,3.8-53.9,12.3-76.3,29.7c-17.3,13.5-31.4,29.5-39.6,50.4c-7.8,19.8-16,39.5-23,59.7c-2.5,7.3-4.5,14.6-4.8,22.3
		c-0.8,15.6-2.5,31.2-2.9,46.9c-0.8,29.8,7,57.3,23.6,82.2c16.5,24.7,39,42.6,64.9,56.5c8.8,4.7,18,8.8,27.3,12.2
		c4.1,1.5,5,3.7,3.4,7.6c-5.5,12.9-10.9,25.8-16.2,38.7c-1.6,3.9-3.8,5-7.7,3.3c-5.2-2.3-10.4-4.4-15.7-6.3
		c-29.2-10.5-59-16.6-90.2-11c-25.4,4.6-48.5,14-66.8,33.1c-12.4,13-25.2,25.7-37.5,38.8c-6.6,7-13.8,14-18.5,22.2
		c-12,20.7-23.4,42-30.9,64.9c-13.8,42.1-7.3,82.2,14.5,120.2c10.5,18.4,24,34.4,39.2,49c5,4.8,5,5,0.1,10
		c-8.2,8.3-16.5,16.5-24.8,24.7c-9.4,9.2-7.2,8.7-15.9,0.2c-17.2-17-35.7-32.3-57.7-42.3c-35.8-16.3-72.1-20.2-109.1-3.6
		c-7.6,3.4-15.3,6.7-23,9.6c-33.1,12.7-61.8,31.8-87,56.9c-34.7,34.4-48.3,75.6-43.5,123.5c2.3,22.4,8.8,43.7,17.9,64.2
		c2.9,6.6,2.7,6.8-3.7,9.6c-8.9,3.8-17.8,7.4-26.8,11c-4.9,2-10.5,6-14.8,5c-5.4-1.3-5.5-9.2-7.7-14.2
		c-10.8-23.9-23.8-46.3-43.3-64.2c-25.4-23.4-54.7-37.6-90.1-36.6c-7.7,0.2-15.3-0.2-23,0.1c-64.4,2.8-48.4-1.1-106,19.8
		c-34.8,12.6-60.3,36.1-76.9,69c-16.4,32.4-21,67.1-18.5,103c-18,0-36,0-54,0c0.1-19-0.5-38-4-56.7c-7.3-38.6-25.4-70.5-57.5-93.8
		c-3.2-2.3-6.6-4.5-10.3-6.1c-27.5-12-55.3-23.1-83.9-32c-4.5-1.4-8.9-2.8-13.6-3c-15.6-0.7-31.2-2.3-46.9-2.5
		c-38.6-0.5-71.7,12.7-99.8,38.8c-15.8,14.6-28.2,31.9-38,51c-4.4,8.6-8.4,17.4-11.7,26.5c-1.3,3.5-3.2,4.8-6.8,3.3
		c-13.2-5.6-26.3-11.2-39.6-16.6c-4.1-1.7-4.6-4.1-2.9-7.8c2.3-5.2,4.4-10.4,6.3-15.8c10.5-29.2,16.4-59.1,10.8-90.2
		c-4-22.3-11.5-43.3-27.1-60.2c-20.1-21.8-41.8-42.1-64.5-61.2c-4.1-3.4-8.2-6.8-13.1-9.1c-13.2-6.3-26.3-13-39.7-18.8
		c-19.9-8.6-40.8-11.8-62.4-10.4c-33.4,2.3-62.3,15.6-88.6,35.5c-10.4,7.9-19.9,16.7-28.7,26.3c-2.5,2.7-4.5,3.4-7.4,0.5
		c-10.2-10.5-20.6-20.9-31-31.2c-2.4-2.4-2.3-4.4,0.1-6.7c3.1-3,6.2-6.1,9.1-9.2c20.6-21.8,37.9-45.7,46.1-75
		c8-28.7,8.6-57.1-4-84.9c-5.4-11.8-10.5-23.8-15.2-35.9c-11.9-30.6-30.8-56.4-53.7-79.8c-34.8-35.4-76.6-49-125.3-43.5
		c-22,2.5-42.9,9-63.1,18c-6,2.7-6.3,2.6-8.8-3.3c-5.1-12.3-10.2-24.6-15-37c-2.5-6.4-2.4-6.6,4.3-9.4c14.2-5.9,28-12.5,40.9-20.7
		c20.5-13.1,38-29.3,50.4-50.4c10.8-18.3,17.8-37.8,18.1-59.5c0.4-24-0.8-48-1.9-71.9c-0.3-7.6-0.5-15.5-2.6-22.8
		c-5.4-18.9-11.3-37.7-20-55.4c-18.9-38.4-50.2-62.1-90.7-74.5c-24.8-7.6-50.4-9-76.1-8.1c0-18,0-36,0-54c16.3,0.5,32.6,0.4,48.9-2
		c29.9-4.5,57.4-14.7,80.4-35c11.3-10,21.8-20.8,28-34.8c10.6-23.7,20-48,28.5-72.5c3.1-8.9,5.2-17.9,5.7-27.3
		c0.9-14.3,1.7-28.6,2.2-42.9c0.5-13.1-1.6-25.9-5-38.5c-9.8-36.1-31.8-63.3-61.9-84.4c-14.8-10.4-30.8-18.5-47.7-24.9
		c-6.8-2.6-6.9-2.8-4.4-9.1c5-12.3,10.4-24.5,15.4-36.9c1.8-4.5,3.8-6.2,8.9-3.9c7.8,3.6,16,6.5,24.2,9.3c28,9.3,56.5,13,85.6,6.9
		c23.9-5,45.3-14.8,62.8-32.7c18.9-19.3,37.8-38.6,55.2-59.3c3.4-4.1,6.7-8.3,8.9-13.2c5.4-11.5,11-22.8,16.1-34.4
		c8.5-19.2,12.2-39.5,11.3-60.4c-1.2-28.3-10.6-54.1-25.7-77.9c-10.1-15.8-22.1-30.1-35.9-42.7c-3.6-3.3-3.6-5.4-0.1-8.8
		c8.9-8.5,17.5-17.4,26.3-26c8.4-8.2,6.5-8.4,15.1,0.2c17.8,17.8,37.2,33.5,60.4,43.7c35.1,15.4,70.5,18.4,106.4,2.4
		c10.6-4.7,21.4-9.3,32.2-13.7c29.7-12,55.4-29.5,78.8-51.5c40.4-38,54.5-83.9,46.1-137.7c-2.9-18.9-8.7-36.9-16.7-54.3
		c-2-4.3-2.6-7,3-9.1c12.8-4.8,25.4-10,37.9-15.4c4.4-1.9,6.7-1,8.3,3.4c3.7,10,8.3,19.6,13.4,29c12.7,23.4,28.7,44.2,51.1,59.2
		c21.8,14.5,45.4,23.2,72.1,22.9c22-0.3,44-1.1,65.9-2.1c14.7-0.7,29.1-2.8,42.8-8.7c6.4-2.7,13.2-4.7,19.7-7.1
		c41.7-15.3,69.8-44.2,85.6-85.4C1056.9,54.6,1059.8,25.6,1058-4z M782.9,402.2c-1.6,0.5-3.2,1-4.7,1.7
		c-77.5,35-147,81.7-208.3,140.6c-20.9,20.1-41.3,40.6-59.1,63.5c-2.2,2.5-4.4,5-6.5,7.6c-96.1,119.8-150.8,256.2-163.9,409.1
		c-6.3,73.5-2.1,146.6,14.2,218.5c47.4,208.7,162.7,369.3,344.2,482.4c29.7,18.5,60.8,34.5,93.3,47.5c2.4,1.1,4.9,2.2,7.3,3.2
		c99.4,40.8,202.7,59.7,310.3,56.1c49.1-1.6,97.6-7.6,145.4-18.8c30.8-7.2,61.5-15,90.4-28.3c5.6,0.3,10.2-2.7,15-4.6
		c211.4-82.8,376.5-262.9,441.4-481.7c10.6-35.8,19.1-72,23.3-109.1c3.7-19,5.3-38.3,6.2-57.5c2.1-48.9,1.5-97.8-5.1-146.5
		c-11.2-82.9-35.6-161.7-73-236.4c-8.2-16.3-16.4-32.7-26.9-47.8c-13.4-25.9-32.6-48-49-71.8c-1.1-3.3-3.6-5.6-5.7-8.2
		c-29.2-36.9-61.6-70.9-97.3-101.7c-84.5-73-180.5-124.7-288.1-154.8c-38.2-10.7-76.9-19-116.6-22.1c-23.4-3.4-47-4.5-70.6-5
		c-53.4-1-106.4,3.6-158.8,14C886.1,363,833.5,379.4,782.9,402.2z M526.4,431.4c0.2,1.1,0.5,2.7,0.8,4.3c1.9,9.8,7.3,17.7,14.1,24.8
		c16.1,16.8,36.2,28.1,55.4,40.7c3.5,2.3,6,1.2,8.9-1.1c8.8-7.1,17.7-14.1,26.7-20.9c29-21.9,59.6-41.4,91.4-58.8
		c4.1-2.2,7.1-4.2,6.1-9.8c-3.5-20.7-6.4-41.4-14.1-61.1c-2.8-7.1-5.8-14.2-10.3-20.4c-11.2-15.6-27.7-21.2-45.4-14.1
		c-42.8,17.3-81,41.5-112.2,76c-7.6,8.4-14.2,17.6-18.5,28.3C527.8,423,526.3,426.7,526.4,431.4z M1854.3,1489.5
		c1.3-14.1-4.4-22.4-15.5-30.4c-5.7-4.1-12.2-6.8-18.8-9.2c-18.9-7-38.8-9.3-58.3-13.3c-3.5-0.7-5.6,0.4-7.3,3.5
		c-3.1,5.9-6.3,11.7-9.6,17.5c-20.2,35.7-43,69.7-68.9,101.5c-3.7,4.6-4.5,8-1,13.1c5.6,8.2,10.2,17.2,15.9,25.4
		c8.8,12.6,18.5,24.5,30.2,34.4c19.7,16.6,39.4,15.9,57.5-1.9c32.4-31.9,54.9-70,70.3-112.6
		C1852.2,1508.5,1854.4,1499.1,1854.3,1489.5z M963.7,1957.5c8.5-0.2,19.4-0.8,30.2-3.1c23.7-4.9,33.7-12.9,35.6-42.8
		c0.1-2,0.1-4,0-6c-1.2-20.4-6-40.1-10.2-60c-0.9-4.3-3.2-6.3-7.5-6.5c-2-0.1-4-0.6-5.9-0.7c-21.9-2-43.6-5.4-65.2-9.6
		c-22.6-4.4-44.9-9.7-67-16.2c-7.9-2.3-8-2.2-13,4.6c-5.3,7.3-10.9,14.3-15.8,21.9c-8.9,13.7-16.8,28-21.4,43.8
		c-6.7,23.3,1.1,40.9,23.1,50.3C883.1,1948.7,921.4,1956.7,963.7,1957.5z M1491.4,314c-10.1-1.2-18.1,4.3-24.9,12.2
		c-5.8,6.7-9.2,14.6-12.1,22.8c-6.7,18.9-9.6,38.7-13,58.4c-1.5,8.7-1.5,8.8,6.3,13.1c28.1,15.4,55.2,32.3,81,51.2
		c10.2,7.5,20.2,15.3,30.2,23c2.4,1.9,4.5,3.6,7.9,1.5c22.1-13.1,43.9-26.6,61.5-45.7c3.9-4.2,7.2-8.8,9.7-13.9
		c7.4-14.8,5.5-30.2-5.6-42.4c-5.1-5.7-10.7-11-16.3-16.1c-14.7-13.2-31.2-23.8-47.1-35.4c-15.3-11.2-32.3-18.5-50.1-24.2
		C1510.4,315.8,1501.6,313.9,1491.4,314z M1146.6,262.9c0.4,20.8,5.6,40.8,9.6,61c1.1,5.6,3.5,8.2,9.7,8.8
		c24.2,2.5,48.2,6.2,72,11.1c20.2,4.2,40.2,9.2,60.1,14.8c3.7,1.1,6.8,2.2,9.7-1.8c14.1-19.4,28.6-38.5,37.9-60.9
		c2.4-5.9,4.4-11.9,5.5-18.1c3.3-18-4.8-34-21.1-41.7c-10.6-5-21.5-8.8-32.7-12.2c-21.9-6.7-44.6-7.8-67.1-9.5
		c-17.2-1.3-34.6-1.3-51.6,3c-19.2,4.9-28.5,11-31.8,36.6C1146.3,256.9,1146.6,259.9,1146.6,262.9z M414.9,1441.3
		c-7.8,1.2-13.4,2.2-19,2.9c-17.6,2.2-34.5,7.4-50.9,14c-7.5,3-14.6,6.8-20,12.9c-10,11-15,23.3-9,38.3
		c17.3,43.3,41.5,81.9,76.3,113.4c8.7,7.8,18.3,14.4,29.3,18.8c5.8,2.3,11.5,2.6,17.6,0.9c11.1-3,19.4-10.1,27-18.1
		c12.9-13.7,22.4-29.8,32.6-45.4c6.3-9.7,6.1-7.6-0.7-16c-21.4-26.4-41.1-54.1-58.8-83.2c-6.6-10.8-12.7-21.9-19-32.9
		C418.4,1443.7,416.9,1440.8,414.9,1441.3z M1737.9,525.3c-4.9,0.1-11.3,2.5-17.4,6.3c-6.3,3.9-11.5,9-16.4,14.5
		c-12.6,13.9-22.1,30-32.3,45.6c-5.9,9.1-5.7,7.9,1,16.2c25.9,31.8,49,65.6,69.6,101.1c3.3,5.7,4.8,13.5,10.7,16.4
		c6,2.9,13-1,19.6-1.8c17.3-1.9,33.9-6.9,50-13.3c7.8-3.1,15.3-6.7,21.3-12.8c10.9-11.3,16.2-23.9,10-39.8
		c-4.3-10.9-8.6-21.7-14.5-31.8c-7.2-12.3-14.9-24.5-22.4-36.7c-10.9-17.8-25.2-32.7-40.9-46.2c-7.4-6.3-15.4-11.6-24.4-15.4
		C1748.1,526.3,1744.3,525.1,1737.9,525.3z M1199.2,1960.2c40.1-0.8,78.6-9,115.2-25.7c11.6-5.3,22.3-11.9,31.4-20.9
		c5.6-5.5,8-12,8.4-19.7c0.5-10.3-2.7-19.7-6.8-28.9c-8.5-18.6-20.9-34.8-32.3-51.6c-2.9-4.2-6.1-4.4-10.3-3.1
		c-44.7,13.6-90.3,22.9-136.8,27.7c-3.9,0.4-6,1.9-7,5.7c-6,23.6-11.5,47.3-10.9,71.9c0.1,5.7,1,11.3,2.5,16.8
		c4.8,17,18.1,27.3,35.6,27.8C1191.8,1960.3,1195.5,1960.2,1199.2,1960.2z M979.3,210.3c-18.6,0.5-36.4,3.1-54.2,5.8
		c-25.2,3.9-49.3,11-71.9,22.9c-8.9,4.7-17.1,10.3-24.2,17.5c-4.4,4.5-6.8,9.7-7.6,15.9c-1.4,10.6,1.4,20.4,5.5,30
		c8.1,18.8,20.4,35,31.9,51.7c4.9,7.2,5.1,7.1,13.9,4.6c20.2-5.7,40.5-10.8,61-15c24.5-5,49.1-8.5,73.9-11.4
		c3.6-0.4,6.2-1.1,7.2-5.2c6.1-23.6,11.4-47.2,10.9-71.8c-0.1-5.4-1-10.6-2.3-15.8c-4.3-16.6-16.8-27.2-33.8-28.8
		C986,210.5,982.3,210.4,979.3,210.3z M215.5,948.9c-0.3,19.3,0.4,34.2,4.8,48.8c4.1,13.9,13.2,21.7,27.1,24.7
		c10.6,2.3,21.2,1.9,31.8,0.5c15.2-1.9,30.1-5.6,45.1-8.5c6.1-1.2,8-4.1,8.7-9.9c1.8-15.2,3.9-30.4,6.3-45.5
		c4.8-29.9,11.5-59.4,20.5-88.4c1.8-5.7,0.7-9.1-4.3-12.4c-8.1-5.3-15.4-11.6-23.5-16.8c-14.3-9.1-29.1-17.6-45.7-21.8
		c-22.2-5.6-38.6,2.1-47.7,22.9C223.1,877.8,215.4,914.8,215.5,948.9z M264.9,1144.8c-9.5-0.5-15.8,0.5-22,1.7
		c-14.7,2.8-31.5,16.9-31.2,37.4c0.4,23.1,3.4,45.8,7,68.5c3.9,23.9,11.7,46.4,23.1,67.8c4.2,8,9.6,15.2,16,21.6
		c5.5,5.6,12,8,19.7,8.4c9.2,0.4,17.8-2.1,26.1-5.7c19.5-8.3,36.1-21.3,53.5-32.9c4.4-2.9,3.6-6.4,2.6-10.5
		c-4-14.8-8.1-29.6-11.7-44.4c-7.4-30.8-12.2-62.1-15.6-93.6c-0.5-4.7-2-7.1-6.7-8.2C304.8,1149.6,283.7,1144.6,264.9,1144.8z
		 M1445.4,1756.9c1.7,20.4,7.6,46.3,15,65.2c2.5,6.5,5.5,12.9,9.6,18.6c11.3,15.6,27.6,20.9,45.4,14c43-16.6,79.9-42.1,110.2-76.9
		c5.7-6.5,10.2-13.9,14.3-21.6c5.9-11.2,4.6-21.8-1.4-32.3c-4.5-7.9-11-14.2-17.7-20.1c-13.6-11.9-29-21.1-44.2-30.8
		c-8.3-5.3-6.6-5.4-14.4,0.9c-25.1,20.3-51.3,39.1-78.9,56c-11.1,6.8-22.3,13.2-33.6,19.6
		C1446.5,1751.1,1443.9,1752.9,1445.4,1756.9z M1958.6,970.8c-0.9-39.4-8.9-77.2-25.3-113.1c-5.4-11.9-12.1-22.9-21.5-32.2
		c-5-4.9-10.9-7.3-17.8-7.8c-11-0.8-21,2.4-30.8,6.9c-17.6,8.2-32.9,20.1-49.1,30.6c-4.9,3.2-5.5,6.3-3.8,11.6
		c13.8,44.6,22.8,90.3,27.7,136.7c0.5,4.3,1.9,6.5,6.1,7.6c20.7,5.3,41.4,9.9,62.8,10.5c6.7,0.2,13.3-0.4,19.9-1.7
		c19.1-3.6,30.8-16.9,31.8-36.2C1958.8,979.5,1958.6,975.1,1958.6,970.8z M678.2,1853.7c12.8,0.2,20.6-3.4,28-12.1
		c5.5-6.5,8.9-14,11.8-21.9c7.1-19.2,9.5-39.4,13.6-59.3c1-4.7-1.7-6.5-5.2-8.4c-40.6-21.8-78.9-47.3-114.7-76.2
		c-3.9-3.2-6.9-3.9-11.4-0.9c-8,5.4-16.8,9.7-24.6,15.3c-14.1,10.1-28,20.6-38.2,35c-12.5,17.7-11.1,35.6,3.6,51.4
		c16,17.2,35.1,30.7,54.2,44.1c18.2,12.8,38.1,21.8,59.1,28.6C662.8,1852,671.4,1853.4,678.2,1853.7z M1955.8,1213.2
		c0.3-17.5-1.3-32.2-5.9-46.7c-4.1-12.8-13-19.6-25.5-22.6c-9.9-2.3-19.8-2.1-29.8-1c-15.9,1.8-31.5,5.3-47,8.9
		c-8.2,1.9-8.4,2-9.1,10.4c-1.3,14.6-3.3,29.1-5.6,43.5c-4.7,30-11.3,59.5-19.7,88.6c-1.6,5.6-1.3,9.2,4,12.6
		c7.8,5,14.9,11.2,22.7,16.2c13.7,8.8,28,16.8,43.8,21.4c23.2,6.8,40.5-1.2,50.3-22.9c0.8-1.8,1.6-3.7,2.3-5.5
		C1950.6,1282.5,1955,1247,1955.8,1213.2z M317.8,676.1c-0.2,12.8,2.9,19.6,12.3,27.4c5.7,4.7,12.3,7.9,19.2,10.5
		c20.4,7.8,41.8,10.6,63.1,14.5c4.8,0.9,6.4-1.7,8.3-5.1c21.6-39.5,46.4-76.9,74.8-111.9c3.1-3.8,3-6.8,0.5-10.7
		c-5.8-8.9-10.7-18.5-16.9-27.1c-9.3-13-19.2-25.6-32-35.5c-18.4-14.2-36.8-13.4-53.7,2.3c-17.2,16-30.4,35.2-44,54.1
		c-12,16.7-20.2,35.2-26.7,54.5C319.6,658,317.6,667.1,317.8,676.1z"/>
	<path class="st1" d="M1677.5,630c16.4,23.9,35.6,45.9,49,71.8c-2.8,1.5-4.1,3.5-4.5,7c-0.7,7.7-2.7,8.9-10.5,7.4
		c-8.2-1.6-15.8-5-23.7-7.7c-7.2-2.5-14.4-5.4-22-6.4c-7.7-1-9.7,0.8-10.1,8.4c-0.2,4.3,0.3,8.6,1.1,12.9c1.5,8,5.6,14.9,9.3,22
		c2.6,5,1.1,6.9-4.5,5.9c-9.8-1.7-19.6-3.8-29.4-5.6c-2.8-0.5-4.9-1.9-6.7-3.9c-9.9-10.8-22.2-15.3-36.8-14.2
		c-8.3,0.6-16.7,0-24.8-2.1c-7.8-2-14-5.6-16.5-14.2c-2.1-7.3-7.5-12.5-13.7-16.7c-5.9-3.9-12.3-6.7-19-8.7
		c-20.1-5.9-40.6-8.2-61.3-5.7c-25.4,3.2-47,14.1-62.6,35.3c-3.5,4.8-7.5,9.3-11.9,13.4c-7.6,7.1-16.2,11.2-27,11.2
		c-8.6,0-17.3,1.2-25.9,1.5c-5.1,0.2-8,2.5-9.6,7.1c-2.1,6-3.9,12.1-4.6,18.4c-1.3,12.3-3.8,24.1-9.9,35.2c-4.5,8.2-6.4,17.4-6.4,27
		c0,3-0.5,6-0.9,8.9c-4.5,29.3-8.8,58.6-7,88.4c0.1,2,0.1,4,0,6c-1.2,15.3,5.6,26.5,18.2,34.3c10.9,6.7,18.7,15.7,24.2,27.2
		c5.3,11.2,12.6,21.2,21.2,30.1c8.5,8.8,19,13.4,31.2,13.8c5.3,0.2,10.7,0.1,16-0.3c10-0.8,10.5-1.4,10.5-11.5c0-40,0-80,0-120
		c0-4.7-0.2-9.3-0.8-14c-2.2-16.6-10.8-26.4-27.1-30.7c-7.4-2-15-3-22.7-3.5c-15.7-1-14,1.1-14.1-15.4c-0.1-13.1-1-12.4,12.5-12.4
		c134.3,0,268.7,0,403,0c2,0,4,0.1,6,0c4.1-0.2,6.3,1.4,6.1,5.8c-0.1,2.7,0,5.3,0,8c0,42.3,0.1,84.7,0,127
		c-0.1,18.7,2.6,16.4-16.4,16.5c-9.1,0.1-9.1-0.1-11.1-9c-3-13.7-6.5-27.2-11.1-40.4c-12.4-35.7-37.2-57.5-73.7-66.4
		c-30.4-7.4-61.3-8.5-92.4-7.3c-4,0.2-8,0.9-11.9,1.7c-11,2.2-16,7.7-17.2,19c-0.5,5-0.5,10-0.5,15c0,32,0,64,0,96
		c0,17.3-0.1,34.3,6,51.2c5.2,14.4,4,14.9,19.5,12.7c33.5-4.6,56.3-22.4,67.3-54.8c4.6-13.6,7.4-27.6,10.2-41.7
		c2.5-12.5,0.2-11.6,13.6-11.7c0.7,0,1.3,0,2,0c13,0.1,12.5-1.2,12.5,12.4c0,76,0.1,152-0.1,228c0,20.7,3.2,17.5-18,17.8
		c-7.6,0.1-7.6-0.2-8.9-7.3c-0.6-3.3-1.1-6.6-1.6-9.9c-2.5-15.8-5.6-31.5-11.8-46.4c-10.2-24.6-28.4-39.7-54-46.2
		c-2.4-0.6-5-2.1-7.8-0.1c0.1,1.3,0.2,2.6,0.4,3.8c4,18.5,8.1,37.1,12,55.6c2.3,10.8,2,20.9-5,30.5c-5.3,7.1-5.5,15.4-1.9,23.7
		c4.5,10.4,8.2,21.2,13.3,31.2c5.8,11.3,5.5,22.3,1.6,33.8c-1.7,5-3.5,10-3.4,15.5c0,15.5-0.1,15.5,15.5,16.9c0.7,0.1,1.3,0.1,2,0.2
		c5.5,0.9,12.7-2.1,16.1,2.4c3.5,4.5,1.2,11.6,1.2,17.5c0,6.9-0.3,7-7.6,7.2c-6,0.2-12,0.1-18,0.1c-3.4,0-5.2,1.9-4.1,5.1
		c4.7,15-0.1,28.9-4.5,43c-1.2,3.8-2.5,7.6-2.2,11.7c0.3,6.5,3.1,9.1,9.5,8.5c25.9-2.3,51.7-4.7,77.6-7.2c8.1-0.8,14.2-4,17.7-12.3
		c4.6-10.8,11.2-20.5,21-27.5c3.3-2.4,4.1-5.9,5.3-9.4c4.3-12.6,11.3-23.3,22.6-30.9c1.4-0.9,2.6-2.1,4-3c6.3-4,9.9-9.5,11-17
		c1-6.9,2.8-13.7,4.1-20.6c2.4-13.1,7.6-24.6,16.7-34.5c17.4-18.9,35.3-37.3,54.2-54.6c-4.3,37.1-12.7,73.4-23.3,109.1
		c-64.9,218.8-230,398.9-441.4,481.7c-4.9,1.9-9.5,4.9-15,4.6c4.8-2.8,10.6-3.8,14.5-8.1c-0.6-0.8-0.9-1.5-1.4-1.8
		c-27.9-16.9-58.1-28-90.2-33.5c-10.8-1.8-21.9-3.3-32.3,2.3c-9.4,5-18.7,4.9-28.8,2.3c-15.5-4-30.7-3.4-45.9,3.1
		c-15.6,6.6-31.9,11.5-47.8,17.5c-5.5,2.1-10.8,2.5-16.5,1.2c-9.7-2.1-19.4-4.4-29.5-4.8c-7-0.3-13.6-3-19.6-6.9
		c-8.4-5.4-15.1-11.7-16.2-22.6c-0.6-5.9-2.7-11.7-6.3-16.7c-3.7-5.1-3.9-10.4-1.4-16c1.4-3,2.7-6.1,4-9.1c1.3-3,4.1-6.5,1.3-9.2
		c-3.5-3.3-6.7,0.8-9.5,2.6c-10.3,6.5-17.3,15.5-19.6,27.7c-0.8,4.3-2.1,8.5-4.7,12c-7.6,9.8-15.8,19-26.4,25.6
		c-6.6,4.1-13.7,7.4-21.6,6.4c-16.8-2-33.7-3.1-50.1-8.2c-11.2-3.5-22.9-4.4-34.6-2.8c-10.2,1.5-20.3,3.6-30.6,4.8
		c-16.4,2-29.7,9-40.1,21.9c-32.5-13-63.6-29-93.3-47.5c-181.4-113.2-296.8-273.8-344.2-482.4c-16.3-71.9-20.5-145-14.2-218.5
		c13.1-152.9,67.8-289.4,163.9-409.1c2.1-2.6,4.3-5.1,6.4-7.6c-3.5,7.9-6.8,15.6-12.3,22.6c-5.5,6.9-10,14.9-10,24.5
		c0,4.6-2.4,8.3-6,11.1c-13.9,10.6-17.4,24.4-13.4,40.9c1.4,5.6,1.4,11.6-2.1,16.4c-10.1,14.4-13.3,30.9-15.8,47.9
		c-1.1,7.5-0.5,14.5,1.9,21.6c3.1,9.2,5.1,18.6,5.1,28.4c0,8.8,0.2,8.8,8.9,8.9c2.3,0,4.7,0,7,0c27,0,54,0.2,81-0.1
		c6.3-0.1,10.6,1.8,14.3,6.9c5.9,8,12.5,15.6,18.8,23.4c6.9,8.5,14,17,20.7,25.6c3.4,4.4,6.1,5.8,12.3,3.6
		c11.3-4,22.7-7.3,33.5-12.5c2.4-1.1,5-1.7,7.6-2.3c13.4-2.9,25.1-0.7,34.1,10.7c4.1,5.2,8.5,10.3,12.7,15.4c3,3.6,6.6,6.7,11.2,8.1
		c6.8,2.1,11.2-0.6,12-7.7c0.7-5.6,0.5-11.3-1.9-16.7c-2.4-5.1-4.9-10.2-7.1-15.4c-3.7-8.5-1.6-14.8,6.7-19.2
		c3.8-2,7.8-3.8,11.8-5.5c3-1.3,4.5-3.3,5-6.7c1.2-7.5,1.4-7.4,9.3-7.7c4.2-0.1,8.8,1.1,12.5-2c7.6-6.5,15.2-12.9,18.7-22.9
		c3-8.5,6.6-16.7,10.1-25c5.6-13.3,13.5-23.8,27.8-29.5c14.2-5.7,25.5-15.7,32.8-29.6c2.9-5.6,6.7-12,2.2-17.7
		c-4.9-6.2-12.1-3.7-18.5-1.5c-3.5,1.2-6.7,3.1-10.4,3.4c-1.7,0.1-3.4-0.1-4.4-1.8c-1-1.8,0.3-3.2,1.4-4.3
		c8.1-7.8,17.9-12.5,28.5-15.9c6.6-2.1,11.8,1.5,17,3.9c9.5,4.4,18.1,3,26.8-1.5c12.7-6.5,16.4-32.1,6-42c-0.9-0.9-2.1-1.8-3.3-2.1
		c-8.6-2.2-13.8-8.9-19.7-14.7c-4-4-5.8-8.6-5.9-14.3c-0.1-6-0.8-12-1.6-17.9c-2.4-16.4-18.5-27.4-32.2-24.5
		c-7.6,1.6-15.3,1.7-22.9,0.5c-5.4-0.8-8.1,1.5-9.9,6.1c-1.8,4.7-3.7,9.3-5.5,14c-5.2,13.4-14.2,23.1-27.5,28.8
		c-5.2,2.2-10.4,4.6-15.5,6.8c-8.3,3.6-9,3.9-14.3-3.1c-5.6-7.4-11.9-13.3-21-15.9c-1.3-0.4-2.4-1.1-3.6-1.7
		c-3.7-1.8-4.8-4.5-2.6-8.1c2.9-4.7,4-9.8,3.3-15.3c-0.8-5.4,1.7-8.9,6.5-11c8-3.6,16.3-5.9,25.2-4.2c5.3,1,10.6,1.4,15.9,0.9
		c13.6-1.2,25.9-11.1,27.3-23.8c1.1-9.5,5.3-14.5,14.1-16.9c6.8-1.8,11.5-5.5,13.7-12.9c2.6-8.6,8.4-10.2,16.6-6.7
		c4.3,1.8,6.8,5.2,8.7,9.2c2,4.2,3.8,8.5,5.9,12.6c2.3,4.5,5.4,8.4,10,10.9c7.2,3.8,11.7,2.6,15.7-4.6c7.4-13.5,10.5-28,9.5-43.3
		c-0.8-11.9-5.9-17.3-18.1-18.7c-5.3-0.6-9.6-2.5-13.4-5.9c-4-3.5-7.7-7.4-12-10.5c-10.1-7.2-15.6-19.5-28.5-23.8
		c-6.3-2.1-12-5.7-18.9-4.9c-3,0.3-5.2-0.3-6.7-3.1c-4.2-7.9-10.6-14.6-13.1-23.5c50.5-22.9,103.2-39.2,157.5-50
		c52.4-10.4,105.4-15,158.8-14c23.6,0.5,47.2,1.6,70.6,5c3.1,12.8,1.2,25.1-3.3,37.2c-1.1,2.9-1.9,6-0.4,8.7
		c3.8,7,7.3,14.3,14.9,18.2c4.8,2.4,9.7,4.5,14.1,7.4c11.3,7.5,21.7,5.3,31-3.1c4.6-4.2,8.5-3.8,13.5-1.7
		c14.5,6,29.1,11.6,43.6,17.4c1.9,0.7,3.7,1.6,5.6,2.2c3.4,1,6-1,7.7-3.3c2.4-3.3-1.3-4.6-3-6.1c-11.7-9.9-23.5-19.7-35.2-29.6
		c-2.6-2.2-5.4-4.2-8.9-4.2c-12-0.1-21.6-5.5-30.8-12.5c-3.2-2.4-6.9-4-10.2-6.3c-1.3-0.9-4.3-0.9-3.2-4.1c1.8-1,3.7-1.1,5.6-0.1
		c6,3,11.8,6.2,18,8.8c20.9,8.7,41.5,18.3,64.5,19.9c2.7,0.2,5.4,0.7,7.3,2.7c5.8,6,12.7,9.3,21.2,9.4c-3.2,8-3.2,8,3,13.5
		c5.1,4.5,10.7,8.4,15.3,14.2c-4.3,2.5-7.6,5.4-11,4.8c-8.7-1.5-16.2-1.1-24.1,4.3c-4,2.8-11,1.1-16.7,1.6c-7.9,0.8-13.3-3-17.4-9.4
		c-1.2-1.9-1.7-4.4-4.3-5.2c-7.9-2.5-15.8-6.1-24.2,1.6c7.2,7.2,14.4,14.5,21.7,21.7c7,7,6.8,6.2,0.7,13.6c-3.9,4.7-6,9.2-3.8,15.4
		c1.9,5.5,0.7,11-1.2,16.6c-3.6,11.1-11.2,19.5-17.8,28.7c-1.6,2.2-3.9,2.2-6.2,2.4c-6.2,0.7-11.5,3.3-16.1,7.4
		c-6.1,5.6-5.5,9.6,2.2,12.3c5.6,2,11.5,3.3,17.4,4.5c30.4,6.2,45.7,29.7,62.4,52.3c-3.7,2.1-6.7,2.6-9.6,3.3
		c-12.8,2.8-25.8,3.5-38.7,3.7c-15.5,0.2-28.2,5.9-39.8,15.7c-4.1,3.5-4.2,6.2-1.3,10c4.7,6,9.4,12.1,14.3,18
		c4.2,5,6.6,10.6,7.5,17.1c0.9,6.6,1.9,13.2,2,19.9c0.1,4.8,1.9,9.4,6.6,10c10.5,1.4,16,7.8,19.6,16.8c0.7,1.8,2.6,3.1,3.6,4.8
		c2.6,4.3,6.1,5.6,11,4.7c8.4-1.7,16.5-0.4,24.4,3c3,1.3,6.4,1.8,9.5,3.2c4.4,1.9,7.1,1.3,9.7-3.2c5.5-9.1,14.1-13.9,24.6-15.2
		c3-0.4,5.9-0.8,8.6-2.3c3.1-1.6,5.6-3.8,6.1-7.4c1.8-11.2,3.8-22.2,1.1-33.7c-2-8.4-3.9-16.9-6.6-25.1c-4.3-12.9-1.1-24.4,7.5-34.2
		c4.8-5.5,7.2-9.7,3.2-17.3c-4.7-8.9-1.5-15,7.9-19c6.1-2.7,12.6-4.2,19.1-5.8c4.5-1.1,10.2-1.1,12.9-4.7c4.5-5.9,8.5-3.3,12.7-0.7
		c11.6,7.2,24,13,36.4,18.7c8.2,3.8,16.7,6.2,25.8,7.4c21.7,2.7,41,10.8,56,27.6c3.3,3.7,6.3,7.8,12.3,12
		c-2.8-7.5-4.8-12.7-6.8-17.9c-0.7-1.9-2.1-4.3-0.5-5.6c5.6-4.8,1.2-7.1-1.9-9.9c-9.2-8.2-20.5-12.4-31.9-16
		c-20.2-6.3-38.9-15.5-56.9-26.5c-5.8-3.6-10.8-7.8-15.9-15.2c10.6,3.4,18.9,7.1,27.6,8.7c20.9,3.8,38.5,14.3,56.1,25.1
		c4.3,2.6,8.6,5.1,12.8,7.9c15.7,10.6,31.3,21.5,43.9,36.1c6.5,7.6,14.7,13.6,22.7,19.6c6.6,4.9,14.6,6.3,22.4,7.8
		c3.7,0.7,6-0.9,4.8-5.1c-2.3-7.6-4.5-15.4-10.9-20.9c-3.5-3-6.7-6.4-10.2-9.6c-5.7-5.1-7.6-11.8-9-20.6
		c7.1,5.1,10.8,11.1,15.5,16.1c8.5,8.9,17.5,17.6,29.4,21.7c5.9,2,11.1,4.2,14.8,9.4c2.4,3.5,5.4,4.3,7.7,0.1
		C1665.2,630.6,1670.8,629.1,1677.5,630z M1175.9,489.8c6.5-1.8,13-2.6,19.7-1.5c2.6,0.4,4.7,1.9,4.8,4.3c0.1,3-4.4,0.2-5,3.5
		c1.5,1.6,3,3.3,4.7,4.9c2.3,2,1.8,4.8,2.4,7.4c0.4,1.7,1.8,2.9,3.5,3.3c6.1,1.3,5.8,5.2,4.3,9.8c-0.5,1.5-0.8,3.3,0.8,5
		c4.9-1.9,8.9-5.3,13.4-8.1c4.2-2.6,8.4-5.3,13.1-7.1c13-5,13.5-2.7,3.9-16.3c-1.7-2.4-4-3.3-6.7-3.7c-11.8-1.5-22.1-6.9-32.5-12
		c-2.4-1.2-4.8-2.9-7.3-3.1c-5.3-0.4-7.7-3.2-8.6-7.9c-0.6-3.1-2.4-4.7-5.5-4.5c-5.9,0.5-11.1-1.2-16-4.2c-3.9-2.4-5.2,0.9-7,3.2
		c-2,2.5-0.6,4.1,1.3,5.8c3.2,2.8,7.8,4.3,9.3,8.7c1.7,4.8,5,8.5,7.6,12.7c-3.1,2.3-6.9,1-10.4,1.9c-5.3,1.3-5.1,6.5-7.4,9.8
		c-1.5,2.1,1.2,5,3.7,6.2c3.7,1.7,4.2,4.8,4.1,8.3c-0.2,4.4,2.3,5.2,6.2,5.8c7.4,1.1,12.6-2.9,18.4-6.2c4.1-2.4,4.3-5.3,2.1-9.1
		c-2.8-4.9-7.8-7.1-11.8-10.5C1179,494.2,1174.8,494.1,1175.9,489.8z M833.6,1352.1c-1.1,2.3-0.6,3.6-0.1,4.8
		c4.8,11.6,7.2,23.6,6,36.1c-0.4,4.7,1.3,8.5,3.8,12.1c4.2,6,8.7,11.8,12.8,17.9c5.4,8.1,10.1,16.7,10,26.7
		c-0.1,9.4,0.9,18.7,2.1,27.9c2.4,17.9,5.9,35.5,15.8,51.1c2.9,4.5,5.3,9.4,5.8,14.8c2.4,23.9,15,43.9,24.6,65
		c2.6,5.8,7.6,10.1,14.1,12c12.4,3.7,24.9,4.2,37.4,0.8c7.4-2,9.5-6.1,7.7-13.6c-1.3-5.4-4.9-9.4-8.7-13.1
		c-4.4-4.3-8.3-9.1-7.3-15.7c1.1-7.3-1.2-13.8-3.4-20.5c-2.4-7-5.8-13.5-9.7-19.7c-2.7-4.3-4-9.1-0.6-13.1
		c6.1-7.4,7.7-15.9,8.4-25.1c0.5-6.1,3.6-11,9.5-12.9c12.6-4.1,19.5-12.4,22.7-25.4c3.3-13.2,12.5-21.8,25.7-25.6
		c3.5-1,7.2-1.1,10.9-1.5c9.4-1.1,14.8-5.9,17-15.5c4.1-18.2,9.3-36.1,15.4-53.8c2.1-6.2,4.3-12.5,6.8-19.9c-18-4.4-34.7-11-51.9-16
		c-18.9-5.5-26.2-1.2-30.4,16.1c-1.1,4.6-3.3,6.9-8.3,6.6c-4.3-0.3-8.7,0-13-0.1c-8.9-0.2-9-0.3-9.2-8.9c0-1,0-2,0-3
		c0-55.7,0-111.3,0-167c0-2.3,0.1-4.7,0.1-7c0.1-3.2,1.6-4.9,4.9-4.9c5.3,0,10.7-0.1,16-0.1c7.6,0.1,7.8,0.2,9.3,7.3
		c2.3,10.4,4.9,20.8,8.2,30.9c10.5,32.1,25.3,61.6,50.1,85.3c14.5,13.8,31.2,23.8,50.5,29.3c3.5,1,6.8,1.9,10.5-0.2
		c13.4-7.6,24.2-17.2,29.4-32.5c3.8-11.1,6.7-22.3,9.6-33.6c5.2-20,10.7-39.9,21.9-57.7c8.1-12.9,6.1-20.2-7.9-27
		c-23.1-11.3-46.5-21.8-69.2-33.6c-12.2-6.3-24.2-10.6-38.1-9.4c-4.6,0.4-9.3-0.3-13.9-1c-8.7-1.2-16-4.7-20-13.1
		c-2.9-6-8.1-9.6-13.3-13.2c-9.2-6.2-19.6-9.9-30-13.5c-3.5-1.2-7.3-1.9-10.2-3.9c-22.5-16-48.7-25.9-70.6-43
		c-6.1-4.7-13-8.1-20.2-10.7c-2.3-0.8-4.8-2.7-7.5-0.6c-1.2,3.9-0.6,7.9-0.6,11.9c0,101.3,0,202.7,0,304c0,3-0.1,6-0.1,9
		c0.1,3.8-1.8,5.3-5.5,5.3C844.9,1352,839,1352.1,833.6,1352.1z M497.2,1106.2c0-50.3,0-100.7,0-151c0-2.3-0.1-4.7,0.1-7
		c0.4-4.9,4.2-6.9,8.1-4c2.3,1.8,4.1,4.4,6,6.7c83.7,102,167.5,204,251.2,306.1c21.6,26.3,43.1,52.5,64.7,78.8
		c5.9,7.1,13.3,10.8,18.5,7.5c5-3.1,1.8-9.1,2.3-13.7c0.5-4.6,0.1-9.3,0.1-14c0-132.7,0-265.3,0-398c0-8.7,0.1-17.3,1.1-25.9
		c2.3-18.2,12.2-29.7,29.1-35.7c7.6-2.7,15.4-4.4,23.2-5.7c2.7-0.5,4-1.5,4.3-4.4c0.5-5.7-0.5-6.8-7.7-6.8c-34.3-0.1-68.7,0-103,0
		c-11,0-22,0-33,0c-3.4,0-6.6-0.4-6.8,4.8c-0.2,5.1,2.3,6,6.6,6.4c8.6,0.8,17.1,2.8,25.3,5.7c19.7,7,31,21.1,34.7,41.5
		c1.7,9.6,2.1,19.2,2.1,28.9c0,72.7,0,145.3,0,218c0,1.7,0.1,3.3,0,5c-0.1,1.9,0.6,4.2-2.1,5c-2.3,0.6-4.8,0.8-6.6-1.1
		c-2.7-2.9-5.2-6.1-7.7-9.2c-80.3-98.8-160.6-197.6-240.7-296.6c-5.2-6.4-10.4-8.6-18.5-8.6c-42,0.4-84,0.2-126,0.2
		c-2.3,0-4.7-0.1-7,0c-2.2,0.1-5.1-0.4-5.2,3c-0.1,3.1-1.3,6.7,3.5,8c10,2.7,17.4,9.5,24.7,16.4c10,9.4,18.6,20,27.7,30.2
		c5,5.6,6.9,11.4,6.9,18.9c-0.2,112-0.1,224-0.2,336c0,6.3-0.3,12.7-0.7,19c-2,25.7-13.8,39.5-38.9,45.2c-6.8,1.6-13.7,2.8-20.7,3.6
		c-4.8,0.6-4.7,3.4-4.8,7c-0.1,4,2.5,4,5.3,4c2.3,0,4.7,0,7,0c45,0,90,0,135,0c2.3,0,4.7-0.2,7,0c4.6,0.4,5.6-2,5.4-6
		c-0.1-3.5-1.8-4.5-4.9-5c-9.9-1.6-19.7-3.2-29.2-6.6c-18.6-6.6-29.7-19.4-33.7-38.7c-2.3-10.9-2.5-21.8-2.6-32.8
		C497.2,1196.2,497.2,1151.2,497.2,1106.2z M1557.7,839c-64.3,0-128.6,0-192.9,0c-2.7,0-5.3,0.1-8,0c-3.5-0.1-4.4,1.7-4.5,5
		c-0.2,4.5,1.9,5.8,5.9,5.9c9,0.2,17.9,1.6,26.6,4c18,5,28,17.1,31.3,35.1c1.3,6.9,1.7,13.9,1.7,20.9c0,116.6,0,233.3,0,349.9
		c0,5.7-0.2,11.3-1,16.9c-3.2,23-13.5,34.4-36.2,39.1c-7.5,1.6-15.1,2.6-22.7,3.5c-4.3,0.5-5.5,2.3-5.5,6.4c0,4.6,2.7,4.6,5.9,4.5
		c1.7,0,3.3,0,5,0c78.6,0,157.3,0,235.9,0c2.3,0,4.7-0.1,7,0c3.8,0.1,4.1-2.2,4.1-5.2c0-3.1-0.7-5.2-4.3-5.1c-2.3,0-4.7-0.1-7-0.3
		c-12.6-1.1-25.2-1.7-37.5-5.2c-18.8-5.4-29-17.9-31.5-37c-0.9-7-1.2-13.9-1.2-20.9c0-48.7,0-97.3,0-146c0-5.3-0.1-10.7,0-16
		c0.2-7,0.2-7.1,7.4-7.1c11,0,22,0.8,32.8,2.9c34.5,6.9,58.4,26.2,69.7,60c2.1,6.3,4,12.7,5.5,19.2c1.9,8.8,3.4,17.6,4.8,26.5
		c0.7,4.5,2.6,6.2,7.2,5.9c4.8-0.3,4-3.4,4.1-6.3c0.1-2.3,0-4.7,0-7c0-53,0-106,0-159c0-21,0.1-42,0-63c0-6.1-2.2-7.7-7.8-6.5
		c-4.1,0.9-3.6,4.3-4.1,7c-3.2,17.4-6.9,34.6-14.2,50.8c-11.2,25.1-30.3,40.8-56.8,47.7c-13.6,3.6-27.5,4.8-41.6,4.5
		c-7-0.2-7.1-0.2-7.1-7.3c-0.1-26.3,0-52.7,0-79c0-30.3-0.4-60.7,0.2-91c0.5-25.5,9.6-35.1,35-36.5c31-1.8,62-0.8,92.5,5.9
		c43.3,9.4,72.6,34.4,86.1,77.2c3.5,11.1,6.7,22.3,9.1,33.7c0.9,4.4,2.5,6.4,7.2,6.1c5.2-0.4,4.4-4.1,4.4-7.3c0.1-12.7,0-25.3,0-38
		c0-28.3,0-56.7,0-85c0-10.1,0-10.1-10.5-10.1c-2,0-4,0-6,0C1683.6,839,1620.7,839,1557.7,839z M955.7,1256.7c0,26.3,0,52.7,0,79
		c0,9,0.1,8.6,8.6,8.8c5.1,0.1,5.9-2.9,7.3-6.4c6.2-15.8,14.3-20.5,31-18c2,0.3,3.9,0.8,5.8,1.3c7.9,2.5,16,4.7,23.8,7.5
		c35.3,12.7,71.7,17.4,109.1,14.8c23.7-1.6,46.8-6.4,68.8-15.8c68.1-29.2,103.7-99.4,85.9-171.1c-10.8-43.5-37-75.6-76.7-96.1
		c-37.6-19.4-75.7-37.7-113.5-56.7c-14.9-7.5-29.4-15.6-42.8-25.7c-16.9-12.8-26.2-29.4-28.4-50.6c-3.7-36.6,13.8-66.3,47.6-79
		c14.2-5.3,29-7.3,44.2-6.2c32.2,2.4,59.6,15.5,82.8,37.7c19.5,18.7,33.7,41.1,44.7,65.7c4.1,9.1,7.6,18.4,10.4,28.1
		c0.9,3.1,2.2,5.1,6.1,5.3c7.8,0.4,8.8-0.2,8.8-8.9c0-44.7,0-89.3,0-134c0-9.4-0.4-9.2-9.4-9.4c-5.6-0.1-6.3,3.5-7.8,7.2
		c-5.7,14-13.7,18.8-28.8,17.7c-5-0.4-9.8-1.7-14.6-3.3c-9.8-3.2-19.6-6.5-29.4-9.7c-40.3-13.2-81.1-14.9-122.2-4.9
		c-47.1,11.4-80,39.3-96.4,85.6c-4.1,11.7-6.5,23.8-7.8,36c-4.2,41.7,6,78.6,36.1,108.9c6.6,6.6,13.4,13,20.8,18.7
		c20.8,16.4,43.6,29.3,67.4,40.7c23.4,11.2,46.8,22.5,70.1,33.9c12,5.9,23.5,12.6,34,20.9c18.8,15,28.7,34.4,29.6,58.6
		c1.5,43.1-24.6,78.9-66.6,87.6c-47,9.7-89.3-0.7-124.8-34.3c-17.2-16.3-29.6-35.9-39.5-57.2c-8.6-18.5-14.6-37.9-19.4-57.6
		c-1.4-5.8-3.8-6.8-11.1-5.9c-5.6,0.7-3.6,4.8-3.6,7.6C955.6,1204.1,955.7,1230.4,955.7,1256.7z M931.3,362.8
		c-8-0.3-9.2,0.2-13.2,6.5c-4.9,7.6-7.8,16.1-10.3,24.8c-2.4,8.2,1.2,14,9.8,15.3c1.6,0.3,3.3,0.2,5,0.3c3.8,0.2,4.2,2.5,3.3,5.5
		c-0.5,1.6-1.2,3.2-2.2,4.4c-7.2,8.9-7.2,19-4.6,29.4c1.6,6.3,2.1,12.5,0.2,18.7c-0.9,3-1,6.1,0.4,8.8c5.9,11.1,12.3,22.1,21,31.3
		c2.1,2.2,4.9,3.4,7.8,4.3c11.7,3.7,23.5,7.3,35.2,11.2c5.4,1.8,8.7,0.2,11.6-4.5c10.3-16.4,19.9-33.1,26.3-51.4
		c2.9-8.1,5-16.5,8.5-24.4c3.9-8.7,0.7-17-7.2-22.6c-2.2-1.5-4.6-2.8-6.7-4.3c-8.6-5.9-9.3-7.7-4.4-17.1c4.8-9.2,2.7-9.8-3.8-13.3
		c-10.5-5.7-15.5-16.2-21.5-25.5c-1.9-2.9-1.2-7.3-6.3-5.6c-11.2,3.8-23,3.5-34.4,5.5C940.8,360.9,936.3,363.9,931.3,362.8z
		 M814.2,1136.7c1.6-0.4,1.5-1.6,1.5-2.5c0.1-29.3,0-58.7,0.2-88c0-4.8-1.5-6.8-6.4-5.9c-3.1,0.5-5.8-0.8-8.4-2.6
		c-5.8-4.1-11.7-3.7-17.8-0.4c-9.4,5-19,9.7-28.5,14.5c-7.8,3.9-7.8,4-2.1,11.1c18.7,23.1,37.4,46.1,56.1,69
		C810.3,1133.7,811.3,1136.5,814.2,1136.7z M731,920c-15.1-1.8-22.3,3.3-28.4,10.3c-3,3.4-6.7,7.2-4.2,12.4
		c2.4,4.9,7.1,6.8,12.3,7.3c2.6,0.2,5.3,0.1,7.9-0.2c6.3-0.8,12.5-1.5,18.7-2.8c20.1-4.2,40-5.4,59.5,2.9c3.6,1.5,7.5,2.7,11.7,2.1
		c5.8-0.8,7.1-2.3,7.3-8.4c0.2-6.9-3.1-12-9.3-13.8c-11.8-3.3-23.7-6.9-35.8-8.1C755.9,920.2,740.8,922.4,731,920z M1056.9,511.6
		c6,1.3,11.7-1.5,16.9-5.3c5.2-3.7,5.3-7.3,0.3-11.2c-4.2-3.3-9.2-5.3-14.2-7.2c-11.7-4.4-18.8-1.6-24.7,9.4
		c-1.7,3.3-1.4,5.6,1.5,7.7C1042.5,509.3,1048.7,512.3,1056.9,511.6z M894.7,971.6c-5.9-10.9-12.6-20.9-20-30.7
		c-3.9-5.2-7.7-4.6-13-3.3c-6.3,1.5-5.2,5.9-5.3,10.1c-0.1,3.7,0.1,7.3,0,11c-0.1,4.3,1.9,6.2,6,5.8c8.3-0.8,15.6,2.4,23.1,5.2
		C888.3,970.7,890.8,972.9,894.7,971.6z M1477.6,653.2c0-6,0.5-11.7-3.6-15.7c-6.6-6.4-11.3-15-20.3-18.8c-0.6-0.3-1.3-0.3-2-0.4
		c-2.7-0.4-5.3-0.4-6.9,2.5c-1.4,2.6-1.6,5,0.3,7.4c3.1,4,6.4,7.7,9,12C1459.4,648.6,1466.6,652.9,1477.6,653.2z M1529.5,632.1
		c-0.8,0.1-3.8,0.4-6.7,0.8c-1,0.1-2,0.3-2.9,0.5c-1.7,0.4-3,1-3.3,3c-0.6,5.2,2.6,10.2,8,11.7c5.7,1.6,11.5,3,17.3,4.5
		c2.2,0.6,4.6,2.2,6.5,0.2c2.2-2.3,2.4-5.5,1.5-8.4C1548.1,638.2,1538.4,631.7,1529.5,632.1z M1444.7,609.5c-3.6-5.7-6.1-10-8.8-14
		c-4.1-6.1-4.1-6-13-1.9C1429.7,598.9,1430.8,610.1,1444.7,609.5z M518.2,972.7c3.6,12.9,9.4,19.9,19.1,23.1
		C530.9,988,525.2,981.1,518.2,972.7z"/>
	<path class="st2" d="M1825.3,1190.1c-18.9,17.3-36.8,35.7-54.2,54.6c-9.1,9.9-14.3,21.5-16.7,34.5c-1.3,6.9-3.1,13.7-4.1,20.6
		c-1.1,7.5-4.7,13-11,17c-1.4,0.9-2.6,2.1-4,3c-11.3,7.5-18.3,18.2-22.6,30.9c-1.2,3.5-2,7-5.3,9.4c-9.7,7-16.4,16.7-21,27.5
		c-3.5,8.3-9.6,11.5-17.7,12.3c-25.8,2.5-51.7,4.9-77.6,7.2c-6.4,0.6-9.1-2-9.5-8.5c-0.2-4.1,1-7.9,2.2-11.7c4.5-14,9.2-27.9,4.5-43
		c-1-3.2,0.7-5.1,4.1-5.1c6,0,12,0,18-0.1c7.3-0.2,7.6-0.3,7.6-7.2c0-5.9,2.3-13-1.2-17.5c-3.5-4.4-10.7-1.5-16.1-2.4
		c-0.7-0.1-1.3-0.1-2-0.2c-15.6-1.4-15.5-1.4-15.5-16.9c0-5.5,1.7-10.5,3.4-15.5c3.9-11.5,4.1-22.5-1.6-33.8
		c-5.1-10.1-8.8-20.9-13.3-31.2c-3.6-8.3-3.4-16.6,1.9-23.7c7.1-9.5,7.3-19.7,5-30.5c-3.9-18.6-8-37.1-12-55.6
		c-0.3-1.2-0.3-2.5-0.4-3.8c2.9-2,5.5-0.5,7.8,0.1c25.6,6.5,43.8,21.7,54,46.2c6.2,14.9,9.3,30.6,11.8,46.4c0.5,3.3,1,6.6,1.6,9.9
		c1.3,7.1,1.3,7.4,8.9,7.3c21.3-0.2,18,3,18-17.8c0.1-76,0.1-152,0.1-228c0-13.6,0.4-12.3-12.5-12.4c-0.7,0-1.3,0-2,0
		c-13.4,0.1-11-0.8-13.6,11.7c-2.8,14.1-5.6,28.1-10.2,41.7c-11,32.4-33.8,50.1-67.3,54.8c-15.5,2.2-14.3,1.7-19.5-12.7
		c-6.1-16.8-6.1-33.9-6-51.2c0.1-32,0-64,0-96c0-5,0-10,0.5-15c1.1-11.3,6.1-16.8,17.2-19c3.9-0.8,7.9-1.5,11.9-1.7
		c31.1-1.2,61.9-0.1,92.4,7.3c36.6,8.9,61.3,30.7,73.7,66.4c4.6,13.2,8.1,26.8,11.1,40.4c2,8.9,2,9,11.1,9
		c19-0.1,16.3,2.1,16.4-16.5c0.1-42.3,0-84.7,0-127c0-2.7-0.1-5.3,0-8c0.2-4.4-2-6-6.1-5.8c-2,0.1-4,0-6,0c-134.3,0-268.7,0-403,0
		c-13.5,0-12.6-0.7-12.5,12.4c0.1,16.5-1.6,14.4,14.1,15.4c7.7,0.5,15.3,1.5,22.7,3.5c16.3,4.4,25,14.1,27.1,30.7
		c0.6,4.6,0.8,9.3,0.8,14c0.1,40,0.1,80,0,120c0,10.2-0.5,10.7-10.5,11.5c-5.3,0.4-10.7,0.5-16,0.3c-12.2-0.4-22.7-5-31.2-13.8
		c-8.6-8.9-15.9-18.8-21.2-30.1c-5.4-11.4-13.3-20.4-24.2-27.2c-12.5-7.8-19.3-19-18.2-34.3c0.2-2,0.1-4,0-6
		c-1.7-29.8,2.5-59.1,7-88.4c0.5-2.9,0.9-5.9,0.9-8.9c0-9.5,1.9-18.7,6.4-27c6.1-11.1,8.5-22.9,9.9-35.2c0.7-6.3,2.5-12.4,4.6-18.4
		c1.6-4.6,4.5-6.9,9.6-7.1c8.7-0.3,17.3-1.5,25.9-1.5c10.7,0,19.3-4.1,27-11.2c4.4-4.1,8.4-8.6,11.9-13.4
		c15.5-21.2,37.1-32.2,62.6-35.3c20.7-2.6,41.2-0.2,61.3,5.7c6.7,2,13.2,4.8,19,8.7c6.2,4.2,11.6,9.4,13.7,16.7
		c2.5,8.6,8.7,12.2,16.5,14.2c8.1,2.1,16.5,2.7,24.8,2.1c14.6-1.1,26.9,3.4,36.8,14.2c1.9,2,3.9,3.4,6.7,3.9
		c9.8,1.8,19.6,3.8,29.4,5.6c5.6,1,7.1-0.9,4.5-5.9c-3.7-7.1-7.7-13.9-9.3-22c-0.8-4.3-1.3-8.6-1.1-12.9c0.4-7.6,2.4-9.4,10.1-8.4
		c7.6,1,14.8,3.9,22,6.4c7.9,2.7,15.5,6.1,23.7,7.7c7.8,1.5,9.8,0.3,10.5-7.4c0.3-3.5,1.6-5.5,4.5-7c10.5,15.1,18.7,31.5,26.9,47.8
		c37.4,74.8,61.8,153.5,73,236.4c6.6,48.7,7.3,97.6,5.1,146.5C1830.7,1151.8,1829,1171.1,1825.3,1190.1z"/>
	<path class="st2" d="M782.9,402.2c2.6,8.8,8.9,15.6,13.1,23.5c1.5,2.8,3.7,3.4,6.7,3.1c6.9-0.8,12.6,2.9,18.9,4.9
		c13,4.3,18.4,16.6,28.5,23.8c4.3,3.1,8,7,12,10.5c3.8,3.4,8.1,5.2,13.4,5.9c12.1,1.4,17.3,6.9,18.1,18.7c1,15.3-2.1,29.8-9.5,43.3
		c-3.9,7.2-8.5,8.4-15.7,4.6c-4.6-2.4-7.6-6.4-10-10.9c-2.2-4.1-4-8.4-5.9-12.6c-1.9-4-4.4-7.4-8.7-9.2c-8.2-3.5-13.9-1.8-16.6,6.7
		c-2.3,7.4-6.9,11.1-13.7,12.9c-8.7,2.3-13,7.4-14.1,16.9c-1.4,12.7-13.7,22.6-27.3,23.8c-5.3,0.5-10.6,0.1-15.9-0.9
		c-8.9-1.7-17.1,0.6-25.2,4.2c-4.8,2.2-7.3,5.6-6.5,11c0.8,5.5-0.4,10.6-3.3,15.3c-2.2,3.6-1.2,6.3,2.6,8.1c1.2,0.6,2.3,1.3,3.6,1.7
		c9.1,2.6,15.4,8.5,21,15.9c5.3,7,6,6.8,14.3,3.1c5.2-2.3,10.3-4.6,15.5-6.8c13.3-5.7,22.3-15.4,27.5-28.8c1.8-4.7,3.7-9.3,5.5-14
		c1.7-4.6,4.4-6.9,9.9-6.1c7.6,1.2,15.3,1.1,22.9-0.5c13.7-2.9,29.8,8.1,32.2,24.5c0.9,5.9,1.5,11.9,1.6,17.9
		c0.1,5.7,1.9,10.3,5.9,14.3c5.9,5.9,11,12.5,19.7,14.7c1.2,0.3,2.4,1.2,3.3,2.1c10.5,9.8,6.8,35.4-6,42c-8.7,4.5-17.3,5.8-26.8,1.5
		c-5.2-2.4-10.4-6-17-3.9c-10.6,3.4-20.4,8.1-28.5,15.9c-1.1,1.1-2.4,2.5-1.4,4.3c0.9,1.7,2.7,1.9,4.4,1.8c3.7-0.3,7-2.2,10.4-3.4
		c6.4-2.2,13.6-4.7,18.5,1.5c4.5,5.7,0.7,12.1-2.2,17.7c-7.2,13.9-18.6,23.9-32.8,29.6c-14.3,5.7-22.2,16.3-27.8,29.5
		c-3.5,8.3-7.1,16.5-10.1,25c-3.5,10-11.1,16.4-18.7,22.9c-3.7,3.2-8.3,1.9-12.5,2c-7.9,0.3-8.2,0.1-9.3,7.7c-0.5,3.4-2,5.4-5,6.7
		c-4,1.7-7.9,3.5-11.8,5.5c-8.2,4.4-10.4,10.6-6.7,19.2c2.3,5.2,4.8,10.3,7.1,15.4c2.5,5.3,2.6,11,1.9,16.7c-0.9,7.1-5.2,9.7-12,7.7
		c-4.6-1.4-8.1-4.4-11.2-8.1c-4.3-5.1-8.6-10.2-12.7-15.4c-8.9-11.4-20.7-13.6-34.1-10.7c-2.6,0.6-5.3,1.2-7.6,2.3
		c-10.8,5.1-22.3,8.5-33.5,12.5c-6.2,2.2-8.9,0.8-12.3-3.6c-6.7-8.7-13.8-17.1-20.7-25.6c-6.3-7.8-12.9-15.3-18.8-23.4
		c-3.7-5.1-8-7-14.3-6.9c-27,0.3-54,0.1-81,0.1c-2.3,0-4.7,0-7,0c-8.7-0.2-8.9-0.2-8.9-8.9c0-9.8-2-19.2-5.1-28.4
		c-2.4-7.1-3-14.1-1.9-21.6c2.5-16.9,5.7-33.4,15.8-47.9c3.4-4.9,3.4-10.8,2.1-16.4c-4.1-16.5-0.5-30.3,13.4-40.9
		c3.6-2.7,6-6.5,6-11.1c0-9.6,4.6-17.5,10-24.5c5.5-7,8.8-14.8,12.3-22.6c17.9-22.9,38.3-43.5,59.1-63.5
		c61.3-58.9,130.9-105.6,208.3-140.6C779.8,403.2,781.4,402.8,782.9,402.2z"/>
	<path class="st2" d="M1677.5,630c-6.8-0.9-12.3,0.5-15.9,7.1c-2.3,4.2-5.3,3.4-7.7-0.1c-3.7-5.2-8.9-7.4-14.8-9.4
		c-11.9-4.1-20.8-12.8-29.4-21.7c-4.8-5-8.5-11-15.5-16.1c1.4,8.8,3.3,15.5,9,20.6c3.5,3.1,6.7,6.5,10.2,9.6
		c6.5,5.5,8.7,13.2,10.9,20.9c1.2,4.1-1.1,5.8-4.8,5.1c-7.8-1.5-15.8-2.9-22.4-7.8c-8-6-16.1-12-22.7-19.6
		c-12.6-14.6-28.1-25.4-43.9-36.1c-4.1-2.8-8.5-5.2-12.8-7.9c-17.6-10.8-35.2-21.3-56.1-25.1c-8.7-1.6-17-5.3-27.6-8.7
		c5,7.4,10,11.6,15.9,15.2c18,11,36.7,20.2,56.9,26.5c11.4,3.6,22.8,7.8,31.9,16c3.1,2.8,7.6,5.2,1.9,9.9c-1.6,1.4-0.2,3.7,0.5,5.6
		c2,5.2,4,10.5,6.8,17.9c-6-4.2-9-8.3-12.3-12c-14.9-16.8-34.2-24.9-56-27.6c-9.1-1.1-17.6-3.5-25.8-7.4
		c-12.4-5.8-24.8-11.5-36.4-18.7c-4.2-2.6-8.1-5.2-12.7,0.7c-2.8,3.6-8.4,3.6-12.9,4.7c-6.5,1.7-12.9,3.2-19.1,5.8
		c-9.3,4-12.6,10.1-7.9,19c4,7.5,1.7,11.7-3.2,17.3c-8.6,9.8-11.7,21.3-7.5,34.2c2.7,8.2,4.6,16.7,6.6,25.1
		c2.7,11.5,0.6,22.5-1.1,33.7c-0.6,3.6-3,5.8-6.1,7.4c-2.7,1.4-5.6,1.9-8.6,2.3c-10.5,1.3-19.2,6-24.6,15.2
		c-2.7,4.5-5.4,5.1-9.7,3.2c-3-1.3-6.4-1.8-9.5-3.2c-7.9-3.5-16-4.7-24.4-3c-4.9,1-8.4-0.4-11-4.7c-1-1.7-2.9-3-3.6-4.8
		c-3.6-9.1-9.1-15.4-19.6-16.8c-4.7-0.6-6.5-5.2-6.6-10c-0.1-6.7-1.1-13.3-2-19.9c-0.9-6.5-3.3-12.1-7.5-17.1
		c-4.9-5.9-9.5-12-14.3-18c-3-3.8-2.8-6.5,1.3-10c11.6-9.8,24.3-15.5,39.8-15.7c12.9-0.2,26-0.9,38.7-3.7c2.9-0.6,5.9-1.1,9.6-3.3
		c-16.7-22.7-32-46.2-62.4-52.3c-5.9-1.2-11.7-2.5-17.4-4.5c-7.7-2.7-8.2-6.7-2.2-12.3c4.5-4.2,9.9-6.7,16.1-7.4
		c2.3-0.3,4.7-0.3,6.2-2.4c6.6-9.2,14.2-17.6,17.8-28.7c1.8-5.6,3.1-11.1,1.2-16.6c-2.2-6.3-0.1-10.7,3.8-15.4
		c6.1-7.4,6.3-6.5-0.7-13.6c-7.2-7.3-14.5-14.5-21.7-21.7c8.3-7.7,16.3-4.1,24.2-1.6c2.6,0.8,3,3.3,4.3,5.2c4,6.3,9.4,10.1,17.4,9.4
		c5.6-0.5,12.6,1.1,16.7-1.6c7.9-5.4,15.4-5.9,24.1-4.3c3.4,0.6,6.8-2.3,11-4.8c-4.6-5.8-10.2-9.8-15.3-14.2
		c-6.2-5.5-6.2-5.5-3-13.5c-8.5-0.1-15.4-3.4-21.2-9.4c-1.9-2-4.6-2.5-7.3-2.7c-23.1-1.6-43.7-11.2-64.5-19.9
		c-6.1-2.5-12-5.8-18-8.8c-2-1-3.8-0.9-5.6,0.1c-1.1,3.2,1.9,3.2,3.2,4.1c3.3,2.3,7,3.9,10.2,6.3c9.2,6.9,18.8,12.4,30.8,12.5
		c3.4,0,6.3,2,8.9,4.2c11.7,9.9,23.6,19.6,35.2,29.6c1.7,1.5,5.4,2.8,3,6.1c-1.7,2.4-4.3,4.4-7.7,3.3c-1.9-0.6-3.7-1.4-5.6-2.2
		c-14.5-5.8-29.1-11.4-43.6-17.4c-5.1-2.1-8.9-2.5-13.5,1.7c-9.3,8.4-19.7,10.5-31,3.1c-4.4-2.9-9.4-5-14.1-7.4
		c-7.7-3.9-11.1-11.2-14.9-18.2c-1.5-2.8-0.7-5.8,0.4-8.7c4.5-12.1,6.4-24.4,3.3-37.2c39.7,3.1,78.4,11.4,116.6,22.1
		c107.6,30.1,203.6,81.8,288.1,154.8c35.7,30.8,68,64.8,97.3,101.7C1673.9,624.5,1676.4,626.8,1677.5,630z"/>
	<path class="st2" d="M792.2,1773.3c10.3-12.8,23.7-19.9,40.1-21.9c10.2-1.2,20.4-3.3,30.6-4.8c11.7-1.7,23.4-0.7,34.6,2.8
		c16.4,5.1,33.3,6.2,50.1,8.2c7.9,1,15.1-2.4,21.6-6.4c10.6-6.6,18.8-15.8,26.4-25.6c2.7-3.5,3.9-7.6,4.7-12
		c2.3-12.2,9.3-21.2,19.6-27.7c2.8-1.8,6-5.9,9.5-2.6c2.9,2.6,0,6.2-1.3,9.2c-1.3,3.1-2.7,6.1-4,9.1c-2.5,5.6-2.3,10.9,1.4,16
		c3.6,5,5.7,10.8,6.3,16.7c1.1,10.9,7.8,17.2,16.2,22.6c6,3.8,12.6,6.5,19.6,6.9c10.1,0.5,19.8,2.7,29.5,4.8
		c5.8,1.3,11,0.9,16.5-1.2c15.9-6,32.2-10.9,47.8-17.5c15.2-6.4,30.4-7.1,45.9-3.1c10.1,2.7,19.5,2.8,28.8-2.3
		c10.3-5.6,21.5-4.1,32.3-2.3c32.1,5.5,62.3,16.5,90.2,33.5c0.5,0.3,0.8,1,1.4,1.8c-3.9,4.3-9.7,5.3-14.5,8.1
		c-28.9,13.3-59.6,21-90.4,28.3c-47.8,11.3-96.3,17.2-145.4,18.8c-107.5,3.6-210.9-15.3-310.3-56.1
		C797,1775.5,794.6,1774.3,792.2,1773.3z"/>
	<path class="st2" d="M833.6,1352.1c5.4,0,11.3-0.1,17.3,0c3.7,0.1,5.6-1.5,5.5-5.3c0-3,0.1-6,0.1-9c0-101.3,0-202.7,0-304
		c0-4-0.6-8,0.6-11.9c2.7-2.1,5.2-0.2,7.5,0.6c7.2,2.6,14.2,6,20.2,10.7c21.9,17.1,48.1,27,70.6,43c2.9,2,6.7,2.7,10.2,3.9
		c10.4,3.6,20.8,7.2,30,13.5c5.2,3.6,10.5,7.2,13.3,13.2c4,8.4,11.3,11.9,20,13.1c4.6,0.6,9.4,1.4,13.9,1
		c13.8-1.2,25.9,3.1,38.1,9.4c22.8,11.8,46.2,22.3,69.2,33.6c14,6.8,16,14.1,7.9,27c-11.2,17.8-16.6,37.7-21.9,57.7
		c-2.9,11.3-5.9,22.5-9.6,33.6c-5.2,15.3-16,24.9-29.4,32.5c-3.7,2.1-7,1.2-10.5,0.2c-19.3-5.5-36-15.5-50.5-29.3
		c-24.8-23.7-39.6-53.3-50.1-85.3c-3.3-10.1-5.9-20.5-8.2-30.9c-1.6-7.2-1.7-7.2-9.3-7.3c-5.3-0.1-10.7,0.1-16,0.1
		c-3.3,0-4.9,1.6-4.9,4.9c0,2.3-0.1,4.7-0.1,7c0,55.7,0,111.3,0,167c0,1,0,2,0,3c0.3,8.6,0.3,8.7,9.2,8.9c4.3,0.1,8.7-0.2,13,0.1
		c5,0.3,7.2-2,8.3-6.6c4.2-17.3,11.5-21.6,30.4-16.1c17.2,5,33.9,11.6,51.9,16c-2.5,7.4-4.7,13.6-6.8,19.9
		c-6.1,17.7-11.3,35.6-15.4,53.8c-2.1,9.6-7.6,14.4-17,15.5c-3.6,0.4-7.4,0.5-10.9,1.5c-13.2,3.8-22.4,12.4-25.7,25.6
		c-3.2,12.9-10.1,21.3-22.7,25.4c-6,1.9-9.1,6.9-9.5,12.9c-0.7,9.1-2.3,17.7-8.4,25.1c-3.3,4-2,8.8,0.6,13.1
		c3.9,6.2,7.3,12.7,9.7,19.7c2.2,6.6,4.5,13.2,3.4,20.5c-1,6.6,2.9,11.4,7.3,15.7c3.9,3.8,7.4,7.7,8.7,13.1
		c1.8,7.5-0.3,11.6-7.7,13.6c-12.5,3.4-25,3-37.4-0.8c-6.5-1.9-11.4-6.2-14.1-12c-9.6-21.1-22.2-41.1-24.6-65
		c-0.5-5.4-3-10.3-5.8-14.8c-9.9-15.6-13.5-33.2-15.8-51.1c-1.2-9.2-2.2-18.5-2.1-27.9c0.1-10.1-4.6-18.6-10-26.7
		c-4.1-6.1-8.5-11.9-12.8-17.9c-2.5-3.6-4.3-7.4-3.8-12.1c1.2-12.5-1.2-24.5-6-36.1C832.9,1355.6,832.5,1354.4,833.6,1352.1z"/>
	<path class="st3" d="M497.2,1106.2c0,45,0,90,0,135c0,11,0.3,22,2.6,32.8c4.1,19.2,15.1,32.1,33.7,38.7c9.5,3.3,19.3,5,29.2,6.6
		c3,0.5,4.8,1.5,4.9,5c0.1,4-0.8,6.4-5.4,6c-2.3-0.2-4.7,0-7,0c-45,0-90,0-135,0c-2.3,0-4.7,0-7,0c-2.8,0-5.3,0-5.3-4
		c0.1-3.5,0-6.4,4.8-7c6.9-0.8,13.9-2,20.7-3.6c25-5.7,36.8-19.5,38.9-45.2c0.5-6.3,0.7-12.6,0.7-19c0-112,0-224,0.2-336
		c0-7.5-1.9-13.3-6.9-18.9c-9.1-10.2-17.8-20.8-27.7-30.2c-7.3-6.9-14.7-13.7-24.7-16.4c-4.9-1.3-3.7-4.9-3.5-8c0.1-3.4,3-2.9,5.2-3
		c2.3-0.1,4.7,0,7,0c42,0,84,0.2,126-0.2c8.1-0.1,13.3,2.1,18.5,8.6c80.1,99,160.4,197.8,240.7,296.6c2.5,3.1,5,6.3,7.7,9.2
		c1.8,1.9,4.3,1.7,6.6,1.1c2.6-0.7,1.9-3.1,2.1-5c0.1-1.7,0-3.3,0-5c0-72.7,0-145.3,0-218c0-9.7-0.4-19.3-2.1-28.9
		c-3.7-20.4-14.9-34.5-34.7-41.5c-8.2-2.9-16.6-4.9-25.3-5.7c-4.3-0.4-6.7-1.3-6.6-6.4c0.2-5.2,3.4-4.8,6.8-4.8c11,0,22,0,33,0
		c34.3,0,68.7,0,103,0c7.2,0,8.2,1.1,7.7,6.8c-0.2,2.9-1.6,3.9-4.3,4.4c-7.9,1.3-15.7,3-23.2,5.7c-17,6.1-26.9,17.6-29.1,35.7
		c-1.1,8.7-1.1,17.3-1.1,25.9c0,132.7,0,265.3,0,398c0,4.7,0.4,9.4-0.1,14c-0.5,4.7,2.7,10.6-2.3,13.7c-5.1,3.2-12.6-0.4-18.5-7.5
		c-21.6-26.3-43.2-52.5-64.7-78.8c-83.7-102-167.5-204-251.2-306.1c-1.9-2.3-3.6-4.9-6-6.7c-3.9-2.9-7.7-0.9-8.1,4
		c-0.2,2.3-0.1,4.7-0.1,7C497.2,1005.6,497.2,1055.9,497.2,1106.2z"/>
	<path class="st3" d="M1557.7,839c63,0,126,0,188.9,0c2,0,4,0,6,0c10.4,0,10.5,0,10.5,10.1c0,28.3,0,56.7,0,85c0,12.7,0,25.3,0,38
		c0,3.2,0.9,6.9-4.4,7.3c-4.6,0.3-6.2-1.7-7.2-6.1c-2.4-11.4-5.6-22.6-9.1-33.7c-13.5-42.8-42.8-67.8-86.1-77.2
		c-30.5-6.6-61.5-7.7-92.5-5.9c-25.4,1.5-34.5,11-35,36.5c-0.6,30.3-0.2,60.6-0.2,91c0,26.3,0,52.7,0,79c0,7.1,0.2,7.2,7.1,7.3
		c14.1,0.3,28-0.9,41.6-4.5c26.5-6.9,45.6-22.5,56.8-47.7c7.2-16.3,11-33.5,14.2-50.8c0.5-2.7,0.1-6.2,4.1-7
		c5.5-1.2,7.7,0.4,7.8,6.5c0.1,21,0,42,0,63c0,53,0,106,0,159c0,2.3,0.1,4.7,0,7c-0.1,2.9,0.6,6-4.1,6.3c-4.7,0.3-6.6-1.4-7.2-5.9
		c-1.3-8.9-2.9-17.8-4.8-26.5c-1.4-6.5-3.3-12.9-5.5-19.2c-11.3-33.8-35.2-53.1-69.7-60c-10.8-2.2-21.8-2.9-32.8-2.9
		c-7.2,0-7.3,0.1-7.4,7.1c-0.1,5.3,0,10.7,0,16c0,48.7,0,97.3,0,146c0,7,0.3,14,1.2,20.9c2.5,19.2,12.7,31.6,31.5,37
		c12.3,3.6,24.9,4.2,37.5,5.2c2.3,0.2,4.7,0.3,7,0.3c3.6,0,4.3,2.1,4.3,5.1c0,3-0.3,5.3-4.1,5.2c-2.3-0.1-4.7,0-7,0
		c-78.6,0-157.3,0-235.9,0c-1.7,0-3.3,0-5,0c-3.1,0-5.9,0.1-5.9-4.5c0-4.1,1.2-5.9,5.5-6.4c7.6-0.8,15.2-1.9,22.7-3.5
		c22.8-4.7,33-16.1,36.2-39.1c0.8-5.6,1-11.3,1-16.9c0-116.6,0-233.3,0-349.9c0-7-0.4-14-1.7-20.9c-3.3-18-13.3-30.1-31.3-35.1
		c-8.7-2.4-17.6-3.8-26.6-4c-4.1-0.1-6.1-1.4-5.9-5.9c0.2-3.2,1.1-5.1,4.5-5c2.7,0.1,5.3,0,8,0C1429,839,1493.4,839,1557.7,839z"/>
	<path class="st3" d="M955.7,1256.7c0-26.3-0.1-52.7,0.1-79c0-2.8-1.9-7,3.6-7.6c7.3-0.9,9.7,0.1,11.1,5.9
		c4.8,19.8,10.8,39.1,19.4,57.6c9.9,21.3,22.3,41,39.5,57.2c35.5,33.6,77.8,44,124.8,34.3c41.9-8.7,68.1-44.5,66.6-87.6
		c-0.8-24.2-10.7-43.6-29.6-58.6c-10.5-8.3-22-15.1-34-20.9c-23.3-11.4-46.7-22.6-70.1-33.9c-23.8-11.4-46.6-24.4-67.4-40.7
		c-7.3-5.8-14.2-12.1-20.8-18.7c-30.1-30.3-40.3-67.3-36.1-108.9c1.2-12.3,3.6-24.4,7.8-36c16.4-46.2,49.3-74.2,96.4-85.6
		c41.1-10,81.9-8.3,122.2,4.9c9.8,3.2,19.6,6.5,29.4,9.7c4.7,1.5,9.6,2.9,14.6,3.3c15.1,1.1,23.1-3.7,28.8-17.7
		c1.5-3.7,2.2-7.3,7.8-7.2c9,0.1,9.4,0,9.4,9.4c0,44.7,0,89.3,0,134c0,8.7-1,9.3-8.8,8.9c-3.8-0.2-5.2-2.2-6.1-5.3
		c-2.7-9.6-6.3-19-10.4-28.1c-11-24.6-25.2-46.9-44.7-65.7c-23.2-22.3-50.6-35.3-82.8-37.7c-15.2-1.2-30,0.8-44.2,6.2
		c-33.8,12.7-51.4,42.5-47.6,79c2.2,21.2,11.5,37.9,28.4,50.6c13.4,10.1,27.9,18.2,42.8,25.7c37.8,18.9,75.9,37.3,113.5,56.7
		c39.7,20.5,65.9,52.6,76.7,96.1c17.8,71.7-17.7,141.9-85.9,171.1c-22,9.4-45.1,14.2-68.8,15.8c-37.4,2.5-73.8-2.2-109.1-14.8
		c-7.8-2.8-15.8-5.1-23.8-7.5c-1.9-0.6-3.9-1.1-5.8-1.3c-16.7-2.4-24.7,2.2-31,18c-1.4,3.5-2.2,6.5-7.3,6.4
		c-8.5-0.1-8.6,0.3-8.6-8.8C955.7,1309.4,955.7,1283.1,955.7,1256.7z"/>
	<path class="st2" d="M931.3,362.8c5,1.1,9.5-1.9,14.3-2.7c11.4-2,23.2-1.7,34.4-5.5c5.1-1.7,4.4,2.6,6.3,5.6
		c6,9.3,11,19.7,21.5,25.5c6.4,3.5,8.6,4,3.8,13.3c-4.9,9.5-4.2,11.2,4.4,17.1c2.2,1.5,4.6,2.7,6.7,4.3c7.9,5.6,11.1,14,7.2,22.6
		c-3.5,8-5.7,16.3-8.5,24.4c-6.4,18.3-16,35-26.3,51.4c-2.9,4.6-6.2,6.3-11.6,4.5c-11.7-3.9-23.4-7.5-35.2-11.2
		c-2.9-0.9-5.7-2.1-7.8-4.3c-8.7-9.2-15.1-20.1-21-31.3c-1.4-2.7-1.4-5.7-0.4-8.8c1.9-6.2,1.4-12.4-0.2-18.7
		c-2.6-10.4-2.6-20.4,4.6-29.4c1-1.3,1.7-2.9,2.2-4.4c1-3,0.6-5.3-3.3-5.5c-1.7-0.1-3.3,0-5-0.3c-8.5-1.4-12.1-7.1-9.8-15.3
		c2.5-8.7,5.3-17.2,10.3-24.8C922.1,362.9,923.3,362.5,931.3,362.8z"/>
	<path class="st2" d="M814.2,1136.7c-2.9-0.1-3.9-3-5.5-4.9c-18.8-23-37.5-46-56.1-69c-5.7-7.1-5.7-7.2,2.1-11.1
		c9.5-4.8,19.1-9.5,28.5-14.5c6.2-3.3,12.1-3.7,17.8,0.4c2.6,1.8,5.3,3.1,8.4,2.6c4.9-0.8,6.5,1.2,6.4,5.9
		c-0.2,29.3-0.1,58.7-0.2,88C815.7,1135.1,815.8,1136.2,814.2,1136.7z"/>
	<path class="st2" d="M731,920c9.8,2.3,24.9,0.2,39.7,1.7c12.1,1.2,24.1,4.8,35.8,8.1c6.2,1.8,9.5,6.9,9.3,13.8
		c-0.2,6.1-1.5,7.6-7.3,8.4c-4.2,0.6-8.1-0.6-11.7-2.1c-19.5-8.3-39.4-7.1-59.5-2.9c-6.2,1.3-12.5,2-18.7,2.8
		c-2.6,0.3-5.3,0.5-7.9,0.2c-5.2-0.5-9.9-2.4-12.3-7.3c-2.5-5.2,1.3-8.9,4.2-12.4C708.7,923.3,715.9,918.2,731,920z"/>
	<path class="st2" d="M1176.1,489.9c-2.6-4.2-5.9-7.9-7.6-12.7c-1.5-4.4-6.1-5.9-9.3-8.7c-2-1.7-3.3-3.3-1.3-5.8
		c1.8-2.3,3.1-5.6,7-3.2c4.9,3.1,10.1,4.8,16,4.2c3.1-0.3,4.9,1.3,5.5,4.5c0.9,4.7,3.4,7.5,8.6,7.9c2.5,0.2,4.9,1.9,7.3,3.1
		c10.4,5.1,20.7,10.5,32.5,12c2.7,0.3,5,1.2,6.7,3.7c9.7,13.6,9.2,11.3-3.9,16.3c-4.7,1.8-8.9,4.4-13.1,7.1
		c-4.5,2.8-8.5,6.2-13.4,8.1c-1.7-1.7-1.3-3.4-0.8-5c1.5-4.6,1.8-8.5-4.3-9.8c-1.6-0.4-3.1-1.5-3.5-3.3c-0.6-2.5-0.1-5.3-2.4-7.4
		c-1.7-1.5-3.2-3.3-4.7-4.9c0.6-3.3,5.1-0.5,5-3.5c-0.1-2.4-2.2-3.9-4.8-4.3c-6.7-1.1-13.2-0.3-19.7,1.5L1176.1,489.9z"/>
	<path class="st2" d="M1056.9,511.6c-8.2,0.7-14.4-2.3-20.2-6.5c-2.9-2.1-3.2-4.5-1.5-7.7c5.9-11.1,13-13.9,24.7-9.4
		c5,1.9,10,3.9,14.2,7.2c5,3.9,4.8,7.5-0.3,11.2C1068.6,510.1,1062.9,512.9,1056.9,511.6z"/>
	<path class="st2" d="M894.7,971.6c-3.9,1.3-6.4-0.9-9.1-1.9c-7.5-2.8-14.8-6-23.1-5.2c-4.1,0.4-6.2-1.5-6-5.8c0.1-3.7-0.1-7.3,0-11
		c0.1-4.2-1-8.6,5.3-10.1c5.3-1.3,9.1-1.9,13,3.3C882.1,950.6,888.8,960.6,894.7,971.6z"/>
	<path class="st2" d="M1175.9,489.8c-1.1,4.3,3,4.4,5,6.1c3.9,3.5,9,5.7,11.8,10.5c2.2,3.8,2,6.7-2.1,9.1
		c-5.7,3.4-10.9,7.4-18.4,6.2c-3.9-0.6-6.4-1.4-6.2-5.8c0.2-3.5-0.3-6.6-4.1-8.3c-2.6-1.2-5.2-4.1-3.7-6.2c2.3-3.2,2.1-8.4,7.4-9.8
		c3.5-0.9,7.3,0.4,10.4-1.9C1176.1,489.9,1175.9,489.8,1175.9,489.8z"/>
	<path class="st2" d="M1477.6,653.2c-11-0.3-18.3-4.6-23.4-12.9c-2.6-4.2-6-8-9-12c-1.9-2.4-1.7-4.8-0.3-7.4c1.6-3,4.2-2.9,6.9-2.5
		c0.7,0.1,1.4,0.1,2,0.4c9,3.8,13.7,12.3,20.3,18.8C1478.1,641.5,1477.7,647.2,1477.6,653.2z"/>
	<path class="st2" d="M1529.5,632.1c8.8-0.4,18.6,6.1,20.4,12.3c0.9,2.9,0.7,6.1-1.5,8.4c-1.9,2-4.3,0.4-6.5-0.2
		c-5.8-1.5-11.6-2.9-17.3-4.5c-5.4-1.5-8.6-6.4-8-11.7c0.2-2.1,1.6-2.7,3.3-3c1-0.2,1.9-0.4,2.9-0.5
		C1525.7,632.5,1528.7,632.2,1529.5,632.1z"/>
	<path class="st2" d="M1444.7,609.5c-14,0.6-15-10.6-21.8-15.9c8.8-4.1,8.9-4.2,13,1.9C1438.6,599.5,1441.1,603.7,1444.7,609.5z"/>
	<path class="st2" d="M518.2,972.7c7,8.4,12.7,15.4,19.1,23.1C527.6,992.5,521.8,985.6,518.2,972.7z"/>
</g>
</svg>
