<!-- Generator: Adobe Illustrator 22.1.0, SVG Export Plug-In . SVG Version: 6.00 Build 0)  -->
<svg version="1.1" id="Layer_1" xmlns="http://www.w3.org/2000/svg" xmlns:xlink="http://www.w3.org/1999/xlink" x="0px" y="0px"
	 viewBox="0 0 201 200.7" style="enable-background:new 0 0 201 200.7;" xml:space="preserve">
<g>
	<path fill="st0" d="M195.2,99.2c-0.3,52.8-43,95.2-95.6,94.8c-52.5-0.3-94.6-43-94.3-95.6C5.5,46.1,48.3,3.8,100.5,4.1
		C153,4.5,195.4,47.1,195.2,99.2z M186.2,113.4c1.8-9.7,1.7-19.4,0-29.1c-7.9-45.9-50.7-77.9-96.9-71.8
		c-29.4,3.9-51.4,19.3-65.9,45.2c-7.1,12.7-10.5,26.5-10.4,41.1c0.4,5.3,0.5,10.7,1.4,15.9c6.9,39.2,40.3,69.2,79.9,71.5
		c28.5,1.6,52.6-8.3,71.6-29.7C176.8,144.2,183.7,129.8,186.2,113.4z"/>
	<path fill="#00a7dc" d="M30.9,98.8c9.2,0,18.3,0.1,27.5,0.1c0,2.3,0,4.6,0,7c2.8,0,5.2,0.2,7.6,0c2.8-0.2,4.9,0.7,6.9,2.6
		c3.9,3.7,7.2,3.5,11.1-0.2c4.1-3.9,7.3-3.9,11.5-0.1c1.1,1,2.3,1.9,3.6,2.6c1,0.5,1.9,0.3,2.3-1c0.5-1.8,1.2-3.5,1.7-5.2
		c1.3,0,2.6,0,4,0.1c-0.9,2.8-1.8,5.6-2.7,8.7c2,0,3.9,0.1,5.7-0.1c0.6,0,1.5-0.6,1.5-1.1c0.2-2.5,1.8-2.5,3.7-2.4
		c1.9,0.1,3.8,0,5.7,0.1c0.6,0,1.7,0.5,1.7,0.9c0.2,2.8,2,2.7,4,2.6c1.2-0.1,2.5-0.1,3.7-0.1c1.1,0,2.2,0,3.3,0c2.2,0,4.4,0,6.6,0
		c1.9,0,3.7,0,5.6,0c2.1,0,4.3,0,6.4,0c2.1,0,4.3,0,6.4,0c1.7,0,3.4,0,5.1,0c2.1,0,4.2,0,6.2,0c2.1,0,4.2,0,6.4,0
		c3.3,0,6.6,0.1,9.8,0.1c-2.6,16.4-9.4,30.8-20.4,43.2c-19.1,21.3-43.1,31.3-71.6,29.7c-39.6-2.3-73-32.3-79.9-71.5
		c-0.9-5.2-0.9-10.6-1.4-15.9c3.6,0,7.2,0,10.8,0c1.1,12.8,12.5,19.3,23.7,13.5c3.8-2,6-5,6.4-9.5c-1.9,0-3.6,0.1-5.2,0
		c-1.1,0-1.8,0.2-2.3,1.4c-0.8,2.1-2.5,3.2-4.7,3.7C35.2,109.4,30.6,105.5,30.9,98.8z M85.6,167.9c2.1,0.9,2.6-0.2,3.2-1.7
		c3.9-11.5,7.9-23,11.8-34.4c1.9-5.4,3.7-10.8,5.6-16.2c-2-0.9-2.6,0.1-3.2,1.7c-4.4,12.8-8.8,25.6-13.2,38.5
		C88.3,159.8,87,163.8,85.6,167.9z M89.4,173.4c0-2.5-1.8-4.5-4.3-4.6c-2.5-0.1-4.6,2-4.6,4.5c0,2.4,2,4.4,4.4,4.4
		C87.4,177.8,89.4,175.9,89.4,173.4z M138.6,147.3c2.4,0.1,4.5-1.9,4.6-4.4c0.1-2.4-2-4.5-4.4-4.6c-2.4-0.1-4.5,1.9-4.5,4.4
		C134.2,145.3,136.1,147.3,138.6,147.3z M117.2,121.9c-2.4-0.1-4.5,1.9-4.5,4.4c-0.1,2.5,1.8,4.5,4.3,4.6c2.5,0.1,4.5-1.8,4.5-4.3
		C121.5,124,119.6,122,117.2,121.9z M128.1,115.4c2.5,7.1,4.9,14.1,7.4,21c0.6,1.6,1.6,1.5,2.9,1c-2.5-7.1-4.9-13.9-7.3-20.8
		C130.6,115.1,129.7,115.1,128.1,115.4z"/>
	<path fill="#202021" d="M163.8,113.3c-1.7,0-3.4,0-5.1,0c-2-5.8-4-11.5-6-17.3c-0.1,0-0.3,0.1-0.4,0.1c0,5.7,0,11.4,0,17.2
		c-2.1,0-4.3,0-6.4,0c0-9.5,0-19,0-28.7c2.4,0,4.6-0.1,6.8,0.1c0.6,0.1,1.3,1.1,1.6,1.8c2.3,6,4.5,12,6.9,18.4c0.8-2,1.4-3.5,2-5.1
		c1.7-4.5,3.4-9,5-13.5c0.4-1.3,1.1-1.7,2.3-1.6c1.8,0.1,3.6,0,5.8,0c0,9.7,0,19.2,0,28.7c-2.1,0-4.2,0-6.4,0c0-5.7,0-11.4,0-17
		c-0.2,0-0.3,0-0.5-0.1C167.6,101.8,165.7,107.5,163.8,113.3z"/>
	<path fill="#1D1C1D" d="M54.5,60c0,2.6,0,5.1,0,7.7c-2.2,0-4.2,0-6.4,0c0-9.5,0-19,0-28.3c5,0,10.1-0.4,15,0.1c3.8,0.4,6.2,3.4,7,7.2
		c0.9,4,0.1,7.6-3,10.5c-0.5,0.5-1.2,0.9-2,1.5c1.6,2.9,3.1,5.7,4.9,9c-2.5,0-4.7,0.1-6.8-0.1c-0.5,0-1.1-0.7-1.4-1.2
		c-0.9-1.4-1.7-2.9-2.5-4.3C57.9,59.7,57.9,59.7,54.5,60z M54.5,54.4c1.5,0,2.8,0,4,0c3.3,0,5.2-2,5.2-5c0-3-2-4.9-5.3-4.9
		c-0.8,0-1.7,0.1-2.5,0c-1.1-0.1-1.4,0.4-1.4,1.4C54.5,48.6,54.5,51.3,54.5,54.4z"/>
	<path fill="#181A1C" d="M30.9,98.8c-0.2,6.7,4.3,10.5,10.7,9.1c2.2-0.5,3.9-1.6,4.7-3.7c0.5-1.2,1.2-1.4,2.3-1.4c1.7,0.1,3.3,0,5.2,0
		c-0.5,4.5-2.7,7.5-6.4,9.5c-11.2,5.8-22.6-0.7-23.7-13.5c0.4-6.7,3.1-11.9,9.8-14.2c4.5-1.5,9-1.3,13.4,0.6c4,1.8,6.3,5,7.1,9.7
		c-2.1,0-4.1,0.1-6,0c-0.5,0-1.1-0.4-1.3-0.8c-2.6-4-5.9-5.3-10.1-4C32.8,91.2,30.8,94.3,30.9,98.8z"/>
	<path fill="#1D1C1D" d="M130.3,113.2c-1.2,0-2.5,0-3.7,0.1c-2,0.1-3.8,0.2-4-2.6c0-0.3-1.1-0.8-1.7-0.9c-1.9-0.1-3.8,0.1-5.7-0.1
		c-1.9-0.1-3.5,0-3.7,2.4c0,0.4-1,1-1.5,1.1c-1.8,0.1-3.6,0.1-5.7,0.1c0.9-3,1.8-5.8,2.7-8.7c2.1-6,4.3-12,6.2-18.1
		c0.5-1.7,1.3-2.1,3-2.1c4.4,0.1,4.5,0,5.9,4.2C124.8,96.9,127.6,105.1,130.3,113.2z M117.6,92.7c-0.2,0-0.3,0-0.5,0
		c-1.1,3.9-2.2,7.8-3.3,11.8c2.5,0,4.7,0,7.1,0C119.7,100.4,118.6,96.5,117.6,92.7z"/>
	<path fill="#181A1C" d="M103,104.6c-0.6,1.7-1.2,3.4-1.7,5.2c-0.4,1.3-1.3,1.5-2.3,1c-1.3-0.7-2.5-1.6-3.6-2.6
		c-4.1-3.8-7.4-3.8-11.5,0.1c-3.8,3.7-7.2,3.9-11.1,0.2c-2-1.9-4.1-2.8-6.9-2.6c-2.4,0.2-4.8,0-7.6,0c0-2.4,0-4.7,0-7
		c3.3,0,6.7-0.2,10-0.1c1.1,0.1,2.3,0.8,3.3,1.5c1,0.6,1.7,1.6,2.6,2.3c2.7,2.2,5.7,2.2,8.4,0c0.9-0.7,1.7-1.6,2.6-2.4
		c2.9-2.4,6.5-2.3,9.2,0.3c0.1,0.1,0.1,0.1,0.2,0.2C96.7,103.7,99.5,104.8,103,104.6z"/>
	<path fill="#313132" d="M81.3,67.7c-2.4,0-4.5,0-6.6,0c0-9.6,0-19,0-28.8c1.9,0,3.7,0,5.5,0c1.3,0,1.2,0.9,1.2,1.7c0,3.5,0,7,0,10.5
		C81.3,56.6,81.3,62,81.3,67.7z"/>
	<path fill="#1D1C1D" d="M140.3,113.3c-2.2,0-4.4,0-6.6,0c0-9.5,0-18.9,0-28.6c2.2,0,4.2,0,6.6,0C140.3,94.2,140.3,103.7,140.3,113.3z"
		/>
	<path fill="#343335" d="M95.9,29.7c1.3-0.4,2.3-0.4,2.8,1.3c5.8,17.1,11.7,34.1,17.6,51.2c-1.5,0.5-2.4,0.5-3-1.3
		c-5.8-16.9-11.6-33.8-17.4-50.7C95.8,30.1,95.9,29.9,95.9,29.7z"/>
	<path fill="#222223" d="M132.5,54.8c0,2.5-1.9,4.4-4.4,4.5c-2.5,0-4.5-2-4.5-4.6c0.1-2.4,2.1-4.4,4.5-4.3
		C130.6,50.4,132.5,52.4,132.5,54.8z"/>
	<path fill="#222223" d="M142.9,38.7c2.5,0,4.4,1.9,4.5,4.3c0,2.5-2,4.6-4.6,4.5c-2.4,0-4.4-2.1-4.4-4.5
		C138.4,40.7,140.4,38.7,142.9,38.7z"/>
	<path fill="#222223" d="M95.3,28.8c-2.5,0.1-4.5-1.8-4.6-4.3c-0.1-2.6,1.9-4.7,4.4-4.7c2.4,0,4.4,2,4.5,4.4
		C99.8,26.7,97.7,28.8,95.3,28.8z"/>
	<path fill="#202021" d="M117.2,41.9c-2.5,0-4.4-1.8-4.5-4.3c-0.1-2.6,2-4.7,4.5-4.6c2.4,0,4.4,2,4.4,4.5
		C121.5,40,119.6,41.9,117.2,41.9z"/>
	<path fill="#181A1C" d="M104.6,79.5c0,2.5-1.9,4.5-4.4,4.5c-2.5,0-4.5-1.8-4.5-4.3c0-2.5,1.9-4.5,4.3-4.5
		C102.5,75.1,104.6,77,104.6,79.5z"/>
	<path fill="#363537" d="M127.8,60.2c-2,5.9-4.1,11.7-6.1,17.6c-0.3,0.9-0.7,1.9-1,2.8c-0.4,1.6-1.2,2.3-3,1.7c0.2-0.6,0.3-1.2,0.5-1.8
		c2.2-6.3,4.4-12.5,6.6-18.8C125.3,60,126.1,59.5,127.8,60.2z"/>
	<path fill="#212B31" d="M85.6,167.9c1.4-4.1,2.8-8.1,4.2-12.2c4.4-12.8,8.8-25.6,13.2-38.5c0.5-1.6,1.2-2.6,3.2-1.7
		c-1.9,5.4-3.7,10.8-5.6,16.2c-3.9,11.5-7.9,23-11.8,34.4C88.2,167.7,87.6,168.8,85.6,167.9z"/>
	<path fill="#171C1F" d="M89.4,173.4c0,2.4-2,4.4-4.5,4.4c-2.4,0-4.4-2.1-4.4-4.4c0-2.5,2.1-4.6,4.6-4.5
		C87.6,168.9,89.5,170.9,89.4,173.4z"/>
	<path fill="#171C1F" d="M138.6,147.3c-2.5-0.1-4.4-2.1-4.3-4.6c0-2.5,2.1-4.4,4.5-4.4c2.4,0.1,4.4,2.2,4.4,4.6
		C143.1,145.4,141,147.4,138.6,147.3z"/>
	<path fill="#181A1C" d="M117.2,121.9c2.4,0.1,4.3,2.1,4.3,4.6c0,2.5-2,4.4-4.5,4.3c-2.5-0.1-4.4-2.1-4.3-4.6
		C112.7,123.8,114.8,121.8,117.2,121.9z"/>
	<path fill="#212B31" d="M128.1,115.4c1.6-0.3,2.5-0.3,3,1.2c2.3,6.9,4.8,13.8,7.3,20.8c-1.4,0.5-2.4,0.6-2.9-1
		C133.1,129.5,130.6,122.5,128.1,115.4z"/>
	<path fill="#EBECED" d="M117.6,92.7c1.1,3.9,2.2,7.7,3.3,11.8c-2.4,0-4.6,0-7.1,0c1.1-4,2.2-7.9,3.3-11.8
		C117.2,92.7,117.4,92.7,117.6,92.7z"/>
</g>
</svg>
