<?xml version="1.0" encoding="utf-8"?>
<!-- Generator: Adobe Illustrator 22.1.0, SVG Export Plug-In . SVG Version: 6.00 Build 0)  -->
<svg version="1.1" id="Layer_1" xmlns="http://www.w3.org/2000/svg" xmlns:xlink="http://www.w3.org/1999/xlink" x="0px" y="0px"
	 viewBox="0 0 750 372.8" style="enable-background:new 0 0 750 372.8;" xml:space="preserve">

<title>ricaim-logo-name</title>
<g>
	<path fill="#0B0B0B" d="M333.2,185.5c0.3,80.8-65.8,147.5-147.7,147.6c-79.8,0.1-147.9-64.3-147.9-147.8
		c-0.1-81.5,65.9-147.7,147.4-147.8c0,0,0,0,0,0C267.8,37.3,333.7,104.8,333.2,185.5z M49.7,184.6c0,0.9-0.1,1.7-0.1,2.6
		c-0.1,5.1,0.7,10.1,1.3,15.2c0.6,5.7,1.6,11.3,3.1,16.8c0.9,3.2,1.9,6.4,2.9,9.6c2.3,7.1,5.3,14,8.9,20.6
		c3.6,6.8,7.8,13.3,12.4,19.3c3.7,5,7.9,9.6,12.4,13.9c4.4,4.1,9.1,8,13.9,11.7c8.7,6.5,18.2,12,28.2,16.2
		c8.8,3.9,18.1,6.6,27.7,8.3c4.8,0.8,9.5,1.9,14.3,2.1c8.3,0.3,16.7,0.5,25-0.4c7.6-0.9,15.1-2.3,22.5-4.4
		c13.1-3.6,25.6-9.2,37-16.7c5.8-3.6,11.3-7.7,16.4-12.2c4.9-4.4,9.5-9.2,13.7-14.2c5.9-7.2,11.2-14.9,15.7-23
		c4.7-8.6,8.4-17.7,11-27.1c1.5-5.1,2.6-10.3,3.4-15.6c0.5-3.5,1.1-6.9,1.4-10.4c1.6-22.2-1.5-43.7-10.3-64.4
		c-20.3-47.9-66-80-117.9-82.7c-18.1-1.1-36.3,1.6-53.3,7.9c-40.1,15.1-67.5,42.9-82.2,83C52.1,154.7,49.5,169.6,49.7,184.6
		L49.7,184.6z"/>
	<path fill="#0B0B0B" d="M363.2,272.4h4.2c3.8,8.9,7.5,17.8,11.6,27.4l11.5-27.2c1.3-0.6,2.7-0.2,4.2-0.2v33.5
		c-1.3,0.5-2.5,0.3-4.2,0.2v-21.6l-0.8-0.2c-3.4,7-5.8,14.5-8.9,21.5c-1.2,0.4-2.5,0.4-3.6,0.1l-9-22.2l-0.6,0.1v22
		c-1.4,0.4-2.9,0.5-4.4,0.3L363.2,272.4z"/>
	<path fill="#0B0B0B" d="M661.6,144.6c0.4-0.1,0.8-0.2,1.3-0.3c0.9,0,1.7,0,2.5,0c2.9,4.1,6.4,5.5,10.5,4.1c3.2-1,4.4-3.8,4.2-9.7
		c-2.9,2.3-5.9,4.1-9.8,3.3c-2.6-0.4-5-1.8-6.6-3.8c-3.7-5-3.3-11.9,0.9-16.4c4.4-4.3,9.5-4.2,15.5,0.3c0.1-0.9,0.2-1.7,0.2-2.4
		c0.6-0.6,1.3-0.3,1.9-0.4c0.6,0,1.2,0,1.8,0.1c0.8,0.9,0.5,2,0.5,2.9c0,5.9-0.1,11.7,0,17.6c0.2,11.1-7,13.9-15.7,12.2
		C664.7,151.2,662.7,149.1,661.6,144.6z M680.2,130.2c0-4.4-3.2-7.8-7.3-7.8c-4.3,0.1-7.7,3.7-7.6,7.9c0,0.1,0,0.1,0,0.2
		c0.1,4.5,3.2,7.7,7.5,7.7C677.3,138.2,680.3,135.1,680.2,130.2z"/>
	<path fill="#0B0B0B" d="M390,130.6h4.6c-0.4,3.5-2.3,6.7-5.3,8.6c-6.5,4.3-13.4,4.4-20.2,0.8c-5.8-3.1-9-10.5-8.1-17.7
		c1.1-9.8,10-16.8,19.8-15.6c2.9,0.3,5.6,1.4,8,3c3.1,2,5.2,5.2,5.8,8.8c-1.6,0.8-3,0.3-4.4,0.3c-0.3-0.3-0.5-0.6-0.7-1
		c-1.8-5.4-7.4-7.6-13.6-6.6c-5.5,0.9-9.2,5.1-10,10.7c-0.4,2.5-0.2,5,0.4,7.4c1.2,5,5.6,8.6,10.8,8.9
		C383.5,138.7,387.1,136.7,390,130.6z"/>
	<path fill="#0B0B0B" d="M550.4,286.6c0.2-0.9,0.3-1.7,0.5-2.5c1.1-0.8,2.3-0.3,3.5-0.3c0.9,0.7,0.6,1.6,0.6,2.5c0,6.4,0,12.7,0,19.1
		c0,0.8,0,1.5-0.1,2.2c-0.5,5.2-3.2,8.1-8.3,9.2c-2.9,0.7-6,0.4-8.8-0.7c-3-1.2-5.4-3.2-5.5-6.9c1.3-0.4,2.7-0.5,4-0.2
		c2.4,3.9,6,5.3,10.1,3.9c3.6-1.2,4.7-3.7,4-9.2c-6.9,4.2-12.4,3.8-16.2-1.1c-3.6-5.1-3.1-11.9,1.1-16.5
		C539.5,282.2,545.2,282.2,550.4,286.6z M536.2,294.7c-0.1,4.8,2.8,8.1,7.1,8.2c4.2,0.1,7.7-3.3,7.8-7.6c0-0.1,0-0.1,0-0.2
		c0-4.4-3-7.8-7.1-8C539.3,287,536.2,290,536.2,294.7L536.2,294.7z"/>
	<path fill="#0B0B0B" d="M613.5,231.9v3.1c-0.2,0.2-0.4,0.5-0.6,0.5c-1,0.2-2,0.3-2.9,0.5c-2.6,0.4-4.5,2.6-4.6,5.2
		c-0.3,2.6,1.1,5,3.4,6.1c4.8,2.2,10.6-0.4,10.6-6.4c-0.8-1.1-2.2-0.1-3.2-1.2c-0.5-0.8-0.2-1.9-0.1-3.2h10.8c0.2,1.1,0.2,2.1,0,3.2
		c-0.6,0.9-1.6,0.4-2.5,0.9c-0.1,0.3-0.3,0.6-0.3,0.9c-0.9,10.1-10.7,12.4-17.6,9.3c-3.5-1.4-5.8-4.7-5.8-8.5
		c-0.1-4.2,2.1-7,5.9-8.7c-0.5-0.4-1.1-0.7-1.6-1.1c-3.8-2.6-4.8-7.8-2.2-11.6c0.8-1.2,2-2.2,3.3-2.8c3.8-2.1,8.4-2.1,12.2,0
		c3.2,1.5,5.2,4.9,4.9,8.5c-1.5,0.8-2.9,0.3-4.1,0.4c-1.6-5.1-3.9-6.9-7.9-6.4c-3.2,0.5-5.4,2.8-5.2,5.8
		C606.3,229.9,608,231.2,613.5,231.9z"/>
	<path fill="#0B0B0B" d="M522.5,196.2c-1.3,0.3-2.7,0.4-4,0.2c-0.5-2.9-0.2-5.9-0.3-8.8c-0.1-2.1,0.2-4.2-0.3-6.3
		c-0.7-2.8-1.8-3.8-4.2-3.9c-2.3-0.2-4.5,1.2-5.1,3.5c-0.5,1.7-0.7,3.4-0.7,5.2c0,3.4,0,6.7,0,10.2c-1.3,0.5-2.8,0.5-4.1,0.1v-22
		c1.1-0.3,2.4-0.4,3.5-0.2c1.1,0.7,0.2,1.9,0.9,2.6c5.4-4.8,9.8-4.5,13.6,0.9c1.6-2.3,3.7-4.1,6.7-4.2c5.3-0.1,8.2,2.2,8.5,7.3
		c0.3,5.1,0.1,10.2,0.1,15.4c-1.3,0.3-2.6,0.3-3.9,0.1c-0.9-1.2-0.4-2.6-0.4-4c-0.1-3.2,0-6.5-0.1-9.7c-0.1-3.5-1.6-5.2-4.4-5.4
		c-3-0.2-5,1.5-5.4,4.9c-0.3,2.5-0.2,5-0.3,7.5C522.4,191.8,522.5,193.9,522.5,196.2z"/>
	<path fill="#0B0B0B" d="M551.2,122.7h14c1,1.3,0.6,2.5,0.5,4.1h-14.5v10.7H565c1.2,1.5,0.7,2.7,0.8,4.1h-19.3v-33.2
		c2.4-0.7,14.8-0.8,18.9-0.2c0.6,1.1,0.5,2.3,0,3.7h-14.3V122.7z"/>
	<path fill="#0B0B0B" d="M707.4,119.6c1.3-0.4,2.6-0.5,3.9-0.3c0.8,0.9,0.4,2,0.4,2.9c0,6.6,0,13.2,0,19.9c0,4-1.2,7.5-5.1,9.2
		c-4,2-8.8,1.6-12.5-0.9c-2-1.2-3-3.5-2.7-5.8c1.2-0.7,2.5-0.3,3.7-0.3c1.9,4,4.5,5.3,8.3,4.2c3.2-0.9,4.2-3.4,3.7-9.7
		c-1.4,0.9-2.3,2.2-3.9,2.7c-6.4,2.1-11.8-1.3-11.9-7.6c-0.1-4.7,0-9.5,0-14.3c1.3-0.7,2.6-0.4,4.2-0.2c0,2.2,0,4.3,0,6.4
		c0,2.5,0,5,0.1,7.5c0.2,2.9,1.5,4.4,3.8,4.8c3.1,0.6,5.7-0.5,6.9-3.1c0.7-1.5,1-3.1,0.9-4.8C707.4,126.7,707.4,123.1,707.4,119.6z"
		/>
	<path fill="#0B0B0B" d="M366.5,191.5l-1.6,4.8c-1.6,0.3-3.2,0.4-4.8,0.1c3.8-11.2,7.6-22.4,11.3-33.3c1.4-0.6,2.7-0.3,4.2-0.2
		c3.8,11.1,7.5,22.2,11.4,33.4c-1.5,0.6-3,0.3-4.5,0.3c-1.2-1.4-1-3.3-2.1-5L366.5,191.5z M373.8,170.1H373
		c-1.5,5.7-3.8,11.1-5,17.2c3.9-0.1,7.3,0.3,11.1-0.4L373.8,170.1z"/>
	<path fill="#0B0B0B" d="M446.6,287.1v-14.5c1.5-0.6,2.7-0.2,4.1-0.4v33.5c-1.1,0.5-2.3,0.6-3.4,0.2c-0.9-0.5-0.4-1.5-1.2-2.2
		c-3.6,3.1-7.8,4-12.2,2s-6.1-6.1-6.1-10.7c0-4.6,1.7-8.7,6.2-10.7C438.2,282.5,442.4,282.6,446.6,287.1z M439.4,287.2
		c-4.5,0-7.4,3.2-7.4,8c0,4.5,3,7.8,7.3,7.8s7.6-3.2,7.6-7.9S443.9,287.2,439.4,287.2z"/>
	<path fill="#0B0B0B" d="M444.4,122.1c0.2-1.2,0.3-1.9,0.4-2.7c1.3-0.4,2.6-0.4,3.8,0v21.9c-1.1,0.4-2.3,0.5-3.4,0.2
		c-0.9-0.5-0.2-1.7-0.9-2.2c-9,4.9-15.9,4.2-18.6-7c-1-4.6,0.9-9.4,4.9-12C435.4,117.6,439.9,117.9,444.4,122.1z M437.1,138.2
		c4.5,0,7.6-3.1,7.6-7.8c0-4.7-3.1-7.9-7.5-8c-4.1-0.1-7.5,3.5-7.4,8.1C429.8,135.2,432.8,138.2,437.1,138.2z"/>
	<path fill="#0B0B0B" d="M495.5,231.8c0.2-1,0.3-1.8,0.4-2.7c1.3-0.4,2.6-0.4,3.9,0.1V251c-1.3,0.3-2.6,0.4-3.9,0.1
		c-0.1-1-0.2-1.8-0.3-2.7c-6.2,4.5-12.1,4.5-16,0s-3.8-12.5,0.2-16.8S489.9,227.3,495.5,231.8z M488.4,232.3
		c-4.9-0.2-7.4,3.6-7.5,7.9c-0.2,4.1,3,7.7,7.1,7.9c0.1,0,0.1,0,0.2,0c4.4,0.1,7.6-3.2,7.6-7.9C495.8,235.5,492.9,232.4,488.4,232.3
		z"/>
	<path fill="#0B0B0B" d="M510.4,121.6c1-0.5,0.2-1.5,1-2.2c1.2-0.3,2.5-0.3,3.7-0.1v22.1c-1.1,0.3-2.3,0.4-3.5,0.1
		c-0.9-0.7-0.3-1.8-1-2.7c-2.8,3.1-7.2,4.2-11.2,2.8c-4.3-1.3-6.5-4.6-7.2-8.8c-0.8-4.9,0.3-9.4,4.6-12.3
		C501.5,117.4,506.2,117.9,510.4,121.6z M496.4,130.2c-0.1,4.9,2.8,8,7.3,8s7.5-3.2,7.6-7.9c0.2-4.2-3.1-7.7-7.3-7.9c0,0,0,0,0,0
		C498.6,122.5,496.3,126.2,496.4,130.2L496.4,130.2z"/>
	<path fill="#0B0B0B" d="M454.4,190.2c-0.5,2.4-2.1,4.4-4.3,5.5c-4.2,2.1-8.5,2.1-12.4-0.5c-3.9-2.7-5-7-4.5-11.6
		c0.8-7.4,6.7-11.3,13.9-9.7c4.5,1,9.1,5.8,7.2,12.9h-16.9c0.5,2.9,1.3,5.1,4,6c2.7,0.9,5.8,1.1,8-1.5
		C450.8,189.5,452.4,189.8,454.4,190.2z M450.2,183c-0.4-4.2-2.3-6-6.2-6c-3.8,0-6,1.9-6.4,6H450.2z"/>
	<path fill="#0B0B0B" d="M559.5,190c1.3-0.2,2.5-0.2,3.8,0.2c-0.3,2.3-1.7,4.3-3.8,5.2c-7.4,4-17.1,0.5-17.3-9.3
		c-0.1-1.6,0-3.2,0.4-4.8c1.6-5.7,6.8-8.7,12.7-7.7c5.6,1,9.3,6.3,8.3,11.9c-0.1,0.3-0.1,0.6-0.2,0.9h-16.6c0,3.6,0.9,5.2,3.3,6.2
		C553.6,194,556.7,193.1,559.5,190z M546.5,183h12.8c-0.7-4.3-2.5-6-6.3-6C549.4,177,547.3,178.7,546.5,183L546.5,183z"/>
	<path fill="#0B0B0B" d="M477.8,296.2h-17.2c0.2,3.1,1.3,5.3,4.1,6.2c2.8,1,5.5,0.9,7.6-1.3c1.2-1.5,3.2-2,5-1.2
		c-0.8,3.9-3.5,6.2-8,6.7c-7.1,0.8-12.1-3.1-12.9-10.3c-0.5-3.2,0.3-6.5,2.3-9.2c2.8-3.7,6.9-4.9,12.5-3.4c4.3,1.2,6.6,4.7,6.7,9.6
		C477.9,294.2,477.8,295,477.8,296.2z M473.8,292.9c-1.2-4.7-3.3-6.5-7-6.2c-3.7,0.3-5.6,2.3-5.9,6.2H473.8z"/>
	<path fill="#0B0B0B" d="M618.8,130.5c0,7-4.9,11.9-11.7,11.8s-11.6-5.1-11.5-12.1c-0.2-6.3,4.8-11.4,11.1-11.6c0.2,0,0.4,0,0.6,0
		C614.1,118.6,618.8,123.4,618.8,130.5z M614.4,130.6c0.1-4.9-2.9-8.2-7.3-8.2s-7.2,3.2-7.3,7.8c-0.1,4.9,2.7,8,7.3,8
		C611.6,138.3,614.3,135.4,614.4,130.6z"/>
	<path fill="#0B0B0B" d="M421.5,130.6c-0.1,7-5,11.9-11.9,11.7c-6.8-0.2-11.5-5.2-11.4-12.2c-0.1-6.2,4.8-11.4,11.1-11.5
		c0.2,0,0.4,0,0.6,0C416.8,118.6,421.6,123.6,421.5,130.6z M417.2,130.6c0-4.8-2.7-7.9-6.9-8.1c-4.5-0.2-7.5,3-7.6,7.8s2.8,8,7.4,8
		C414.5,138.3,417.1,135.4,417.2,130.6L417.2,130.6z"/>
	<path fill="#0B0B0B" d="M657.1,130.2c0,7.1-4.6,12-11.5,12.1c-6.3,0.2-11.6-4.8-11.8-11.1c0-0.3,0-0.5,0-0.8c0-7,4.9-11.9,11.8-11.8
		S657.1,123.4,657.1,130.2z M652.8,130.2c-0.1-4.6-3-7.8-7.3-7.8c-4.3,0-7.3,3.3-7.2,8.1c0,4.6,2.9,7.6,7.3,7.6
		S652.9,135.2,652.8,130.2L652.8,130.2z"/>
	<path fill="#0B0B0B" d="M439.3,251.9c-6.2,0.2-11.4-4.8-11.6-11c0-0.2,0-0.4,0-0.6c-0.1-7,4.8-12.1,11.6-12c7,0.1,11.6,4.3,11.8,11.8
		C451.2,247.1,446.2,252,439.3,251.9z M432,240.2c0,4.6,3.3,8,7.6,7.9c4.1-0.1,7.3-3.6,7.2-7.7c0-0.1,0-0.2,0-0.3
		c-0.2-4.6-2.9-7.8-7.3-7.8S432,235.4,432,240.2z"/>
	<path fill="#0B0B0B" d="M400.5,294.8c0.1-6.9,4.9-11.6,12-11.6c6.5,0,11.4,5.2,11.3,11.9c0,7-4.8,11.8-11.8,11.7
		S400.4,301.9,400.5,294.8z M419.4,294.9c0-4.8-2.8-7.7-7.2-7.7s-7.4,3.1-7.3,8s3.1,7.9,7.6,7.8
		C416.6,302.8,419.4,299.6,419.4,294.9z"/>
	<path fill="#0B0B0B" d="M534,239.7c-0.1-6.2,4.8-11.3,11-11.4c0.2,0,0.5,0,0.7,0c6.8,0.1,11.6,5.2,11.5,12.1c0.2,6.2-4.8,11.4-11,11.6
		c-0.3,0-0.7,0-1,0C538.3,251.8,533.8,246.9,534,239.7z M552.9,240.2c0-4.8-2.6-7.8-7-7.9c-4.6-0.1-7.6,2.9-7.6,7.8c0,4.9,3,8,7.5,8
		C550,248.1,552.8,245,552.9,240.2L552.9,240.2z"/>
	<path fill="#0B0B0B" d="M582.8,251.1c-1.3,0.4-2.5,0.2-4.1,0.2c0-3.5,0-6.8,0-10.2c0.1-1.5,0-3-0.2-4.5c-0.6-3-1.9-4.2-4.7-4.5
		c-2.6-0.4-5.1,1-6.1,3.4c-0.6,1.4-0.8,2.9-0.8,4.4c0,3.6,0,7.2,0,10.9c-1.3,0.7-2.7,0.4-4.2,0.3v-21.8c1.1-1,2.5-0.2,3.6-0.5
		c1,0.9,0.4,1.9,0.8,2.7c0.3,0.1,0.7-0.1,0.9-0.4c1.4-1.7,3.4-2.7,5.6-2.7c4.8-0.4,9,1.8,9.2,7C583,240.6,582.8,245.9,582.8,251.1z"
		/>
	<path fill="#0B0B0B" d="M406.5,251.1c-1.4,0.4-2.8,0.4-4.2,0v-21.7c1.1-0.9,2.5-0.2,3.5-0.4c1,0.9,0.3,2,0.9,2.8
		c0.3-0.1,0.6-0.3,0.8-0.5c1.5-1.6,3.4-2.5,5.6-2.7c5-0.7,8.6,1.9,9.2,7c0.7,5.2,0.2,10.4,0.3,15.6c-1.4,0.5-2.9,0.5-4.3,0.2v-10
		c0.1-1.6-0.1-3.2-0.4-4.8c-0.7-2.6-1.8-3.7-4.2-4c-2.9-0.4-5.2,0.7-6.3,2.9c-0.7,1.5-1,3.1-0.9,4.7
		C406.5,243.5,406.5,247.1,406.5,251.1z"/>
	<path fill="#0B0B0B" d="M375.2,229h3.5c1,0.6,0.2,1.7,0.8,2.4c0.1,0.2,0.4,0.3,0.6,0c1.8-2.1,4.5-3.3,7.3-3c4.6,0.1,7.6,2.7,7.8,7.4
		c0.2,5.1,0.1,10.1,0.1,15.4h-3.9c-0.8-0.9-0.4-2.1-0.4-3.2c-0.1-3.5,0-7-0.2-10.5c-0.2-3.5-1.8-5.2-5-5.4c-3.1-0.4-6,1.9-6.3,5
		c-0.2,1.2-0.2,2.5-0.2,3.7c0,3.3,0,6.7,0,10.1c-1.4,0.5-2.6,0.2-4.1,0.3L375.2,229z"/>
	<path fill="#0B0B0B" d="M510.7,305.8c-1.7,0.5-3,1-4.4,0v-21.5c1.3-0.8,2.5-0.4,3.5-0.4c1.2,0.7,0.5,1.8,1,2.5
		c0.4,0.1,0.6-0.1,0.9-0.4c2-2.1,5-3,7.8-2.5c4.4,0.6,6.8,2.9,6.9,7.4c0.2,5,0,10,0,14.9c-1.4,1-2.6,0.7-4.2,0c0-2.1,0-4.3,0-6.6
		c0-2.2,0-4.5-0.1-6.7c-0.3-3.8-2-5.4-5.4-5.3s-5.8,1.9-6,5.4C510.5,296.8,510.7,301.1,510.7,305.8z"/>
	<path fill="#0B0B0B" d="M589.5,196.5c-1.1,0-1.9,0-2.6,0c-0.5,0-1-0.1-1.8-0.2c0-3.4,0-6.7,0-10.1c0-1.5,0-3-0.2-4.5
		c-0.2-2.5-2.2-4.4-4.7-4.5c-2.6-0.3-5,1.1-6.1,3.4c-0.6,1.6-0.8,3.4-0.8,5.1c-0.1,3.5,0,6.9,0,10.3c-1.4,0.8-2.7,0.2-4,0.5v-22.2
		c1.3-0.6,2.5-0.2,3.5-0.2c0.8,0.6,0.3,1.6,1.1,2.1c0.3-0.1,0.6-0.3,0.9-0.4c1.2-1.1,2.7-1.8,4.3-2.1c4.6-1,9.9,1,10.3,7.7
		c0,0.8,0.1,1.5,0.1,2.2C589.5,187.8,589.5,191.9,589.5,196.5z"/>
	<path fill="#0B0B0B" d="M587.7,134h3.9c-0.1,2.2-1,4.2-2.7,5.6c-5.6,5.1-15.5,2.7-18.1-4.3c-0.9-2.4-1.1-4.9-0.6-7.4
		c1.8-9.6,11.2-10.8,17.1-7.7c2.4,1.2,3.5,3.2,4.1,6.7c-1.2,0.5-2.4,0.2-3.9,0.2c-1.2-3.7-3.9-4.8-7.6-4.3c-2.4,0.2-4.5,1.9-5.1,4.3
		c-0.7,2-0.7,4.2-0.2,6.3c0.5,2.5,2.5,4.5,5.1,4.8c2.9,0.4,6.2-0.2,7.3-3.1C587.2,134.6,587.4,134.3,587.7,134z"/>
	<path fill="#0B0B0B" d="M407.2,180c-1.2,0.4-2.6,0.5-3.8,0.3c-1.7-3-3.9-4.1-6.7-3.2c-1.2,0.4-2.3,1.1-2.2,2.7c0,1.1,0.7,2.2,1.8,2.5
		c2.2,0.8,4.5,1.3,6.8,2.1c3.3,1.2,4.7,3.6,4.2,7c-0.3,1.9-1.4,3.5-3.1,4.4c-3.8,2-8.5,1.7-12-0.8c-1.6-1.1-2.5-2.8-2.6-4.8
		c1.1-0.9,2.4-0.4,3.8-0.5c0.9,2.7,3.6,4.3,6.4,3.8c2-0.2,3.2-1.3,3.3-2.9c0.2-1.5-0.9-3-2.4-3.2c0,0-0.1,0-0.1,0
		c-1.9-0.4-3.9-0.9-5.8-1.5c-2.9-0.9-4.5-3-4.6-5.7c0-2.7,1.7-5.2,4.3-6c2.8-1.1,6-1.1,8.8,0.1C405.6,175.2,407.2,177.5,407.2,180z"
		/>
	<path fill="#0B0B0B" d="M493.9,180.4c-1.8-3.1-3.6-4-6.5-3.3c-1.3,0.2-2.3,1.3-2.3,2.6c-0.2,1.3,0.7,2.5,2,2.8
		c2.4,0.6,4.8,1.3,7.1,2.2c3.1,1.2,4.7,4.6,3.5,7.7c-0.1,0.3-0.3,0.7-0.5,1c-0.2,0.5-0.5,0.9-0.8,1.2c-2.9,2.7-6.4,3.1-10.1,2.2
		c-3.4-0.8-5.8-2.8-6.2-6.5c1.2-0.8,2.5-0.3,3.9-0.4c1.1,2.8,3.2,4.1,6.3,3.7c2-0.2,3.2-1.3,3.3-2.9c0.2-1.5-0.9-2.9-2.5-3.1
		c0,0,0,0-0.1,0c-1.8-0.4-3.6-0.9-5.4-1.4c-3.2-1-4.8-3-4.9-5.8c0-2.8,1.7-5.2,5-6.2c2.2-0.7,4.5-0.7,6.6-0.1c3,0.8,5,2.6,5.4,5.8
		C496.6,180.8,495.2,180.2,493.9,180.4z"/>
	<path fill="#0B0B0B" d="M428.9,180.3h-3.8c-0.1-0.1-0.3-0.5-0.5-0.8c-1.6-2.4-3.4-3.2-5.9-2.5c-1.3,0.2-2.3,1.2-2.5,2.5
		c-0.2,1.3,0.7,2.5,2,2.8c1.4,0.5,2.8,0.9,4.3,1.3c1.1,0.3,2.1,0.6,3.2,1c3.1,1.5,4.4,5.2,2.9,8.3c-0.4,0.8-0.9,1.5-1.5,2
		c-4.9,4.3-15.8,1.8-15.8-4.8c0.5-0.4,1.1-0.5,1.8-0.4h2.1c0.8,2.7,3.6,4.3,6.3,3.8c2-0.2,3.2-1.3,3.3-2.9c0.2-1.6-1-3-2.5-3.1
		c0,0,0,0,0,0c-1.9-0.4-3.9-0.9-5.8-1.5c-2.6-0.7-4.5-3-4.6-5.7c0-2.7,1.8-5.1,4.3-5.9c2.8-1.1,6-1.1,8.7,0.1
		C427.4,175.3,429,177.7,428.9,180.3z"/>
	<path fill="#0B0B0B" d="M454.4,135.3c1.1-0.7,2.3-0.1,3.4-0.5c0.9,1.5,1.8,3.1,3.6,3.6c1.2,0.4,2.5,0.4,3.7,0.1
		c1.4-0.2,2.5-1.4,2.5-2.9c0.2-1.4-0.8-2.8-2.2-3c-1.8-0.4-3.6-0.9-5.4-1.4c-3.5-1-5.2-3-5.2-6c0-3,1.8-5,5.1-6.1
		c2.5-0.8,5.2-0.7,7.7,0.2c2.7,0.9,3.9,2.8,4,6.1c-1.9,0.2-3.4,0.4-4.6-1.8c-0.9-1.8-4.7-2.1-6.5-1c-0.9,0.5-1.5,1.4-1.4,2.5
		c0.1,1,0.7,1.9,1.7,2.2c2,0.7,4.1,1.2,6.1,1.8c2,0.6,3.9,1.7,4.8,3.8c1.2,3-0.1,6.4-2.9,8c-3.9,2-8.5,1.6-12-1
		C455.2,138.9,454.3,137.2,454.4,135.3z"/>
	<path fill="#0B0B0B" d="M458.2,190.1c1.3-0.6,2.5-0.3,4-0.3c1,3,3.3,4,6.3,3.7c1.6-0.2,2.9-0.8,3.2-2.6s-0.4-2.7-2.6-3.4
		c-1.8-0.6-3.6-0.9-5.4-1.5c-3.3-1-4.8-2.9-4.8-5.8c0-2.8,1.9-5.3,4.7-6.1c2.4-0.8,5-0.8,7.3-0.1c2.9,0.9,4.6,2.7,4.9,5.7
		c-1.2,1.1-2.5,0.6-3.9,0.6c-0.8-2.8-2.9-3.7-5.7-3.4c-1.8,0.2-3,1.2-3.1,2.7c-0.1,1.6,0.9,2.4,2.4,2.9c2.3,0.6,4.5,1.3,6.8,2.1
		c3.1,1.2,4.7,4.6,3.5,7.7c-0.1,0.3-0.3,0.7-0.5,1c-0.2,0.3-0.4,0.6-0.6,0.9c-2.8,2.9-6.2,3.3-10,2.4
		C461.2,195.9,458.8,194,458.2,190.1z"/>
	<path fill="#0B0B0B" d="M452.1,229h4.5c2.2,5.2,4.5,10.4,7,16.4c2.6-5.9,4.8-11.1,7-16.3c1.5-0.4,3-0.3,4.4,0.3l-9.5,21.6
		c-1.2,0.5-2.6,0.5-3.8,0.1C458.6,243.9,455.4,236.6,452.1,229z"/>
	<path fill="#0B0B0B" d="M597.2,177.8l-3.6-0.2c-0.7-1.1-0.3-2.1-0.3-3.1c1-1.1,2.4-0.1,3.8-0.9v-6c1.2-0.8,2.8-1,4.2-0.5
		c0.5,2.1,0,4.3,0.3,6.5c1.6,1,3.6-0.1,5.3,0.7c0.5,0.9,0.2,1.9,0.2,3c-1.6,0.7-3.4,0-5.1,0.4c-0.5,1.9-0.7,10.6-0.3,12.1
		c0.5,2.1,1.1,2.6,3.4,2.8c0.8,0,1.7,0,2.5,0c0.5,1,0.6,2.2,0.3,3.3c-0.3,0.2-0.5,0.4-0.7,0.4c-7.2,1.1-9.9-1.2-9.9-8.6
		C597.2,184.7,597.2,181.4,597.2,177.8z"/>
	<path fill="#0B0B0B" d="M488.8,138c0.3,1,0.4,2.1,0.3,3.2c-0.3,0.4-0.8,0.7-1.4,0.6c-7.2,0.4-9.2-1.4-9.2-8.7v-9.6
		c-1.2-0.9-2.6-0.2-3.8-0.8c-0.4-1-0.4-2.1,0-3.1c1.1-0.7,2.5-0.1,3.8-0.5v-6.4c1.4-0.9,2.7-0.4,4.3-0.4v6.4
		c1.8,1.1,3.6,0.2,5.3,0.8c0.6,1,0.1,2.1,0.2,3c-1.7,0.8-3.4,0-5.2,0.7c-0.3,4-0.3,8.1,0,12.1c0,1.5,1.2,2.7,2.7,2.7
		c0.1,0,0.2,0,0.3,0C486.9,138,487.7,138,488.8,138z"/>
	<path fill="#0B0B0B" d="M512.9,233c0,3.4,0.1,6.8,0,10.1s1.3,5.1,4.7,4.5c0.4,0,0.7,0,1.1,0c0.7,0.9,0.9,2.1,0.6,3.1
		c-0.2,0.2-0.4,0.5-0.6,0.5c-0.8,0.2-1.7,0.4-2.6,0.4c-4.7,0.2-7.3-2.1-7.5-6.8c-0.1-2,0-4,0-6v-5.8c-1.2-1.2-2.6-0.1-3.7-1
		c-0.2-0.9-0.2-1.9,0-2.9c1-1,2.4-0.1,3.7-0.8v-6.3c1.4-0.4,2.9-0.4,4.4-0.1v6.4c1.7,0.8,3.4,0.1,5,0.5c1,0.9,0.5,2,0.5,3.1
		C516.7,233.2,514.6,231.9,512.9,233z"/>
	<path fill="#0B0B0B" d="M624.4,107.8c1.3-0.2,2.7-0.2,4,0v33.7c-1.3,0.2-2.7,0.2-4-0.1V107.8z"/>
	<path fill="#0B0B0B" d="M483.4,272.4h3.6c0.7,2.7,0.9,25.6,0.3,33.5c-1.2,0.8-2.8,0.8-4,0L483.4,272.4z"/>
	<path fill="#0B0B0B" d="M367.2,251.1h-4.1v-33.4c1.2-0.5,2.6-0.2,4.1-0.2L367.2,251.1z"/>
	<path fill="#0B0B0B" d="M643.6,78.8l3-7.7c1-0.6,2-0.3,3.2-0.3v12.1c-0.5,0.7-1.4,0.4-2.3,0.3c-0.8-1.9,0.1-3.9-0.6-6
		c-1.1,1.8-1.5,3.8-2.3,5.7c-1.2,0.6-2.2,0.8-2.8-1c-0.5-1.6-1.2-3.1-2.1-4.5v5c-1,1.1-1.8,0.8-2.8,0.6V71c0.9-0.8,2-0.4,3.1-0.2
		C641.5,73.2,641.7,76,643.6,78.8z"/>
	<path fill="#0B0B0B" d="M526.4,141.5h-3.7v-33.3c1-0.9,2.3-0.2,3.7-0.5V141.5z"/>
	<path fill="#0B0B0B" d="M489.2,77.1v-5.6c0.9-1.2,1.8-0.7,2.7-0.9v12.3c-0.8,0.7-1.7,0.4-2.7,0.2c-1.5-1.8-2-4.2-3.8-6
		c-1,2,0.1,4.1-0.8,5.9c-0.8,0.4-1.7,0.4-2.5,0V71.1c1.8-0.9,3-0.5,3.8,1.1c0.8,1.6,1.7,3.2,2.6,4.9L489.2,77.1z"/>
	<path fill="#0B0B0B" d="M551.7,77.4v5.3c-0.8,0.6-1.9,0.7-2.9,0.2V71.3c1-0.9,1.9-0.7,3-0.4l4,7.1c0.1-2.9,0.2-4.9,0.3-6.7
		c0.9-0.8,1.6-0.4,2.5-0.6V83c-1.8,0.6-3,0.2-3.8-1.7c-0.7-1.4-1.5-2.8-2.4-4.1L551.7,77.4z"/>
	<path fill="#0B0B0B" d="M405.6,83.2V70.9c1.5-0.4,3.1-0.5,4.7-0.2c3.9,0.2,6.4,2.8,6.4,6.4s-2.5,6-6.5,6.2
		C408.7,83.2,407.2,83.2,405.6,83.2z M408.8,73.5v7.1c3.6-0.2,4.7-1.1,4.7-3.8C413.4,74.3,412.3,73.5,408.8,73.5z"/>
	<path fill="#0B0B0B" d="M496.4,70.7c1.8-0.1,3.6-0.1,5.4,0c3.3,0.3,5.7,3.1,5.6,6.3c0.1,3.4-2.6,6.1-5.9,6.2c-0.1,0-0.1,0-0.2,0
		c-1.6,0.2-3.3,0.1-4.9-0.2L496.4,70.7z M499.5,80.9c4-0.6,5.1-1.8,4.7-4.6c-0.4-2.4-1.3-2.9-4.7-2.5V80.9z"/>
	<path fill="#0B0B0B" d="M671.2,77.1c0-4,2.4-6.5,6.4-6.6c3.9-0.1,7,2.6,7,6.5c0.1,3.7-2.9,6.7-6.5,6.8c-0.1,0-0.2,0-0.4,0
		c-3.5,0-6.4-2.8-6.5-6.3C671.2,77.3,671.2,77.2,671.2,77.1z M681.2,77c0-2.3-1.5-4-3.5-4c-2.2,0-3.7,1.7-3.6,4.2
		c0.1,2.3,1.5,3.8,3.6,3.7C679.9,80.9,681.3,79.2,681.2,77z"/>
	<path fill="#0B0B0B" d="M574.5,77c-0.2-3.4,2.5-6.4,5.9-6.6c0.2,0,0.5,0,0.7,0c3.6-0.2,6.6,2.5,6.8,6c0,0.3,0,0.5,0,0.8
		c-0.1,3.7-3.1,6.6-6.7,6.5c0,0-0.1,0-0.1,0c-3.6,0.1-6.5-2.8-6.6-6.4C574.5,77.3,574.5,77.1,574.5,77z M581.1,73
		c-2.1,0.1-3.7,1.9-3.6,3.9c0,0.1,0,0.2,0,0.4c-0.1,2,1.5,3.6,3.5,3.7c0.1,0,0.2,0,0.3,0c2.1-0.2,3.6-2,3.5-4.1
		C584.7,74.8,583,72.9,581.1,73L581.1,73z"/>
	<path fill="#0B0B0B" d="M538.7,70.4c3.4-0.2,6.4,2.4,6.6,5.8c0,0.3,0,0.5,0,0.8c0.2,3.6-2.6,6.6-6.2,6.7c-0.2,0-0.5,0-0.7,0
		c-3.6-0.1-6.5-3-6.5-6.7c0,0,0-0.1,0-0.1c0-3.5,2.8-6.4,6.3-6.4C538.4,70.4,538.6,70.4,538.7,70.4z M542.2,76.8
		c0-2.1-1.6-3.8-3.7-3.8c0,0,0,0,0,0c-2.1,0.2-3.6,1.9-3.5,4c-0.1,2.1,1.5,3.8,3.6,3.9C540.8,81,542.3,79.2,542.2,76.8z"/>
	<path fill="#0B0B0B" d="M524.4,229.1c1.3-0.3,2.7-0.3,4,0.1v21.9c-1.2,0.5-2.5,0.2-4,0.2V229.1z"/>
	<path fill="#0B0B0B" d="M395.9,70.4c3.9,0.2,6.3,2.9,6.2,6.9c-0.1,3.6-3,6.4-6.6,6.3c-0.1,0-0.2,0-0.3,0c-3.7-0.1-6.6-3.2-6.5-6.8
		c0,0,0,0,0,0C388.8,72.9,391.7,70.2,395.9,70.4z M399,76.9c0.1-2.1-1.5-3.8-3.6-3.9c-2.1,0.1-3.7,1.8-3.7,3.9
		c-0.2,2.1,1.4,3.9,3.5,4.1c0.1,0,0.2,0,0.3,0C397.6,80.9,399,79.2,399,76.9z"/>
	<path fill="#0B0B0B" d="M498.9,305.9c-1.3,0.4-2.6,0.4-3.9,0.1v-21.7c1.2-0.8,2.4-0.3,3.9-0.3V305.9z"/>
	<path fill="#0B0B0B" d="M361.9,82.8V70.7c1.6,0,3,0,4.5,0c2.2,0,4,0.6,4.9,2.7c0.9,1.9,0.4,4.1-1.1,5.4c-0.2,0.2-0.4,0.5-0.5,0.7
		l1.6,3.4c-0.9,0.4-1.8,0.5-2.8,0.3c-1.4-0.5-1.1-2.8-2.8-3c-1.4,0.7-0.3,2.2-1.2,3C363.6,83.5,362.6,83.4,361.9,82.8z M364.9,77.1
		c2.9,0.1,3.8-0.3,3.7-1.8c-0.1-1.5-0.9-2-3.6-1.7C364.4,74.6,364.6,75.7,364.9,77.1L364.9,77.1z"/>
	<path fill="#0B0B0B" d="M529.1,75.2c-1.6,0.6-2.7-0.1-3.9-1.2c-1.5-1.2-3.7-1.1-5,0.3c-1.2,1.8-1.1,4.2,0.4,5.9
		c1.3,1.3,3.3,1.2,4.6-0.1c0,0,0.1-0.1,0.1-0.1c0.9-1.2,2.6-1.6,3.9-0.8c-1.6,3.8-4.1,5.2-7.9,4.3c-3.2-0.5-5.5-3.5-5.2-6.8
		c0-3.3,2.6-6,5.8-6.2C526,70.1,528.1,71.4,529.1,75.2z"/>
	<path fill="#0B0B0B" d="M599,79.5l1.7,3.2c-0.9,0.8-1.8,0.4-2.8,0.4c-1.4-0.6-1.1-2.9-2.9-3c-1.4,0.6-0.4,2.1-1.2,2.9
		c-0.8,0.3-1.6,0.3-2.4,0V70.9c1.5-0.6,3-0.2,4.5-0.3c2-0.1,3.7,0.5,4.7,2.3c1,1.8,0.8,4-0.7,5.5C599.6,78.8,599.4,79.1,599,79.5z
		 M594.3,76.9c2.8,0.3,3.5,0,3.6-1.6c0.1-1.6-0.6-2-3.5-1.9C594,74.6,593.9,75.8,594.3,76.9z"/>
	<path fill="#0B0B0B" d="M695.8,79.9l1.6,3.1c-0.9,0.4-2,0.5-3,0.2c-1.2-0.8-1.2-2.8-3-3.1c-1.3,0.7-0.2,2.1-0.9,2.9s-1.6,0.2-2.2,0.3
		c-0.2-0.3-0.4-0.4-0.4-0.5c0-3.8,0-7.7,0-11.6c1.6-0.9,3.4-0.5,5-0.4c4.2,0.2,6,3.8,3.9,7.4C696.5,78.6,695.8,78.9,695.8,79.9z
		 M691,73.2c-0.2,1.5-0.5,2.7,0.1,3.9c3,0,3.6-0.3,3.5-2C694.4,72.9,692.7,73.3,691,73.2z"/>
	<path fill="#0B0B0B" d="M630,70.6l3,0.2c0,2.9,0.1,5.6,0,8.3c-0.1,3-2.1,4.6-5.3,4.5c-2.9-0.1-4.8-1.7-4.9-4.5c-0.1-2.6,0-5.2,0-7.8
		c0.9-1,1.8-0.8,2.8-0.3c0.7,2.2,0.1,4.4,0.3,6.7c0.2,2.5,0.6,3.4,2,3.3s2.1-1,2.1-3.3S630,73.2,630,70.6z"/>
	<path fill="#0B0B0B" d="M378,82.9c-0.9,0.5-1.9,0.4-2.7-0.1V71.2c0.7-0.6,1.7-0.7,2.6-0.2c0.7,1.4,0,2.9,0.5,4.5
		c1.2,0.6,2.5,0.2,3.7,0.3c0.8-1.6,0-3.2,0.6-4.6c0.7-0.7,1.5-0.5,2.6-0.1c0.5,3.9,0.1,7.8,0.2,11.7c-0.8,0.8-2.1,0.9-3,0.2v-4.2
		c-1.3-0.4-2.7-0.4-4-0.1C377.8,80,378.2,81.4,378,82.9z"/>
	<path fill="#0B0B0B" d="M453.4,73.8c-2.2,2.4-3.6-2.7-5.7-0.6c-0.3,0.7,0,1.5,0.7,1.8c0.1,0,0.1,0.1,0.2,0.1c0.6,0.3,1.1,0.5,1.7,0.7
		c2.6,1.2,3.6,2.4,3.4,4.3c-0.2,1.7-1.4,3-3.1,3.3c-2.3,0.6-4.5,0.1-5.7-1.6c-0.6-0.6-0.8-1.5-0.7-2.4c1-0.3,2-1.1,2.9,0.5
		c0.2,0.6,0.8,1,1.4,1.2c0.7,0.1,1.5,0.2,1.8-0.8c0.3-0.6,0-1.3-0.6-1.6c-0.8-0.4-1.6-0.7-2.4-1.1c-2.4-1.2-3.3-2.6-2.8-4.6
		s2.2-2.8,4.8-2.7C451.5,70.6,453.1,71.4,453.4,73.8z"/>
	<path fill="#0B0B0B" d="M571.6,74.1c-1.4,0.2-2.4,0.7-3.3-0.6c-0.9-1.3-2-1-2.9,0.2c0.6,1.5,1.9,1.7,3,2.1c1.9,0.7,3.4,1.8,3.3,4
		c0,1.6-1,3-2.5,3.4c-2.1,0.7-4.2,0.7-5.9-1c-0.8-0.7-1.2-1.8-0.8-2.9c1.1-0.4,2.3-0.9,2.9,0.8c0.2,0.7,0.9,0.8,1.5,0.9
		c0.6,0.2,1.3-0.1,1.5-0.7c0.3-0.6,0.1-1.3-0.5-1.6c-1-0.5-2.1-0.9-3-1.4c-2-1-2.8-2.5-2.4-4.2s1.8-2.7,4-2.8
		C569.3,70.2,570.2,70.9,571.6,74.1z"/>
	<path fill="#0B0B0B" d="M474.6,70.7c1.4,4.2,2.8,8.2,4.1,12.1c-0.9,0.6-2.1,0.6-3.1,0c-2.3-1.5-2.9-1.5-4.9-0.1c-0.9,0.6-2,0.7-3,0.2
		c0.8-3.9,2.4-7.5,3.6-11.2C471.9,70.2,473.2,70.7,474.6,70.7z M471.8,79c0.9,0.7,2.2,0.6,3-0.2c-1.1-1-0.4-2.7-1.8-3.9
		C472.5,76.5,472.2,77.8,471.8,79z"/>
	<path fill="#0B0B0B" d="M663.8,79.4c-0.8,1.2-0.2,2.4-0.6,3.4c-0.8,0.7-1.6,0.5-2.7,0.2V70.8h7.1c0.8,0.6,0.6,1.3,0.4,2
		c-1.3,1.1-3-0.1-4.3,0.8c-0.4,0.7-0.5,1.7-0.1,2.4c1.2,0.8,2.7,0,4,0.5c0.8,0.6,0.3,1.3,0.5,2C666.7,79.5,665.2,78.7,663.8,79.4z"
		/>
	<path fill="#0B0B0B" d="M420.1,83.2V70.9c2.3-0.6,4.6-0.1,6.7-0.3c0.7,0.5,0.9,1.5,0.5,2.2c-1.2,0.7-2.7,0-4,0.5
		c-0.6,0.6-0.3,1.4-0.4,2.1c1.5,0.7,2.9,0.2,4,0.4c0.8,0.6,0.6,1.2,0.5,1.8c-1.2,0.8-2.7,0.1-4,0.5c-0.8,0.7-0.6,1.5-0.3,2.3
		c1.3,0.7,2.7,0,3.9,0.4c0.8,0.5,0.4,1.2,0.5,1.9C425.1,83.5,422.7,83.2,420.1,83.2z"/>
	<path fill="#0B0B0B" d="M464.6,83.1h-7.4v-12c0.9-0.7,1.8-0.7,3,0v8.6C461.5,81.5,465,79,464.6,83.1z"/>
	<path fill="#0B0B0B" d="M613.1,72.8c-1.1,1.1-2.4,0.1-3.5,1.1v8.6c-0.8,0.8-2,1-2.9,0.3v-8.6c-0.9-1.3-2.3-0.4-3.2-1.1
		c-0.7-0.6-0.4-1.3-0.4-2.2c2.8-0.8,5.7-0.2,8.5-0.3C613,70.6,613.1,71.7,613.1,72.8z"/>
	<path fill="#0B0B0B" d="M437.9,70.8c0.5-0.1,1-0.1,1.5-0.1c0.4,0.1,0.8,0.2,1.2,0.3v11.8c-0.8,0.7-1.6,0.6-2.7,0.2V70.8z"/>
	<path fill="#0B0B0B" d="M500.3,276.6c0.1,1.8-1.3,3.4-3.1,3.5c-0.1,0-0.2,0-0.3,0c-1.9,0-3.5-1.5-3.6-3.5s1.5-3.5,3.4-3.5
		c1.9-0.1,3.4,1.3,3.5,3.2C500.3,276.4,500.3,276.5,500.3,276.6z"/>
	<path fill="#0B0B0B" d="M526.4,225.1c-1.8,0.1-3.4-1.3-3.5-3.1c0-0.1,0-0.2,0-0.3c0.1-1.8,1.5-3.3,3.3-3.4c1.9,0,3.6,1.4,3.7,3.3
		c0.1,1.9-1.4,3.4-3.2,3.5C526.6,225.1,526.5,225.1,526.4,225.1z"/>
	<path fill="#0B0B0B" d="M618.7,82.9c-0.8,0.4-1.7,0.4-2.5,0.1c-0.6-2-0.2-4.1-0.3-6.2s0-3.9,0-5.6c1.1-1,1.9-0.6,2.8-0.6L618.7,82.9z"
		/>
	<path fill="#059DC2" d="M189,193.7l7.3-0.1l-4.2,13c3.4,1.4,7.3,1.5,10.7,0.2l1.6-4.4c2.8,0,5.4-0.1,8,0s5.1-0.9,7.8,0.5
		c0.1,1.2,0.4,2.3,0.9,3.3c0.3,0.8,0.9,1.4,1.6,1.3c3.2-0.2,6.4,0.7,9.5-0.5c1.7,0.2,3.4,0.2,5.1-0.1c3.4,0.3,6.9,0.3,10.3,0
		c2.9,0.3,5.8,0.3,8.6,0c3.3,0.3,6.6,0.3,9.9,0c3.3,0.3,6.7,0.3,10,0c2.7,0.5,5.5,0.5,8.2,0c3.2,0.3,6.4,0.3,9.5,0
		c3.3,0.3,6.7,0.3,10-0.1c5.1,0.6,10.3,0.1,15.4,0.2c-0.7,5.3-1.8,10.5-3.3,15.6c-2.6,9.4-6.3,18.5-11,27.1
		c-4.5,8.1-9.8,15.8-15.7,23c-4.3,5.1-8.9,9.8-13.8,14.2c-5.1,4.5-10.6,8.6-16.4,12.2c-11.4,7.5-23.9,13.1-37,16.7
		c-7.4,2-14.9,3.5-22.6,4.4c-8.4,1-16.7,0.7-25,0.4c-4.8-0.2-9.6-1.3-14.3-2.1c-9.5-1.6-18.8-4.4-27.7-8.3
		c-10-4.2-19.5-9.6-28.2-16.2c-4.8-3.7-9.5-7.6-13.9-11.7c-4.5-4.3-8.7-8.9-12.4-13.9c-4.7-6.1-8.8-12.6-12.4-19.3
		c-3.6-6.6-6.6-13.5-8.9-20.6c-1-3.2-2-6.4-2.9-9.6c-1.5-5.5-2.5-11.1-3.1-16.8c-0.5-5.1-1.4-10.1-1.3-15.2c0-0.9,0.1-1.7,0.1-2.6
		l16.9-0.1c0.1,1.1,0.1,2.2,0.2,3.3c0.6,8.3,5.8,16.5,14.4,19.3c6.6,2.2,13.8,2.1,20.4-0.4c4.6-1.7,8.3-5.2,10.4-9.6
		c0.8-1.6,1.7-3.6,1.1-5.8h-10.4c-2.9,7.4-8.8,8.6-14,8c-6.3-0.7-10.8-6.1-10.7-11.1c-0.1-1.2-0.2-2.4-0.4-3.6c12.9,0,25.9,0,38.8,0
		c1.3,0,2.7-0.4,4,0.5c0,1.9-0.1,3.8,0,5.6c0.1,1.8-0.7,3.7,0.9,5.6c2.6,0,5.4,0.2,8,0c6.2-0.5,11.6,0.5,16.1,5.4
		c3.4,3.7,9.8,3.2,13.3-0.6c1.3-1.3,2.7-2.5,4.2-3.6c3.9-3.1,7.9-3.2,12-0.6c1.8,1.3,3.5,2.8,5.1,4.4c1.8,1.6,3.7,3.3,6.6,2.5
		c1-2.8,2-5.6,3.1-8.4C189.9,194.6,189.2,194.2,189,193.7z M166.7,292.4l28.2-81.9c-3.8-0.4-4-0.4-5,2.5c-2.3,6.8-4.6,13.6-6.9,20.4
		c-2.6,7.7-5.2,15.5-7.8,23.2c-4,11.7-8.1,23.4-12.2,35.1c-0.1,0.2,0.1,0.4,0.2,0.7C164.1,292.8,165.1,292.6,166.7,292.4z
		 M244.5,245.9c-1.7,0.9-2.5,1.3-3.2,1.8c-2.6,1.9-3.6,5.3-2.5,8.3c1.4,2.9,4.4,4.6,7.6,4.2c2.8-0.3,5.3-2.3,5.6-4.6
		c0.7-4.4-0.6-7.3-4-8.6c-1.1-0.5-2.4-0.5-3.4-1.5c0-1.4-0.2-2.7-0.6-4c-3.6-9.5-7.1-19.2-10.2-28.9c-0.7-2.2-1.3-2.5-4.2-2.1
		c-0.3,0.9-0.3,2,0.1,2.9c1.1,3.3,2.2,6.6,3.4,9.8c2,5.2,3.6,10.5,5.5,15.7C239.7,241.5,239.2,245.4,244.5,245.9z M211.9,234.7
		c3.5,0,7.1-3.4,7.1-6.8c-0.2-4-3.4-7.2-7.4-7.4c-3.6,0-7,3.4-6.7,7.1C205.1,232.3,207.6,234.2,211.9,234.7z M161.9,307.5
		c3.2,0.6,6.7-2.8,6.8-6.8c0-3.7-3-6.8-6.8-6.8c0,0-0.1,0-0.1,0c-3.8-0.1-7,2.9-7.1,6.7C154.5,304.4,157.8,307.6,161.9,307.5z"/>
	<path fill="#0B0B0B" d="M304.1,206.9c-3.3,0.3-6.7,0.4-10,0.1c0-8.8,0.1-17.6-0.6-26.5l-8.9,26.5c-2.7,0.5-5.5,0.5-8.2,0l-9.4-27.4
		l-0.5,0.2V207c-3.3,0.3-6.6,0.3-9.9,0v-44h12.1c3.8,10.1,7.7,20.3,11.8,31.3c4.1-11,8-21.2,11.8-31.4h11.8V206.9z"/>
	<path fill="#0B0B0B" d="M131.2,122.8l7.4,13.6h-11.7c-2.3-4-4.5-7.9-6.9-12h-5.2v11.9h-10.3V91.8c6.9,0,13.6-0.3,20.3,0.1
		c6.6,0.3,12.2,4.8,13.9,11.2c2,7.7-0.8,14.6-5.7,18.1C132.2,121.6,131.5,121.9,131.2,122.8z M114.7,115.6c2.4,0,4.4,0.1,6.4,0
		c4.6-0.1,7.1-2.5,7.6-7.1c0.4-3.9-2.2-7.7-5.7-8c-2.7-0.3-5.4,0-8.2,0V115.6z"/>
	<path fill="#0B0B0B" d="M77.4,184.6c0.2,1.2,0.4,2.4,0.4,3.7c-0.1,5,4.4,10.3,10.7,11.1c5.2,0.6,11.1-0.6,14-8H113
		c0.7,2.2-0.3,4.2-1.1,5.8c-2,4.5-5.8,7.9-10.4,9.7c-6.6,2.4-13.8,2.6-20.4,0.3c-8.7-2.8-13.8-11-14.4-19.3
		c-0.1-1.1-0.1-2.2-0.2-3.3c0.1-2.7,0.6-5.4,1.4-8.1c2.6-7,7.3-11.8,14.5-13.9c7.9-2.3,15.5-1.7,22.6,2.6c4.8,2.8,7.8,7.9,8,13.5
		c-0.4,0.3-0.9,0.5-1.4,0.4h-9c-1-2-1.8-4-3.4-5.4c-6.3-5.6-17.6-3-20.7,4.8C77.7,180.4,77.4,182.5,77.4,184.6z"/>
	<path fill="#0B0B0B" d="M232.4,207.1c-3.1,1.2-6.3,0.3-9.5,0.5c-0.8,0-1.3-0.6-1.6-1.3c-0.5-1.1-0.8-2.2-0.9-3.4
		c-2.7-1.5-5.3-0.5-7.8-0.6s-5.2,0-8,0l-1.6,4.4c-3.5,1.3-7.3,1.2-10.7-0.2l4.2-13c3.5-10.2,7-20.4,10.5-30.7h10.6
		C222.4,177.5,227.4,192.2,232.4,207.1z M217.7,193.8c-1.8-6.4-3.6-12.5-5.3-18.7c-2.1,6.2-4.3,12.2-5.6,18.7H217.7z"/>
	<path fill="#0B0B0B" d="M189,193.7c0.2,0.5,0.8,0.9,0.5,1.6c-1,2.8-2,5.5-3.1,8.4c-2.8,0.8-4.7-0.8-6.6-2.5c-1.6-1.6-3.3-3-5.1-4.4
		c-4.1-2.7-8.1-2.5-12,0.6c-1.5,1.1-2.9,2.3-4.2,3.6c-3.5,3.8-9.9,4.3-13.3,0.6c-4.5-4.9-9.9-6-16.1-5.4c-2.7,0.2-5.4,0-8,0
		c-1.5-1.9-0.7-3.8-0.9-5.6s0-3.7,0-5.6c5.4-0.8,10.9-0.4,16.4-0.2c1.9,0.2,3.6,1.1,4.9,2.5c1.3,1.4,2.7,2.6,4.1,3.8
		c3.6,3.1,8.9,3,12.3-0.2c1.3-1.1,2.5-2.4,3.8-3.6c4.8-4.2,10.6-4,15.1,0.4c0.3,0.3,0.5,0.5,0.8,0.8
		C180.2,192.4,184.6,194.4,189,193.7z"/>
	<path fill="#0B0B0B" d="M155.9,136.4h-10.1V91.9c3.4-0.2,6.7-0.3,10.1-0.2V136.4z"/>
	<path fill="#0B0B0B" d="M247.9,207c-3.4,0.3-6.9,0.3-10.3,0v-44h10.3V207z"/>
	<path fill="#0B0B0B" d="M178.5,77.5c1.3-0.4,2.7-0.4,4,0l28.2,81.7c-1.3,0.5-2.7,0.6-4,0.1C197.4,132.1,188,104.9,178.5,77.5z"/>
	<path fill="#0B0B0B" d="M218.8,89.4c-0.1,3.8-3,6.9-6.8,7.1c-3.9,0-7.1-3.2-7.2-7.1c0.1-3.8,3.2-6.8,7-6.9
		C215.6,82.6,218.7,85.6,218.8,89.4z"/>
	<path fill="#0B0B0B" d="M192.4,154.7c0,3.8-2.9,6.9-6.7,7.2c-3.8,0.1-7-2.8-7.2-6.6c-0.2-3.9,2.7-7.2,6.6-7.4c0.1,0,0.1,0,0.2,0
		C189.1,148,192.2,151,192.4,154.7z"/>
	<path fill="#0B0B0B" d="M258.8,98.2c0.1,3.7-2.7,6.8-6.4,6.9c-0.1,0-0.2,0-0.4,0c-3.7,0.2-6.8-2.6-7-6.3c0-0.2,0-0.5,0-0.7
		c0-3.7,2.9-6.7,6.6-6.7c0.1,0,0.2,0,0.3,0c3.7-0.1,6.7,2.8,6.8,6.5C258.8,98,258.8,98.1,258.8,98.2z"/>
	<path fill="#0B0B0B" d="M235.9,116.4c0,3.8-3,6.9-6.8,7.1c-3.8,0.1-7-2.9-7.1-6.8c0-0.1,0-0.2,0-0.3c0-3.8,3.2-6.9,7-6.8
		C232.8,109.6,235.8,112.6,235.9,116.4z"/>
	<path fill="#0B0B0B" d="M184.6,69.1c0.1,3.6-2.8,6.7-6.4,6.8c-0.1,0-0.3,0-0.4,0c-3.7,0.1-6.8-2.7-6.9-6.4c0-0.2,0-0.5,0-0.7
		c0-3.7,3-6.6,6.7-6.6c0.1,0,0.2,0,0.3,0c3.7-0.1,6.7,2.8,6.7,6.5C184.6,68.8,184.6,69,184.6,69.1z"/>
	<path fill="#0B0B0B" d="M216.3,159.4c-1.5,0.1-2.6,0.4-3.9-0.3c4-11.4,8-22.8,12-34.2c0.9-0.4,2-0.5,3-0.3c0.9,0.3,0.7,0.8,0.6,1
		c-2.1,6.2-4.2,12.4-6.4,18.6C220,149.2,218.2,154.2,216.3,159.4z"/>
	<path fill="#0B0B0B" d="M166.7,292.4c-1.6,0.3-2.6,0.4-3.6,0c-0.1-0.3-0.3-0.5-0.2-0.7c4-11.7,8.1-23.4,12.2-35.1
		c2.7-7.7,5.2-15.5,7.8-23.2c2.3-6.8,4.6-13.6,6.9-20.4c1-2.9,1.2-3,5-2.5L166.7,292.4z"/>
	<path fill="#0B0B0B" d="M244.5,245.9c-5.3-0.5-4.8-4.4-5.8-7c-2-5.2-3.5-10.5-5.5-15.7c-1.2-3.2-2.3-6.5-3.4-9.8
		c-0.4-0.9-0.4-1.9-0.1-2.9c2.9-0.4,3.5-0.1,4.2,2.1c3.1,9.7,6.5,19.4,10.2,28.9c0.4,1.3,0.5,2.6,0.6,4c0.9,1,2.2,1,3.4,1.4
		c3.4,1.4,4.7,4.2,4,8.6c-0.4,2.3-2.9,4.4-5.6,4.6c-3.2,0.3-6.2-1.4-7.6-4.2c-1.1-3-0.1-6.4,2.5-8.3
		C242,247.2,242.8,246.8,244.5,245.9z"/>
	<path fill="#0B0B0B" d="M211.9,234.7c-4.3-0.4-6.7-2.4-7-7.1c-0.2-3.6,3.2-7,6.7-7.1c4,0.2,7.2,3.4,7.4,7.4
		C218.9,231.4,215.4,234.7,211.9,234.7z"/>
	<path fill="#FDFDFD" d="M266.4,207v-27.2l0.5-0.2l9.4,27.4C273.1,207.3,269.7,207.3,266.4,207z"/>
	<path fill="#0B0B0B" d="M161.9,307.5c-4.1,0-7.4-3.1-7.2-6.9c0.1-3.8,3.3-6.8,7.1-6.7c3.7-0.1,6.8,2.9,6.9,6.6c0,0,0,0.1,0,0.1
		C168.6,304.8,165.1,308.2,161.9,307.5z"/>
	<path fill="#FDFDFD" d="M284.6,207l8.9-26.5c0.7,8.8,0.6,17.7,0.6,26.5C290.9,207.3,287.7,207.3,284.6,207z"/>
	<path fill="#FDFDFD" d="M114.7,115.6v-15.1c2.8,0,5.5-0.2,8.2,0c3.5,0.3,6.1,4.2,5.7,8c-0.4,4.5-3,6.9-7.6,7.1
		C119.1,115.6,117.1,115.6,114.7,115.6z"/>
	<path fill="#FDFDFD" d="M217.7,193.8h-10.9c1.2-6.5,3.5-12.4,5.6-18.7C214.1,181.2,215.9,187.4,217.7,193.8z"/>
</g>
</svg>
