<svg xmlns="http://www.w3.org/2000/svg" viewBox="0 0 1361 531.49">
  <title>uri-logo</title>
  <g>
    <g>
      <path fill="#002d62" d="M32.18,256.79c0-30.12,0-35.67-.39-42-.4-6.74-2-9.91-8.53-11.29a40.29,40.29,0,0,0-7.72-.6c-2.18,0-3.37-.39-3.37-1.78s1.38-1.79,4.36-1.79c10.5,0,23,.6,28.93.6,4.75,0,17.24-.6,24.37-.6,3,0,4.36.4,4.36,1.79S73,202.89,71,202.89a29.59,29.59,0,0,0-5.75.6c-5.35,1-6.93,4.36-7.33,11.29-.4,6.34-.4,11.89-.4,42v27.74c0,28.73,5.75,40.81,15.46,48.75,8.92,7.32,18,8.12,24.77,8.12,8.72,0,19.42-2.78,27.34-10.7,10.9-10.9,11.5-28.73,11.5-49.14V256.79c0-30.12,0-35.67-.4-42-.4-6.74-2-9.91-8.52-11.29a38.08,38.08,0,0,0-7.14-.6c-2.18,0-3.36-.39-3.36-1.78s1.39-1.79,4.16-1.79c10.1,0,22.59.6,22.79.6,2.37,0,14.85-.6,22.58-.6,2.78,0,4.16.4,4.16,1.79s-1.18,1.78-3.56,1.78a29.59,29.59,0,0,0-5.75.6c-5.35,1-6.93,4.36-7.33,11.29-.39,6.34-.39,11.89-.39,42V278c0,22-2.18,45.38-18.83,59.64C121,349.72,106.69,351.9,93.8,351.9c-10.49,0-29.52-.6-44-13.67-10.11-9.12-17.64-23.78-17.64-52.51Z" transform="translate(-9 -10.12)"/>
      <path fill="#002d62" d="M218.1,322.18c.4,15.45,3,20.61,6.93,22a31.5,31.5,0,0,0,10.31,1.39c2.18,0,3.37.4,3.37,1.58,0,1.59-1.79,2-4.56,2-12.88,0-20.81-.6-24.57-.6-1.79,0-11.1.6-21.4.6-2.58,0-4.36-.2-4.36-2,0-1.18,1.19-1.58,3.17-1.58a35.18,35.18,0,0,0,8.91-1c5.16-1.58,5.95-7.34,6.15-24.57l1.78-117.3c0-4,.6-6.74,2.58-6.74,2.18,0,4,2.57,7.33,6.14,2.38,2.58,32.5,34.88,61.42,63.61,13.48,13.47,40.23,42,43.6,45.17h1l-2-89c-.2-12.09-2-15.85-6.74-17.84-3-1.19-7.73-1.19-10.5-1.19-2.38,0-3.17-.59-3.17-1.78,0-1.59,2.18-1.79,5.15-1.79,10.31,0,19.81.6,24,.6,2.18,0,9.71-.6,19.42-.6,2.57,0,4.55.2,4.55,1.79,0,1.19-1.19,1.78-3.56,1.78a21.41,21.41,0,0,0-5.95.6c-5.55,1.58-7.13,5.74-7.33,16.84l-2.18,125c0,4.36-.79,6.15-2.58,6.15-2.18,0-4.55-2.18-6.73-4.37-12.49-11.88-37.85-37.84-58.46-58.25-21.6-21.4-43.59-46.17-47.16-49.94h-.59Z" transform="translate(-9 -10.12)"/>
      <path fill="#002d62" d="M392.13,256.79c0-30.12,0-35.67-.4-42-.39-6.74-2.37-10.1-6.73-11.1a28.38,28.38,0,0,0-7.14-.79c-2,0-3.17-.39-3.17-2,0-1.19,1.59-1.59,4.76-1.59,7.52,0,20,.6,25.76.6,5,0,16.64-.6,24.17-.6,2.58,0,4.16.4,4.16,1.59,0,1.59-1.19,2-3.17,2a33.09,33.09,0,0,0-5.94.6c-5.35,1-6.94,4.36-7.34,11.29-.39,6.34-.39,11.89-.39,42v34.88c0,19.21,0,34.87.79,43.38.6,5.36,2,8.93,7.92,9.71a82.93,82.93,0,0,0,10.11.8c2.18,0,3.17.59,3.17,1.58,0,1.39-1.58,2-3.76,2-13.08,0-25.56-.6-30.91-.6-4.56,0-17,.6-25,.6-2.58,0-4-.6-4-2,0-1,.79-1.58,3.17-1.58a32,32,0,0,0,7.13-.8c4-.78,5.15-4.16,5.75-9.9,1-8.32,1-24,1-43.19Z" transform="translate(-9 -10.12)"/>
      <path fill="#002d62" d="M466,218.74c-4.56-10.89-7.93-13.07-15.06-15.06a30.69,30.69,0,0,0-7.73-.79c-1.79,0-2.38-.59-2.38-1.78,0-1.59,2.18-1.79,5.15-1.79,10.5,0,21.8.6,28.74.6,4.95,0,14.46-.6,24.37-.6,2.37,0,4.55.4,4.55,1.79s-1.18,1.78-3,1.78c-3.17,0-6.14.2-7.72,1.39a4.74,4.74,0,0,0-2,4.16c0,2.58,1.79,8.13,4.56,15.26l34.08,89.95h.79c8.52-21.79,34.28-85.59,39-98.67a24.41,24.41,0,0,0,1.79-7.33,3.82,3.82,0,0,0-2.58-3.77,26.47,26.47,0,0,0-7.93-1c-1.78,0-3.37-.19-3.37-1.58,0-1.59,1.79-2,5.55-2,9.91,0,18.23.6,20.81.6,3.37,0,12.68-.6,18.62-.6,2.58,0,4.16.4,4.16,1.79s-1.19,1.78-3.17,1.78-6.14,0-9.71,2.38c-2.57,1.78-5.54,5.16-10.89,17.83-7.73,18.63-13.08,29.33-23.78,53.7-12.68,28.93-22,50.53-26.35,60.43-5.16,11.5-6.34,14.67-9.12,14.67-2.58,0-3.76-2.77-7.53-12.09Z" transform="translate(-9 -10.12)"/>
      <path fill="#002d62" d="M633.66,256.79c0-30.12,0-35.67-.4-42-.39-6.74-2-9.91-8.52-11.29a40.29,40.29,0,0,0-7.72-.6c-2.18,0-3.37-.39-3.37-1.78s1.38-1.79,4.35-1.79c5.35,0,11.1.2,16,.2,5.16.2,9.71.4,12.49.4,6.34,0,45.77,0,49.54-.2a78.69,78.69,0,0,0,8.51-1.19,18.47,18.47,0,0,1,3.18-.79c1,0,1.18.79,1.18,1.78,0,1.39-1,3.77-1.58,12.89-.2,2-.6,10.69-1,13.07-.2,1-.59,2.19-2,2.19s-1.78-1-1.78-2.78a21.37,21.37,0,0,0-1.2-7.14c-1.38-3.56-3.36-5.94-13.27-7.13-3.37-.4-24.18-.79-28.14-.79-1,0-1.38.6-1.38,2v50.13c0,1.39.19,2.18,1.38,2.18,4.36,0,27.15,0,31.7-.4,4.76-.39,7.73-1,9.52-3,1.39-1.59,2.18-2.57,3.17-2.57.79,0,1.39.4,1.39,1.58s-.8,4.36-1.59,14.46c-.2,4-.79,11.89-.79,13.28,0,1.59,0,3.77-1.79,3.77a1.58,1.58,0,0,1-1.78-1.79,53.17,53.17,0,0,0-.79-7.13c-1-4-3.77-6.94-11.1-7.73-3.76-.4-23.38-.59-28.14-.59-1,0-1.18.79-1.18,2v15.66c0,6.73-.2,25,0,30.71C659,336.05,662.19,339,682.4,339c5.16,0,13.48,0,18.63-2.38S708.56,330.1,710,322c.39-2.18.79-3,2.17-3,1.59,0,1.59,1.58,1.59,3.56a155.63,155.63,0,0,1-2.58,22c-1.38,5.15-3.17,5.15-10.7,5.15-14.86,0-25.75-.39-34.28-.59-8.52-.4-14.66-.6-20.6-.6-2.18,0-6.54,0-11.3.2-4.55,0-9.7.4-13.67.4-2.58,0-4-.6-4-2,0-1,.79-1.58,3.17-1.58a32,32,0,0,0,7.13-.8c4-.78,5-5.14,5.75-10.89,1-8.32,1-24,1-42.2Z" transform="translate(-9 -10.12)"/>
      <path fill="#002d62" d="M756.37,256.79c0-30.12,0-35.67-.4-42-.4-6.74-2-9.91-8.52-11.29a40.33,40.33,0,0,0-7.73-.6c-2.18,0-3.36-.39-3.36-1.78s1.39-1.79,4.36-1.79c10.5,0,23,.6,27.14.6,6.74,0,21.8-.6,27.94-.6,12.49,0,25.77,1.2,36.46,8.53,5.55,3.76,13.48,13.87,13.48,27.14,0,14.67-6.15,28.14-26.16,44.39,17.63,22.19,31.3,39.83,43,52.11C873.67,343,881.8,344.37,884.77,345a31.74,31.74,0,0,0,5.55.59c1.58,0,2.37.59,2.37,1.58,0,1.59-1.38,2-3.76,2H870.11c-11.1,0-16.05-1-21.2-3.77-8.52-4.56-16.06-13.87-27.16-29.13-7.92-10.89-17-24.37-19.61-27.34a4.13,4.13,0,0,0-3.56-1.39l-17.24-.39c-1,0-1.59.39-1.59,1.58v2.77c0,18.43,0,34.09,1,42.41.6,5.75,1.79,10.11,7.73,10.89a90.21,90.21,0,0,0,9.71.8c1.58,0,2.37.59,2.37,1.58,0,1.39-1.38,2-4,2-11.49,0-26.15-.6-29.12-.6-3.77,0-16.25.6-24.18.6-2.57,0-4-.6-4-2,0-1,.79-1.58,3.17-1.58a32,32,0,0,0,7.13-.8c4-.78,5-5.14,5.75-10.89,1-8.32,1-24,1-42.2Zm23.38,15.65c0,2.18.4,3,1.78,3.57,4.17,1.39,10.11,2,15.06,2,7.93,0,10.5-.79,14.07-3.37,6-4.36,11.69-13.47,11.69-29.72,0-28.13-18.63-36.26-30.31-36.26-5,0-8.52.2-10.51.79-1.38.4-1.78,1.19-1.78,2.78Z" transform="translate(-9 -10.12)"/>
      <path fill="#002d62" d="M895.46,346.75c-3.17-1.39-3.76-2.38-3.76-6.74,0-10.9.78-22.79,1-25.95.2-3,.79-5.16,2.37-5.16,1.79,0,2,1.78,2,3.37a41.87,41.87,0,0,0,1.78,10.11c4.36,14.66,16,20,28.33,20,17.84,0,26.56-12.09,26.56-22.59,0-9.71-3-18.83-19.42-31.7L925.18,281c-21.79-17.05-29.32-30.92-29.32-47,0-21.79,18.22-37.45,45.77-37.45A95.72,95.72,0,0,1,968,199.92c1.79.4,2.78,1,2.78,2.38,0,2.57-.79,8.32-.79,23.78,0,4.36-.6,5.94-2.19,5.94-1.38,0-2-1.19-2-3.57a24,24,0,0,0-5.16-13.07c-3-3.77-8.72-9.71-21.59-9.71-14.67,0-23.59,8.52-23.59,20.41,0,9.11,4.56,16,21,28.53l5.55,4.16c24,18,32.49,31.7,32.49,50.53,0,11.49-4.36,25.16-18.62,34.47-9.91,6.35-21,8.13-31.51,8.13C912.9,351.9,904,350.51,895.46,346.75Z" transform="translate(-9 -10.12)"/>
      <path fill="#002d62" d="M1021.67,256.79c0-30.12,0-35.67-.4-42-.39-6.74-2.37-10.1-6.73-11.1a28.3,28.3,0,0,0-7.13-.79c-2,0-3.18-.39-3.18-2,0-1.19,1.59-1.59,4.76-1.59,7.53,0,20,.6,25.76.6,5,0,16.64-.6,24.17-.6,2.58,0,4.17.4,4.17,1.59,0,1.59-1.2,2-3.17,2a33.19,33.19,0,0,0-6,.6c-5.35,1-6.94,4.36-7.33,11.29-.4,6.34-.4,11.89-.4,42v34.88c0,19.21,0,34.87.79,43.38.6,5.36,2,8.93,7.93,9.71a82.61,82.61,0,0,0,10.11.8c2.17,0,3.17.59,3.17,1.58,0,1.39-1.59,2-3.77,2-13.08,0-25.56-.6-30.91-.6-4.56,0-17,.6-25,.6-2.57,0-4-.6-4-2,0-1,.79-1.58,3.17-1.58a32.18,32.18,0,0,0,7.14-.8c4-.78,5.14-4.16,5.74-9.9,1-8.32,1-24,1-43.19Z" transform="translate(-9 -10.12)"/>
      <path fill="#002d62" d="M1137.58,210.43l-29.52.78c-11.5.4-16.25,1.39-19.22,5.75a23.38,23.38,0,0,0-3.37,6.93c-.39,1.59-1,2.39-2.18,2.39-1.38,0-1.78-1-1.78-3.18,0-3.17,3.76-21.2,4.16-22.78.6-2.58,1.18-3.77,2.38-3.77,1.58,0,3.57,2,8.51,2.38,5.76.59,13.28,1,19.82,1h78.47a95.85,95.85,0,0,0,13.67-1,46.17,46.17,0,0,1,5.35-1c1.38,0,1.59,1.19,1.59,4.16,0,4.16-.6,17.83-.6,23-.2,2-.59,3.17-1.78,3.17-1.59,0-2-1-2.18-4l-.2-2.18c-.4-5.15-5.75-10.69-23.38-11.09l-25-.59v81.24c0,18.22,0,33.88,1,42.39.59,5.56,1.79,9.92,7.73,10.7a82.76,82.76,0,0,0,10.1.8c2.19,0,3.17.59,3.17,1.58,0,1.39-1.58,2-3.76,2-13.08,0-25.56-.6-31.11-.6-4.55,0-17,.6-25,.6-2.57,0-4-.6-4-2,0-1,.79-1.58,3.18-1.58a32.16,32.16,0,0,0,7.13-.8c4-.78,5.15-5.14,5.74-10.89,1-8.32,1-24,1-42.2Z" transform="translate(-9 -10.12)"/>
      <path fill="#002d62" d="M1281,297.81c0-10.7-2-15.07-4.55-20.81-1.39-3.17-27.94-46.76-34.88-57.07-4.95-7.33-9.91-12.28-13.67-14.46-2.57-1.39-6-2.58-8.32-2.58-1.59,0-3-.39-3-1.78,0-1.19,1.39-1.79,3.77-1.79,3.57,0,18.43.6,25,.6,4.17,0,12.29-.6,21.21-.6,2,0,3,.6,3,1.79s-1.39,1.39-4.36,2.18a3.58,3.58,0,0,0-2.77,3.57c0,1.58,1,4,2.37,6.73,2.78,5.95,30.52,53.7,33.69,59.25,2-4.76,27-48.35,29.72-54.49,2-4.36,2.77-7.73,2.77-10.31,0-2-.78-4.16-4.15-4.95-1.79-.39-3.57-.79-3.57-2,0-1.39,1-1.79,3.37-1.79,6.53,0,12.88.6,18.62.6,4.36,0,17.44-.6,21.2-.6,2.18,0,3.57.4,3.57,1.59,0,1.39-1.58,2-3.77,2a21.36,21.36,0,0,0-8.71,2.38c-4.17,2-6.34,4.36-10.71,9.71-6.53,7.93-34.27,54.49-37.84,63-3,7.14-3,13.28-3,19.82v16.25c0,3.16,0,11.49.59,19.81.4,5.75,2.18,10.11,8.13,10.89a82.55,82.55,0,0,0,9.91.8c2.18,0,3.17.59,3.17,1.58,0,1.39-1.59,2-4.16,2-12.49,0-25-.6-30.32-.6-5,0-17.44.6-24.77.6-2.77,0-4.36-.4-4.36-2,0-1,1-1.58,3.17-1.58a31.45,31.45,0,0,0,6.93-.8c4-.78,5.76-5.14,6.15-10.89.59-8.32.59-16.65.59-19.81Z" transform="translate(-9 -10.12)"/>
    </g>
    <path fill="#002d62" d="M22.27,491.48c0-21.86,14.45-50.13,52.81-50.13,31.84,0,51.67,18.55,51.67,47.83s-20.46,52.43-52.95,52.43C37.1,541.61,22.27,514.12,22.27,491.48Zm86.57,2.43c0-28.64-16.49-46.42-37.47-46.42-14.7,0-31.45,8.18-31.45,40,0,26.6,14.7,47.69,39.26,47.69C88.13,535.21,108.84,530.87,108.84,493.91Z" transform="translate(-9 -10.12)"/>
    <path fill="#002d62" d="M169.6,502.74c0,12.27,0,21.86.63,27.23.39,3.71,1.16,6.52,5,7a53.06,53.06,0,0,0,6.4.51c1.66,0,2.17.38,2.17,1,0,.89-.89,1.27-2.81,1.27-8.06,0-16.11-.38-19.44-.38s-11.38.38-16.24.38c-1.79,0-2.69-.25-2.69-1.27,0-.65.52-1,1.92-1a20.67,20.67,0,0,0,4.61-.51c2.55-.52,3.19-3.33,3.7-7,.64-5.37.64-15,.64-27.23V480.23c0-19.44,0-23-.25-27.11-.26-4.35-1.28-6.4-5.5-7.29a25.89,25.89,0,0,0-5-.39c-1.28,0-2.17-.25-2.17-1,0-1,1-1.27,2.94-1.27,3.33,0,7,.12,10.36.12s6.26.26,8,.26c4.86,0,30.82,0,33.76-.13a25.18,25.18,0,0,0,5.25-.51,7.89,7.89,0,0,1,2-.77,1,1,0,0,1,.9,1.15c0,.89-.64,2.43-1,5.76-.12,1.28-.38,8.82-.64,10.36-.12,1-.38,1.79-1.27,1.79s-1.16-.64-1.28-2.05a12.51,12.51,0,0,0-.77-4.86c-.89-1.79-3.58-3.71-8.44-3.84l-19.69-.38c-.77,0-1.15.38-1.15,1.79v32c0,.77.12,1.15.89,1.15l16.37-.13c2.17,0,4,0,5.75-.12,2.43-.13,4.23-.64,5.5-2.31.64-.77.9-1.28,1.66-1.28.52,0,.77.39.77,1.16s-.64,4-1,7.92c-.26,2.56-.51,8.45-.51,9.34,0,1.15,0,2.43-1.28,2.43-.77,0-1-.9-1-1.79a14.08,14.08,0,0,0-.77-4c-.64-1.8-2.56-4.1-6.52-4.61-3.2-.38-16.75-.38-18.93-.38-.64,0-.89.25-.89,1.15Z" transform="translate(-9 -10.12)"/>
    <path fill="#002d62" d="M271.4,480.23c0-19.44,0-23-.26-27.11-.26-4.35-1.28-6.4-5.5-7.29a25.89,25.89,0,0,0-5-.39c-1.4,0-2.17-.25-2.17-1.14s.89-1.15,2.81-1.15c6.78,0,14.84.38,17.52.38,4.35,0,14.07-.38,18-.38,8.06,0,16.63.76,23.53,5.49,3.58,2.43,8.7,9,8.7,17.52,0,9.47-4,18.16-16.88,28.65,11.38,14.32,20.2,25.7,27.75,33.63,7.16,7.42,12.4,8.31,14.32,8.7a20.71,20.71,0,0,0,3.58.38c1,0,1.53.38,1.53,1,0,1-.89,1.27-2.43,1.27H344.8c-7.17,0-10.36-.64-13.69-2.43-5.49-2.94-10.35-8.95-17.51-18.8-5.12-7-11-15.73-12.66-17.64a2.68,2.68,0,0,0-2.3-.9l-11.13-.25c-.64,0-1,.25-1,1v1.79c0,11.89,0,22,.65,27.36.38,3.71,1.15,6.52,5,7a57.68,57.68,0,0,0,6.27.51c1,0,1.53.38,1.53,1,0,.89-.89,1.27-2.55,1.27-7.42,0-16.88-.38-18.81-.38-2.42,0-10.48.38-15.59.38-1.67,0-2.56-.38-2.56-1.27,0-.65.51-1,2-1a20.67,20.67,0,0,0,4.61-.51c2.55-.52,3.2-3.33,3.71-7,.64-5.37.64-15.47.64-27.23Zm15.08,10.1c0,1.41.26,1.92,1.15,2.3a33.63,33.63,0,0,0,9.73,1.28c5.11,0,6.77-.51,9.08-2.17,3.83-2.82,7.54-8.7,7.54-19.18,0-18.16-12-23.41-19.57-23.41a27.69,27.69,0,0,0-6.78.52c-.89.25-1.15.76-1.15,1.79Z" transform="translate(-9 -10.12)"/>
    <path fill="#002d62" d="M433.55,483.81c.39,0,.77-.25.77-.89v-2.69c0-19.44,0-23-.25-27.11-.26-4.35-1.28-6.4-5.5-7.29a25.89,25.89,0,0,0-5-.39c-1.41,0-2.18-.25-2.18-1.14s.9-1.15,2.69-1.15c6.91,0,15,.38,18.42.38,3.07,0,11.12-.38,16.11-.38,1.79,0,2.68.25,2.68,1.15s-.76,1.14-2.3,1.14a22.48,22.48,0,0,0-3.71.39c-3.45.64-4.47,2.81-4.73,7.29-.25,4.09-.25,7.67-.25,27.11v22.51c0,11.76,0,21.86.63,27.36.39,3.58,1.16,6.39,5,6.91a53.13,53.13,0,0,0,6.52.51c1.41,0,2.05.38,2.05,1,0,.89-1,1.27-2.56,1.27-8.31,0-16.36-.38-19.95-.38-2.94,0-11,.38-16,.38-1.79,0-2.69-.38-2.69-1.27,0-.65.52-1,2.05-1A20.57,20.57,0,0,0,430,537c2.56-.52,3.2-3.33,3.71-7,.64-5.37.64-15.47.64-27.23V491.48a.73.73,0,0,0-.77-.76H384.7c-.38,0-.76.12-.76.76v11.26c0,11.76,0,21.86.64,27.36.38,3.58,1.15,6.39,5,6.91a53.13,53.13,0,0,0,6.52.51c1.41,0,2.05.38,2.05,1,0,.89-1,1.27-2.56,1.27-8.31,0-16.37-.38-19.95-.38-2.94,0-11,.38-16.11.38-1.66,0-2.55-.38-2.55-1.27,0-.65.5-1,2-1a20.57,20.57,0,0,0,4.6-.51c2.56-.52,3.2-3.33,3.71-7,.64-5.37.64-15.47.64-27.23V480.23c0-19.44,0-23-.26-27.11-.25-4.35-1.27-6.4-5.49-7.29a26,26,0,0,0-5-.39c-1.4,0-2.17-.25-2.17-1.14s.89-1.15,2.68-1.15c6.91,0,15,.38,18.42.38,3.06,0,11.12-.38,16.11-.38,1.79,0,2.68.25,2.68,1.15s-.76,1.14-2.3,1.14a22.27,22.27,0,0,0-3.7.39c-3.46.64-4.48,2.81-4.74,7.29-.25,4.09-.25,7.67-.25,27.11v2.69c0,.64.38.89.76.89Z" transform="translate(-9 -10.12)"/>
    <path fill="#002d62" d="M473.08,491.48c0-21.86,14.45-50.13,52.81-50.13,31.84,0,51.67,18.55,51.67,47.83s-20.47,52.43-52.95,52.43C487.91,541.61,473.08,514.12,473.08,491.48Zm86.57,2.43c0-28.64-16.49-46.42-37.47-46.42-14.7,0-31.45,8.18-31.45,40,0,26.6,14.7,47.69,39.25,47.69C538.93,535.21,559.65,530.87,559.65,493.91Z" transform="translate(-9 -10.12)"/>
    <path fill="#002d62" d="M601.35,480.23c0-19.44,0-23-.26-27.11-.25-4.35-1.27-6.4-5.5-7.29a25.78,25.78,0,0,0-5-.39c-1.41,0-2.18-.25-2.18-1.14s.9-1.15,2.82-1.15c6.77,0,14.83.38,18.41.38,4,0,12-.38,19.7-.38,16,0,37.33,0,51.27,14.58C687,464.37,693,475,693,490.2c0,16.12-6.78,28.39-13.94,35.68-5.88,6-19.18,15.09-42.84,15.09-4.61,0-9.85-.38-14.71-.77s-9.33-.76-12.53-.76c-1.4,0-4.22,0-7.29.13s-6.26.25-8.82.25c-1.66,0-2.56-.38-2.56-1.27,0-.65.51-1,2-1A20.64,20.64,0,0,0,597,537c2.56-.52,3.2-3.33,3.71-7,.64-5.37.64-15.47.64-27.23Zm16,14.06c0,13.56.13,23.41.26,25.84.13,3.2.38,8.31,1.41,9.72,1.66,2.43,6.65,5.11,16.75,5.11,13,0,21.74-2.56,29.41-9.2,8.19-7,10.74-18.68,10.74-31.85,0-16.24-6.78-26.73-12.28-32-11.76-11.25-26.34-12.79-36.31-12.79-2.56,0-7.29.39-8.31.9a2.32,2.32,0,0,0-1.54,2.56c-.13,4.34-.13,15.47-.13,25.57Z" transform="translate(-9 -10.12)"/>
    <path fill="#002d62" d="M719.78,480.23c0-19.44,0-23-.26-27.11-.26-4.35-1.28-6.4-5.5-7.29a25.89,25.89,0,0,0-5-.39c-1.41,0-2.17-.25-2.17-1.14s.89-1.15,2.82-1.15c3.44,0,7.15.12,10.35.12s6.27.26,8.06.26c4.09,0,29.53,0,32-.13a48.06,48.06,0,0,0,5.49-.77,13.06,13.06,0,0,1,2.05-.51c.64,0,.77.51.77,1.15a81,81,0,0,0-1,8.31c-.13,1.28-.39,6.91-.65,8.45-.12.63-.38,1.4-1.28,1.4s-1.15-.64-1.15-1.79a13.66,13.66,0,0,0-.76-4.6c-.9-2.3-2.18-3.84-8.57-4.61-2.18-.25-15.6-.51-18.16-.51-.64,0-.89.39-.89,1.28v32.36c0,.89.12,1.4.89,1.4,2.81,0,17.52,0,20.47-.25s5-.64,6.13-1.93c.89-1,1.41-1.66,2-1.66s.9.26.9,1-.51,2.81-1,9.33c-.13,2.56-.51,7.67-.51,8.57s0,2.43-1.15,2.43a1,1,0,0,1-1.15-1.15,33.31,33.31,0,0,0-.52-4.61c-.64-2.55-2.42-4.47-7.16-5-2.43-.26-15.09-.38-18.15-.38-.65,0-.77.51-.77,1.27v10.11c0,4.34-.13,16.11,0,19.81.25,8.83,2.3,10.75,15.34,10.75,3.33,0,8.7,0,12-1.54s4.86-4.22,5.76-9.46c.25-1.41.51-1.92,1.4-1.92s1,1,1,2.31a100.17,100.17,0,0,1-1.67,14.19c-.89,3.32-2,3.32-6.9,3.32-9.59,0-16.63-.25-22.12-.38s-9.46-.38-13.3-.38c-1.41,0-4.22,0-7.29.13s-6.27.25-8.83.25c-1.65,0-2.55-.38-2.55-1.27,0-.65.51-1,2.05-1a20.54,20.54,0,0,0,4.59-.51c2.56-.52,3.21-3.33,3.71-7,.65-5.37.65-15.47.65-27.23Z" transform="translate(-9 -10.12)"/>
    <path fill="#002d62" d="M839,480.23c0-19.44,0-23-.25-27.11-.25-4.35-1.53-6.52-4.35-7.16a17.84,17.84,0,0,0-4.6-.52c-1.28,0-2-.25-2-1.28,0-.76,1-1,3.08-1,4.85,0,12.91.38,16.62.38,3.19,0,10.74-.38,15.6-.38,1.66,0,2.68.25,2.68,1,0,1-.77,1.28-2,1.28a21.35,21.35,0,0,0-3.84.39c-3.45.64-4.47,2.81-4.73,7.29-.26,4.09-.26,7.67-.26,27.11v22.51c0,12.4,0,22.5.52,28,.38,3.45,1.28,5.75,5.11,6.27a53,53,0,0,0,6.52.51c1.41,0,2,.38,2,1,0,.89-1,1.27-2.43,1.27-8.44,0-16.5-.38-20-.38-2.94,0-11,.38-16.11.38-1.67,0-2.56-.38-2.56-1.27,0-.65.51-1,2-1a20.6,20.6,0,0,0,4.61-.51c2.56-.52,3.32-2.69,3.71-6.4.63-5.37.63-15.47.63-27.87Z" transform="translate(-9 -10.12)"/>
    <path fill="#002d62" d="M888,538.29c-2.05-.9-2.43-1.54-2.43-4.35,0-7,.51-14.71.64-16.75s.51-3.33,1.53-3.33S889,515,889,516a27.37,27.37,0,0,0,1.15,6.51c2.82,9.47,10.36,12.92,18.29,12.92,11.51,0,17.14-7.8,17.14-14.58,0-6.26-1.92-12.14-12.54-20.46l-5.88-4.6c-14.06-11-18.92-19.95-18.92-30.3,0-14.07,11.76-24.18,29.54-24.18a61.55,61.55,0,0,1,17,2.18c1.15.26,1.79.63,1.79,1.54,0,1.65-.51,5.36-.51,15.34,0,2.81-.38,3.84-1.41,3.84s-1.28-.77-1.28-2.31A15.44,15.44,0,0,0,930,453.5c-1.92-2.43-5.63-6.26-13.94-6.26-9.46,0-15.21,5.5-15.21,13.17,0,5.88,2.94,10.36,13.55,18.41l3.58,2.69c15.47,11.63,21,20.46,21,32.61a25.77,25.77,0,0,1-12,22.25c-6.39,4.09-13.55,5.24-20.33,5.24C899.2,541.61,893.45,540.72,888,538.29Z" transform="translate(-9 -10.12)"/>
    <path fill="#002d62" d="M985.4,502.74c0,16.36,0,25.19,2.68,27.49,2.18,1.92,5.5,2.81,15.47,2.81,6.79,0,11.77-.13,15-3.58a16.11,16.11,0,0,0,3.33-7.67c.12-1.15.38-1.92,1.4-1.92s1,.64,1,2.18-.89,11-1.91,14.7c-.77,2.82-1.41,3.45-8.06,3.45-9.21,0-15.86-.25-21.61-.38s-10.36-.38-15.6-.38c-1.41,0-4.22,0-7.29.13s-6.27.25-8.83.25c-1.65,0-2.55-.38-2.55-1.27,0-.65.51-1,2.05-1a20.54,20.54,0,0,0,4.59-.51c2.56-.52,3.21-3.33,3.71-7,.65-5.37.65-15.47.65-27.23V480.23c0-19.44,0-23-.26-27.11-.26-4.35-1.28-6.4-5.5-7.29a18.74,18.74,0,0,0-4.22-.39c-1.41,0-2.18-.25-2.18-1.14s.9-1.15,2.82-1.15c6,0,14.06.38,17.52.38,3.07,0,12.4-.38,17.39-.38,1.79,0,2.69.25,2.69,1.15s-.77,1.14-2.3,1.14a33.45,33.45,0,0,0-5,.39c-3.46.64-4.48,2.81-4.74,7.29-.25,4.09-.25,7.67-.25,27.11Z" transform="translate(-9 -10.12)"/>
    <path fill="#002d62" d="M1054.46,506.45c-.64,0-.9.25-1.15,1l-6.91,18.29a24.63,24.63,0,0,0-1.91,7.8c0,2.3,1.15,4,5.11,4h1.92c1.53,0,1.92.25,1.92,1,0,1-.77,1.27-2.18,1.27-4.09,0-9.59-.38-13.56-.38-1.4,0-8.43.38-15.08.38-1.67,0-2.43-.25-2.43-1.27,0-.78.51-1,1.54-1s2.93-.13,4-.25c5.88-.78,8.31-5.12,10.86-11.51l32.1-80.32c1.54-3.7,2.3-5.11,3.58-5.11s1.92,1.15,3.2,4.09c3.07,7,23.53,59.21,31.71,78.65,4.86,11.51,8.57,13.3,11.26,13.94a28.3,28.3,0,0,0,5.37.51c1,0,1.66.13,1.66,1s-1.15,1.27-5.88,1.27-13.94,0-24.17-.25c-2.3-.13-3.84-.13-3.84-1s.52-1,1.79-1.16a2.08,2.08,0,0,0,1.15-2.94l-10.22-27.11a1.24,1.24,0,0,0-1.29-.89Zm26.09-6.4c.63,0,.76-.38.63-.77l-11.51-31.58c-.12-.52-.25-1.15-.63-1.15s-.65.63-.77,1.15l-11.76,31.45c-.13.52,0,.9.5.9Z" transform="translate(-9 -10.12)"/>
    <path fill="#002d62" d="M1146,522.43c.26,10,1.92,13.3,4.48,14.19a20.2,20.2,0,0,0,6.64.9c1.41,0,2.18.25,2.18,1,0,1-1.15,1.27-2.94,1.27-8.31,0-13.43-.38-15.86-.38-1.15,0-7.16.38-13.81.38-1.66,0-2.81-.12-2.81-1.27,0-.78.77-1,2-1a22.64,22.64,0,0,0,5.75-.64c3.33-1,3.84-4.73,4-15.86l1.15-75.7c0-2.56.38-4.35,1.66-4.35s2.56,1.66,4.73,4c1.54,1.66,21,22.5,39.65,41.05,8.7,8.69,26,27.1,28.13,29.15h.64l-1.28-57.41c-.13-7.81-1.28-10.24-4.35-11.51-1.92-.78-5-.78-6.77-.78-1.54,0-2-.37-2-1.14,0-1,1.4-1.15,3.33-1.15,6.65,0,12.78.38,15.47.38,1.41,0,6.26-.38,12.53-.38,1.66,0,2.94.12,2.94,1.15,0,.77-.77,1.14-2.3,1.14a13.72,13.72,0,0,0-3.84.39c-3.58,1-4.6,3.71-4.73,10.87l-1.41,80.69c0,2.81-.51,4-1.66,4-1.4,0-2.94-1.41-4.34-2.81-8.06-7.68-24.43-24.43-37.73-37.6-13.94-13.81-28.14-29.8-30.44-32.23h-.38Z" transform="translate(-9 -10.12)"/>
    <path fill="#002d62" d="M1256.15,480.23c0-19.44,0-23-.26-27.11-.26-4.35-1.28-6.4-5.5-7.29a25.85,25.85,0,0,0-5-.39c-1.41,0-2.18-.25-2.18-1.14s.89-1.15,2.81-1.15c6.78,0,14.84.38,18.42.38,4,0,12-.38,19.69-.38,16,0,37.34,0,51.28,14.58,6.39,6.64,12.4,17.25,12.4,32.47,0,16.12-6.78,28.39-13.93,35.68-5.89,6-19.19,15.09-42.85,15.09-4.6,0-9.84-.38-14.7-.77s-9.34-.76-12.53-.76c-1.41,0-4.22,0-7.29.13s-6.27.25-8.83.25c-1.66,0-2.55-.38-2.55-1.27,0-.65.51-1,2-1a20.67,20.67,0,0,0,4.61-.51c2.56-.52,3.19-3.33,3.71-7,.64-5.37.64-15.47.64-27.23Zm16,14.06c0,13.56.13,23.41.26,25.84.13,3.2.38,8.31,1.4,9.72,1.66,2.43,6.65,5.11,16.76,5.11,13,0,21.74-2.56,29.41-9.2,8.18-7,10.74-18.68,10.74-31.85,0-16.24-6.78-26.73-12.28-32-11.77-11.25-26.34-12.79-36.32-12.79-2.56,0-7.28.39-8.31.9a2.31,2.31,0,0,0-1.53,2.56c-.13,4.34-.13,15.47-.13,25.57Z" transform="translate(-9 -10.12)"/>
    <path fill="#002d62" d="M45.55,19.16l-19.25.51c-7.49.26-10.58.91-12.52,3.75a15.49,15.49,0,0,0-2.2,4.52c-.25,1-.64,1.55-1.42,1.55S9,28.85,9,27.43c0-2.07,2.45-13.82,2.71-14.86.39-1.67.78-2.45,1.55-2.45,1,0,2.33,1.29,5.55,1.55,3.75.39,8.66.65,12.92.65H82.87a61.53,61.53,0,0,0,8.91-.65A30.8,30.8,0,0,1,95.27,11c.9,0,1,.78,1,2.72,0,2.71-.39,11.62-.39,15-.13,1.29-.39,2.06-1.16,2.06-1,0-1.29-.64-1.42-2.58l-.13-1.42c-.26-3.36-3.74-7-15.24-7.23l-16.27-.39v53c0,11.88,0,22.08.65,27.63.38,3.62,1.16,6.46,5,7a54.13,54.13,0,0,0,6.59.51c1.42,0,2.07.39,2.07,1,0,.9-1,1.29-2.46,1.29-8.52,0-16.66-.39-20.28-.39-3,0-11.1.39-16.27.39-1.68,0-2.58-.39-2.58-1.29,0-.65.52-1,2.07-1a21,21,0,0,0,4.64-.51c2.59-.52,3.36-3.36,3.75-7.11.65-5.42.65-15.62.65-27.5Z" transform="translate(-9 -10.12)"/>
    <path fill="#002d62" d="M186.31,53a.79.79,0,0,0,.78-.9V49.38c0-19.63,0-23.25-.26-27.38-.26-4.39-1.29-6.46-5.56-7.36a26.28,26.28,0,0,0-5-.39c-1.42,0-2.2-.26-2.2-1.16s.91-1.16,2.72-1.16c7,0,15.1.39,18.59.39,3.1,0,11.24-.39,16.27-.39,1.81,0,2.71.26,2.71,1.16s-.77,1.16-2.32,1.16a22.69,22.69,0,0,0-3.74.39c-3.49.65-4.52,2.84-4.78,7.36-.26,4.13-.26,7.75-.26,27.38V72.11c0,11.88,0,22.08.65,27.63.38,3.62,1.16,6.46,5,7a54.13,54.13,0,0,0,6.59.51c1.42,0,2.07.39,2.07,1,0,.9-1,1.29-2.59,1.29-8.39,0-16.53-.39-20.15-.39-3,0-11.1.39-16.14.39-1.81,0-2.71-.39-2.71-1.29,0-.65.52-1,2.07-1a21,21,0,0,0,4.64-.51c2.59-.52,3.24-3.36,3.75-7.11.65-5.42.65-15.62.65-27.5V60.74a.75.75,0,0,0-.78-.77H137a.68.68,0,0,0-.78.77V72.11c0,11.88,0,22.08.65,27.63.39,3.62,1.16,6.46,5,7a54,54,0,0,0,6.58.51c1.42,0,2.07.39,2.07,1,0,.9-1,1.29-2.58,1.29-8.4,0-16.53-.39-20.15-.39-3,0-11.11.39-16.27.39-1.68,0-2.58-.39-2.58-1.29,0-.65.51-1,2.06-1a21,21,0,0,0,4.65-.51c2.58-.52,3.23-3.36,3.75-7.11.64-5.42.64-15.62.64-27.5V49.38c0-19.63,0-23.25-.25-27.38-.26-4.39-1.3-6.46-5.56-7.36a26.39,26.39,0,0,0-5-.39c-1.42,0-2.19-.26-2.19-1.16s.9-1.16,2.71-1.16c7,0,15.11.39,18.6.39,3.1,0,11.23-.39,16.27-.39,1.81,0,2.71.26,2.71,1.16s-.77,1.16-2.32,1.16a22.8,22.8,0,0,0-3.75.39c-3.48.65-4.52,2.84-4.78,7.36-.26,4.13-.26,7.75-.26,27.38v2.71a.79.79,0,0,0,.78.9Z" transform="translate(-9 -10.12)"/>
    <path fill="#002d62" d="M245.59,49.38c0-19.63,0-23.25-.26-27.38-.26-4.39-1.29-6.46-5.55-7.36a26.47,26.47,0,0,0-5-.39c-1.42,0-2.19-.26-2.19-1.16s.9-1.16,2.84-1.16c3.48,0,7.23.13,10.46.13s6.32.26,8.13.26c4.13,0,29.83,0,32.29-.13a51.14,51.14,0,0,0,5.55-.78,12,12,0,0,1,2.07-.51c.64,0,.77.51.77,1.16a80.41,80.41,0,0,0-1,8.39c-.13,1.29-.39,7-.65,8.52-.12.65-.39,1.43-1.29,1.43s-1.16-.65-1.16-1.81a13.76,13.76,0,0,0-.78-4.65c-.9-2.32-2.19-3.87-8.65-4.65-2.2-.26-15.75-.52-18.33-.52-.65,0-.91.39-.91,1.3V52.73c0,.91.13,1.43.91,1.43,2.84,0,17.69,0,20.66-.26s5-.65,6.19-1.94c.91-1,1.42-1.68,2.07-1.68s.9.26.9,1-.51,2.85-1,9.43c-.12,2.59-.52,7.75-.52,8.66s0,2.45-1.16,2.45a1,1,0,0,1-1.16-1.17A33.86,33.86,0,0,0,288.2,66c-.64-2.59-2.45-4.52-7.23-5-2.45-.26-15.24-.39-18.33-.39-.65,0-.78.52-.78,1.3v10.2c0,4.39-.13,16.27,0,20,.26,8.91,2.33,10.85,15.5,10.85,3.36,0,8.78,0,12.14-1.55s4.91-4.26,5.81-9.55c.26-1.42.52-1.94,1.42-1.94s1,1,1,2.32a100.67,100.67,0,0,1-1.68,14.34c-.9,3.36-2.07,3.36-7,3.36-9.69,0-16.79-.26-22.34-.39s-9.56-.39-13.43-.39c-1.42,0-4.26,0-7.36.13s-6.33.26-8.92.26c-1.67,0-2.58-.39-2.58-1.29,0-.65.52-1,2.07-1a21.15,21.15,0,0,0,4.65-.51c2.58-.52,3.23-3.36,3.74-7.11.65-5.42.65-15.62.65-27.5Z" transform="translate(-9 -10.12)"/>
  </g>
</svg>
