<?xml version="1.0" encoding="UTF-8"?>
<svg width="162px" height="29px" viewBox="0 0 162 29" version="1.1" xmlns="http://www.w3.org/2000/svg" xmlns:xlink="http://www.w3.org/1999/xlink">
    <!-- Generator: Sketch 46.2 (44496) - http://www.bohemiancoding.com/sketch -->
    <title>logo</title>
    <desc>Created with Sketch.</desc>
    <defs></defs>
    <g id="Designs-v2" stroke="none" stroke-width="1" fill="none" fill-rule="evenodd">
        <g id="Page-1-Features" transform="translate(-17.000000, -1769.000000)" fill="#FEFEFE">
            <g id="Group-8" transform="translate(0.000000, 1727.000000)">
                <g id="logo" transform="translate(17.000000, 42.000000)">
                    <path d="M7.21320851,13.8310476 L7.21320851,22.7654524 C7.21320851,25.5117591 7.74598427,26.4536688 10.7378572,26.4133135 C14.1805073,26.4133135 17.0903817,24.6917738 17.0903817,20.3475692 C17.0903817,15.8801521 13.8117286,13.8310476 9.59030713,13.8310476 L7.21320851,13.8310476 Z M7.21320851,12.6422837 L9.7955181,12.6422837 C13.7297301,12.6422837 15.6968361,10.7983901 15.6968361,7.43773851 C15.6968361,4.97864137 14.6724985,2.23276404 9.83630271,2.23276404 C8.48354169,2.23276404 7.90998132,2.35597648 7.58198722,2.4783303 C7.33642096,2.56075814 7.21320851,2.72432588 7.21320851,3.54431114 L7.21320851,12.6422837 Z M11.229419,1.04442939 C14.1805073,1.04442939 15.8608331,1.53556192 17.2131648,2.4783303 C18.6067104,3.46231261 19.3446972,4.93785676 19.3446972,6.98696127 C19.3446972,10.5931791 15.9428316,12.3555035 13.9757257,12.8474946 L13.9757257,12.9294932 C17.705156,13.4622689 21.0658076,15.6753705 21.0658076,19.8147934 C21.0658076,22.7246678 19.6314774,24.773343 17.2543787,26.1265333 C15.1644896,27.2740834 12.5413954,27.684076 9.42631008,27.684076 L-8.58623304e-05,27.684076 L-8.58623304e-05,26.7413076 C3.44299359,26.4948827 3.77055838,26.2085319 3.77055838,21.7411148 L3.77055838,6.98696127 C3.72977377,2.51954422 3.48377819,2.23276404 0.245909714,1.98676846 L0.245909714,1.04442939 L11.229419,1.04442939 Z" id="Fill-1"></path>
                    <path d="M35.3283134,14.7739448 L37.705412,14.7739448 C39.3861672,14.7739448 40.6972849,14.5687338 41.8040504,13.6671794 C43.566804,12.2736337 44.1815783,10.2657432 44.1815783,8.25742324 C44.1815783,3.95357393 41.066493,2.23289283 37.9926215,2.23289283 C36.5986466,2.23289283 36.0255155,2.31489136 35.6975214,2.43767449 C35.4515259,2.51967302 35.3283134,2.72445467 35.3283134,3.54401062 L35.3283134,14.7739448 Z M35.3283134,21.7412436 C35.3283134,26.2086607 35.6563075,26.4950115 39.0169591,26.7414364 L39.0169591,27.6837755 L28.1154484,27.6837755 L28.1154484,26.7414364 C31.5576692,26.4950115 31.8856633,26.2086607 31.8856633,21.7412436 L31.8856633,6.98666075 C31.8856633,2.51967302 31.5576692,2.23289283 28.2794454,1.98689726 L28.2794454,1.04455818 L38.6898237,1.04455818 C41.3124885,1.04455818 43.6488026,1.41247827 45.164702,2.43767449 C46.8042432,3.46201209 47.8693654,5.30633495 47.8693654,7.68343357 C47.8693654,11.0852991 45.7794763,13.5031823 42.4600386,14.855514 C43.1967374,16.0854919 44.8779218,18.9133678 46.1078997,20.716906 C47.5825852,22.8883643 48.4433551,23.9951298 49.5501205,25.2246784 C50.4104611,26.249016 51.1480185,26.9050042 52.6239919,27.2742122 L52.5415641,28.0529835 L51.9684331,28.0529835 C47.2545911,27.9293418 45.8202609,26.4950115 44.2631475,24.2411254 C42.9919557,22.3968025 41.2712746,19.3637157 40.1237246,17.4373943 C39.4681657,16.3722721 38.8117482,15.9622795 37.541415,15.9622795 L35.3283134,15.9622795 L35.3283134,21.7412436 Z" id="Fill-4"></path>
                    <path d="M70.4270739,1.78160042 C65.5900195,1.78160042 61.4926691,5.75745563 61.4926691,13.4623119 C61.4926691,21.3715204 65.6316628,26.9461322 71.6158379,26.9461322 C76.5336028,26.9461322 80.5498133,23.1347034 80.5498133,15.5114164 C80.5498133,6.65858079 76.287178,1.78160042 70.4270739,1.78160042 M84.5256686,13.9955169 C84.5256686,22.5194998 78.5831367,28.2984639 70.755068,28.2984639 C63.0089979,28.2984639 57.5172432,22.3967166 57.5172432,14.6506465 C57.5172432,7.76534623 62.3525804,0.429268721 71.4926254,0.429268721 C78.5831367,0.429268721 84.5256686,5.92145268 84.5256686,13.9955169" id="Fill-6"></path>
                    <path d="M98.5335497,1.98685433 L97.2623579,2.15085138 C95.4184643,2.39684695 95.1733274,2.76519635 95.7464584,4.5687346 L101.279427,22.0279809 L101.361426,22.0279809 L107.918732,1.45407857 L108.902285,1.45407857 L116.321219,21.9871963 L116.402789,21.9871963 C118.082685,16.8230064 120.459354,8.17495248 121.156556,5.22429349 C121.730975,2.84719488 121.526194,2.35563303 119.681442,2.15085138 L118.492678,1.98685433 L118.492678,1.04451525 L127.181087,1.04451525 L127.181087,1.98685433 C124.476853,2.31484843 124.189214,2.47841617 122.836882,6.2082758 C122.467674,7.23304271 119.476231,16.6590093 116.034439,27.9292988 L114.927674,27.9292988 L107.549524,7.8886016 L107.467954,7.97017082 L100.787865,27.9292988 L99.6398858,27.9292988 L92.5502332,5.92149562 C91.4430384,2.51963009 90.8286934,2.2328499 88.4923794,1.98685433 L88.4923794,1.04451525 L98.5335497,1.04451525 L98.5335497,1.98685433 Z" id="Fill-9"></path>
                    <path d="M157.440646,27.9702552 L156.374236,27.9702552 L138.586996,6.37201526 L138.505427,6.37201526 L138.505427,16.8227488 C138.505427,21.1265981 138.669424,23.3396997 138.83385,24.6100329 C139.039061,26.0443631 140.144968,26.6183528 142.849631,26.7415652 L142.849631,27.6839043 L133.013672,27.6839043 L133.013672,26.7415652 C135.267988,26.6587081 136.333539,26.0443631 136.538321,24.6100329 C136.702747,23.3396997 136.866315,21.1265981 136.866315,16.8227488 L136.866315,7.92912862 C136.866315,4.97846964 136.824672,4.32248144 136.088402,3.38057167 C135.308343,2.39658937 134.202007,2.10980918 132.480467,1.98702605 L132.480467,1.04425766 L138.464213,1.04425766 L155.719107,21.7001585 L155.801105,21.7001585 L155.801105,11.9049838 C155.801105,7.60199315 155.636679,5.38803296 155.473111,4.11769978 C155.2679,2.68336955 154.161135,2.10980918 151.456901,1.98702605 L151.456901,1.04425766 L161.29286,1.04425766 L161.29286,1.98702605 C159.038544,2.06859526 157.972564,2.68336955 157.768211,4.11769978 C157.604214,5.38803296 157.440646,7.60199315 157.440646,11.9049838 L157.440646,27.9702552 Z" id="Fill-11"></path>
                </g>
            </g>
        </g>
    </g>
</svg>