
<svg class="brown-logo-color" version="1.1" id="Layer_1" xmlns="http://www.w3.org/2000/svg" xmlns:xlink="http://www.w3.org/1999/xlink" x="0px" y="0px"
	 viewBox="0 0 576 287" style="enable-background:new 0 0 576 287;" xml:space="preserve">
<style type="text/css">
	.st0{display:none;}
	.st1{display:inline;stroke:#000000;stroke-width:0.75;stroke-miterlimit:10;}
	.st2{stroke:#000000;stroke-width:0.75;stroke-miterlimit:10;}
	.st3{fill:#FFFFFF;}
	.st4{fill:#ED1C24;}
</style>
<g id="Brown_Horizontal">
	<g class="st0">
		<path class="st1" d="M215.9,143.5v21.1c0,6.5,1.3,8.7,8.3,8.6c8.1,0,15-4.1,15-14.3c0-10.6-7.8-15.4-17.7-15.4L215.9,143.5
			L215.9,143.5z M215.9,140.7h6.1c9.3,0,13.9-4.4,13.9-12.3c0-5.8-2.4-12.3-13.9-12.3c-3.2,0-4.5,0.3-5.3,0.6
			c-0.6,0.2-0.9,0.6-0.9,2.5L215.9,140.7L215.9,140.7z M225.4,113.2c7,0,10.9,1.2,14.1,3.4c3.3,2.3,5,5.8,5,10.6
			c0,8.5-8,12.7-12.7,13.9v0.2c8.8,1.3,16.8,6.5,16.8,16.3c0,6.9-3.4,11.7-9,14.9c-5,2.7-11.1,3.7-18.5,3.7h-22.3V174
			c8.2-0.6,8.9-1.3,8.9-11.8v-34.9c-0.1-10.6-0.7-11.2-8.3-11.8v-2.2L225.4,113.2L225.4,113.2z"/>
		<path class="st1" d="M282.4,145.7h5.6c4,0,7.1-0.5,9.7-2.6c4.2-3.3,5.6-8,5.6-12.8c0-10.2-7.4-14.2-14.6-14.2
			c-3.3,0-4.7,0.2-5.4,0.5c-0.6,0.2-0.9,0.7-0.9,2.6L282.4,145.7L282.4,145.7z M282.4,162.2c0,10.5,0.8,11.2,8.7,11.8v2.2h-25.8V174
			c8.1-0.6,8.9-1.3,8.9-11.8v-34.9c0-10.6-0.8-11.2-8.5-11.8v-2.2h24.6c6.2,0,11.7,0.9,15.3,3.3c3.9,2.4,6.4,6.8,6.4,12.4
			c0,8-4.9,13.8-12.8,17c1.8,2.9,5.7,9.6,8.6,13.9c3.5,5.1,5.5,7.7,8.1,10.7c2,2.4,3.8,4,7.3,4.8l-0.2,1.8h-1.4
			c-11.1-0.3-14.5-3.7-18.2-9c-3-4.4-7.1-11.5-9.8-16.1c-1.5-2.5-3.1-3.5-6.1-3.5h-5.2v13.6H282.4z"/>
		<path class="st1" d="M364.4,115c-11.4,0-21.1,9.4-21.1,27.6c0,18.7,9.8,31.9,23.9,31.9c11.6,0,21.1-9,21.1-27
			C388.3,126.5,378.2,115,364.4,115 M397.7,143.9c0,20.2-14,33.8-32.5,33.8c-18.3,0-31.3-14-31.3-32.3c0-16.3,11.4-33.6,33-33.6
			C383.6,111.8,397.7,124.8,397.7,143.9"/>
		<path class="st1" d="M431.8,115.5l-3,0.4c-4.4,0.6-4.9,1.4-3.6,5.7l13.1,41.3h0.2l15.5-48.6h2.3l17.5,48.5h0.2
			c4-12.2,9.6-32.7,11.2-39.6c1.3-5.6,0.8-6.8-3.5-7.3l-2.8-0.4v-2.2h20.5v2.2c-6.4,0.8-7.1,1.2-10.3,10
			c-0.9,2.4-7.9,24.7-16.1,51.3h-2.6L453,129.4l-0.2,0.2L437,176.8h-2.7l-16.8-52c-2.6-8-4.1-8.7-9.6-9.3v-2.2h23.7v2.2H431.8z"/>
		<path class="st1" d="M570,176.9h-2.5l-42.1-51.1h-0.2v24.7c0,10.2,0.4,15.4,0.8,18.4c0.5,3.4,3.1,4.7,9.5,5v2.2h-23.3V174
			c5.3-0.2,7.8-1.6,8.3-5c0.4-3,0.8-8.2,0.8-18.4v-21c0-7-0.1-8.5-1.8-10.8c-1.9-2.3-4.5-3-8.5-3.3v-2.2h14.1l40.8,48.8h0.2v-23.2
			c0-10.2-0.4-15.4-0.8-18.4c-0.5-3.4-3.1-4.7-9.5-5v-2.2H579v2.2c-5.3,0.2-7.8,1.6-8.3,5c-0.4,3-0.8,8.2-0.8,18.4L570,176.9
			L570,176.9z"/>
	</g>
	<g>
		<path class="st2" d="M216.9,143.7v20.9c0,6.4,1.3,8.6,8.3,8.5c8.1,0,14.9-4,14.9-14.2c0-10.5-7.7-15.3-17.6-15.3h-5.6L216.9,143.7
			L216.9,143.7z M216.9,140.9h6.1c9.2,0,13.8-4.3,13.8-12.2c0-5.8-2.4-12.2-13.7-12.2c-3.2,0-4.5,0.3-5.3,0.6
			c-0.6,0.2-0.9,0.6-0.9,2.5L216.9,140.9L216.9,140.9z M226.3,113.7c6.9,0,10.9,1.2,14,3.4c3.3,2.3,5,5.8,5,10.6
			c0,8.5-8,12.6-12.6,13.7v0.2c8.7,1.2,16.6,6.4,16.6,16.1c0,6.8-3.4,11.6-8.9,14.8c-4.9,2.7-11.1,3.7-18.3,3.7H200V174
			c8.1-0.6,8.8-1.3,8.8-11.7v-34.6c-0.1-10.5-0.7-11.1-8.3-11.7v-2.2h25.8V113.7z"/>
		<path class="st2" d="M282.8,145.9h5.6c3.9,0,7-0.5,9.6-2.6c4.1-3.3,5.6-8,5.6-12.7c0-10.1-7.3-14.1-14.5-14.1
			c-3.3,0-4.6,0.2-5.4,0.5c-0.6,0.2-0.9,0.7-0.9,2.6L282.8,145.9L282.8,145.9z M282.8,162.2c0,10.5,0.8,11.1,8.7,11.7v2.2h-25.6
			v-2.2c8.1-0.6,8.8-1.3,8.8-11.7v-34.6c0-10.5-0.8-11.1-8.5-11.7v-2.2h24.4c6.1,0,11.6,0.9,15.2,3.3c3.8,2.4,6.3,6.7,6.3,12.3
			c0,8-4.9,13.6-12.7,16.8c1.7,2.9,5.7,9.5,8.5,13.7c3.5,5.1,5.5,7.7,8.1,10.6c2,2.4,3.7,3.9,7.2,4.8L323,177h-1.3
			c-11-0.3-14.4-3.7-18.1-8.9c-3-4.3-7-11.4-9.7-16c-1.5-2.5-3.1-3.4-6-3.4h-5.2v13.5L282.8,162.2L282.8,162.2z"/>
		<path class="st2" d="M364.1,115.4c-11.3,0-20.9,9.3-20.9,27.4c0,18.5,9.7,31.6,23.7,31.6c11.5,0,20.9-8.9,20.9-26.8
			C387.8,126.8,377.8,115.4,364.1,115.4 M397.1,144c0,20-13.9,33.5-32.3,33.5c-18.2,0-31-13.9-31-32c0-16.1,11.3-33.3,32.7-33.3
			C383.2,112.2,397.1,125.1,397.1,144"/>
		<path class="st2" d="M429.9,115.9l-3,0.4c-4.3,0.6-4.9,1.4-3.6,5.7l13,40.9h0.2l15.4-48.2h2.3l17.4,48.1h0.2
			c3.9-12.1,9.5-32.4,11.1-39.3c1.3-5.6,0.8-6.7-3.5-7.2l-2.8-0.4v-2.2H497v2.2c-6.3,0.8-7,1.2-10.2,9.9
			c-0.9,2.4-7.9,24.5-15.9,50.9h-2.6l-17.3-47l-0.2,0.2l-15.7,46.8h-2.7l-16.6-51.6c-2.6-8-4-8.6-9.5-9.2v-2.2h23.5v2.2L429.9,115.9
			L429.9,115.9z"/>
		<path class="st2" d="M567,176.8h-2.5l-41.7-50.6h-0.2v24.5c0,10.1,0.4,15.3,0.8,18.3c0.5,3.4,3.1,4.7,9.4,5v2.2h-23.1V174
			c5.3-0.2,7.8-1.6,8.3-5c0.4-3,0.8-8.2,0.8-18.3v-20.8c0-6.9-0.1-8.5-1.8-10.7c-1.8-2.3-4.4-3-8.4-3.3v-2.2h14l40.4,48.4h0.2v-23
			c0-10.1-0.4-15.3-0.8-18.2c-0.5-3.4-3.1-4.7-9.4-5v-2.2h23v2.2c-5.3,0.2-7.8,1.6-8.3,5c-0.4,3-0.8,8.2-0.8,18.2L567,176.8
			L567,176.8z"/>
	</g>
</g>
<g id="Shield_2_color_CMYK">
	<g>
		<g>
			<g>
				<g>
					<path class="st3" d="M58,38c0.3,0.5,0.7,1.2,1.3,2.1c1.5,2.5,3.9,12,6.9,15.1c1.6-1.1,4.4-2.5,6-3.1c-0.4-0.6-2.1-3.5-4-6
						c-3.6-4.8-6.3-7.4-6.6-7.8C60.7,38.4,59,38.4,58,38z"/>
					<path class="st3" d="M85.3,50.6c0.7-5-0.9-13.2-1.9-15.2c-1.2-0.3-2.5-0.7-3.6-1.3c-0.1,0.6-1.1,4-1.4,8.9
						c-0.2,2.6-0.1,6.7,0.4,7.6C80.4,50.5,83.1,50.4,85.3,50.6z"/>
					<path class="st3" d="M108.9,79.8c0-14.9-11.7-26.6-26.6-26.6c-14.7,0-26.6,11.9-26.6,26.6c0,0.7,0.2,2.1,0.4,3.6
						c7.6-1.8,17.8-1.5,22.3,2.1c7.3-4.2,17.8-4.4,25.5,0.1c1.5-0.8,3.1-1.3,4.7-1.8C108.8,82.3,108.9,80.8,108.9,79.8z M76.5,70.7
						c-0.1,1.7-1.5,3-3.2,2.9s-3-1.5-2.9-3.2v-0.3c-0.3-0.4-1.7-0.9-3.7,0.4c-1,0.6-2.2,0.2-0.4-1.4c1.9-1.7,3.7-2.6,5.3-2.8h0.1
						c2.7-0.2,6.2,0.4,7.8,1c0.7,0.3,0,3.6-0.2,3.6c-0.6-0.1-1.8-0.6-2.8-0.4L76.5,70.7z M85.4,80c-0.5,1.6-6.1,2.1-7.2,0
						c-0.4-0.8-1-2.9-0.2-2.5c1.2,0.7,5.7,0.2,6.6,0c0.8-0.2,0.3-1.2,0.7-1.1C85.9,76.6,85.9,78.5,85.4,80z M98.5,71.3
						c-1.4-1.2-3.2-1.7-3.9-1.2v0.2c0.1,1.7-1.1,3.2-2.8,3.4c-1.7,0.2-3.2-1.1-3.3-2.8v-0.1c-1.1-0.4-2.9,0.3-3.1,0.2
						c-0.1-0.1-0.9-3.2,0.1-3.6c2.7-1.1,11.3-1.6,13.8,3.2C99.4,71.1,99.2,71.9,98.5,71.3z"/>
					<path class="st3" d="M100.1,37.7c-3.1,2.6-7.9,9.1-8.5,14.2c1.5,0.6,5.3,2.4,5.9,2.9c3.8-3.8,3.1-8,4.6-11.2
						c0.7-1.4,1.3-2.5,1.6-3.1C102.4,39.8,101.1,38.9,100.1,37.7z"/>
					<path class="st3" d="M118.7,47.9c-0.7,0.4-2.3,1.4-2.9,1.8c-3.7,2.8-11.7,6.5-13.5,8.6c1.5,1.3,3.6,3.6,4.6,5.6
						c0.9,0,3.5-2.1,8.6-8.1c1.6-1.9,3.4-2.9,6.6-4.7C120.8,50.1,119.7,49,118.7,47.9z"/>
					<path class="st3" d="M54.3,70.1c-1.7-1.7-5.2-3.2-9.6-2.8c-9.2,0.7-15.2,0.1-18.6-0.4c-5.9-0.8-9.6,0-12.6,0
						c-9,0,0.3,0.8,1.3,1.2c4.2,1.7,12.8,3.8,19.5,3.3c3.3-0.2,8.8,1.8,9.7,2.1c2.4,0.9,6.8,2.3,9.1,2.2
						C53.3,74.7,53.9,71.5,54.3,70.1z"/>
					<path class="st3" d="M61.7,58.9c-4.6-3.7-8.8-4.5-15.6-7.7c-1.5-0.7-4.1-2.4-4.2-2.5c-0.2-0.1-0.5-0.3-0.9-0.6
						c-0.4,1.3-1.2,3-1.9,3.9c1,1.4,8.6,10,18.2,12.6C58.3,62.8,60,60.7,61.7,58.9z"/>
					<path class="st3" d="M158.4,65.5c-0.5-0.1-2.2-0.3-3.3-0.3c-1.5,0-11,0.1-13.6,0.5c-5.3,0.8-15.7,0.4-21.3,0.2
						c-4.2-0.2-9.1,1.5-10.6,2.3c0,0,1.6,4.1,1.7,6.8c1.8,0.3,3.5-2,8.7-1.9c5.3,0.1,18.5-0.6,25.2-3.2c5-1.9,9.2-2.9,12.5-3.6
						C158.9,66.1,160.6,65.9,158.4,65.5z"/>
				</g>
				<path class="st3" d="M39.2,38.9c0.4-0.4,1-0.3,1.6-0.1c4.5,1.5,11,0.5,14-4.3c0.4-0.7,1.3-0.9,2-0.6c3.1,1.3,9.5,1.8,17.3-6
					c0.6-0.6,1.5-0.5,2.2,0c6.8,5.5,14,5.8,21.2,1c0.4-0.3,1-0.7,1.5-0.5s0.9,0.6,1,1.2c2.3,10.7,13.4,9.7,16.8,9.2
					c0.4-0.1,0.9,0,1.2,0.3c0.4,0.3,0.6,0.6,0.6,1.1c0.4,2.5,3.1,7.3,7.9,9.8c4.1,2.1,8.6,1.9,13.3-0.5c0.5-0.2,1-0.2,1.5,0
					c6,3.2,11.5,3.4,14.9,0.5c2.4-2,3.4-5.4,2.4-8.3c-1.1-3.2-4.3-5.3-8.8-5.5c-0.8,0-1.4-0.6-1.5-1.4c-0.4-2.6-1.9-4.7-4.2-6.1
					c-3.6-2.2-8.8-2.4-14-0.7c-0.5,0.2-1,0.1-1.4-0.2c-0.4-0.3-0.7-0.7-0.8-1.2c-0.3-2-1.2-4.7-3.7-6.2c-2.6-1.6-6.6-1.6-11.5,0.1
					c-0.8,0.3-1.6-0.1-2-0.8c-3.2-6-7.6-10-12.8-11.4C93.2,7.1,88,8,83.6,10.8c-0.6,0.4-1.3,0.3-1.9-0.1C77.3,7.4,72,6.3,67.2,7.8
					c-4.7,1.4-8.2,5.1-10,10.3c-0.1,0.4-0.5,0.8-0.9,0.9c-0.4,0.2-0.9,0.2-1.3,0c-7.2-2.9-13-2.8-16.9,0.2c-3.4,2.6-4.4,6.7-4.2,7.9
					c0.1,0.8-0.4,1.6-1.2,1.8L31,29.3c-4,0.9-8.1,1.8-9.3,8.2c-0.1,0.7-0.7,1.2-1.4,1.3C13.5,39.5,9,42.1,8,45.9
					c-0.7,2.7,0.6,5.7,3,7.3c2.5,1.7,5.4,1.5,8.1-0.5c0.4-0.3,1-0.4,1.5-0.2c4.1,1.5,10.6,1.2,14.6-2c2.9-2.3,4-5.7,3.4-10.1
					C38.5,39.8,38.7,39.3,39.2,38.9z M148.5,39.4c4.1-0.9,9,2,7.6,7.5c-0.2,0.9-2.5,1-2.5,0c0.4-4.6-1.9-5-5-4.9
					C147.5,42,147.6,39.6,148.5,39.4z M130.9,31.2c4-2.3,12.1-1.9,14.7,5.4c0.4,1.2-1.2,3.3-2.2,1.5c-3.1-5.6-8-5.6-12.1-4
					C130.3,34.4,129.5,32,130.9,31.2z M113.8,22.8c3.7-1.3,10-1.9,11.7,4.3c0.5,1.7-1.6,2.5-2.1,1.3c-1.7-4.5-4.9-4.3-8.8-3.1
					C112.8,26,113.2,23,113.8,22.8z M83.6,15.9c2.7-4.3,16.6-8.4,23.7,3.9c0.8,1.3-0.3,2.1-1.1,2.7c-0.6,0.4-0.9-0.5-1.3-1.1
					c-6.1-9.6-17-7.1-20-2.6C84.5,19.6,82.9,17.2,83.6,15.9z M61.2,16.6c2.4-3.9,10.8-9.8,18.3-3.3c0.8,0.7-0.2,3.4-1.1,2.8
					c-6.8-4.7-12.1-0.9-15,2.5C62,20.2,60.6,17.5,61.2,16.6z M21.1,43.7c-2.8,0-5.1,0.1-7.1,2.2c-2.1,2.3-1.6,3.6-2,4
					c-0.6,0.6-2.1-0.4-2-1.6c0.1-5.5,6.7-7.6,10.6-7.1C22,41.4,22.4,43.7,21.1,43.7z M32.6,34.5c-4.2,0.5-5.4,2.5-6.1,4.8
					c-0.3,0.9-2.6,0.2-2.3-1.5c1.1-5.1,6.7-6.4,8.7-5.9C33.6,32.1,33.4,34.4,32.6,34.5z M36.2,29c0.9-4.5,5.3-11.1,15.4-8.6
					c1.2,0.3,0.5,3.5-0.8,2.9c-7.4-2.9-11.1,2.7-12.3,7.1C38.3,31.1,35.8,30.9,36.2,29z"/>
				<g>
					<path class="st3" d="M15.7,84.6c-4.9-0.1-9,1.3-10.4,3.8C2.6,93,5.8,97,7.6,98.1c4.3,2.6,8.3,0.9,8.6-0.7
						c-1.2-1.3-3.2-4.3-4.3-4.3c-1.6,0-1.5-2.2-0.3-2.5c2.8-0.9,5.6,4.5,9.7,7.4c3.6,2.6,8.7,0.7,8.7-0.4
						C27.8,95.6,25.2,84.8,15.7,84.6z"/>
					<path class="st3" d="M113,97.3c3.4,3.4,8,2,8.2,0.8c-0.4-0.7-2.5-3.8-3.8-4.5c-1-0.6-1.7-1.5-1.1-2.3c0.9-1.3,2.8-0.4,4,1
						s4.4,5.7,5.6,6.3c3,1.6,9.5,1.1,9-0.9c-1.8-2.9-3.1-8.7-8.4-11.2c-5.6-2.6-12.8-2-19.4,0.4C108.2,89.5,111.3,95.6,113,97.3z"/>
					<path class="st3" d="M73.8,86.5c-5.6-2.6-13.5-1.8-20.2,0.6c1.8,2.5,4.9,8.2,6.5,10.1c3.1,3.7,8.3,1.8,8.5,0.7
						c-0.4-0.7-3.2-4.3-4.2-4.9s-1.6-1.5-1-2.2c0.9-1.3,3.1,0,4.3,1.4c1.2,1.4,4.5,5.6,5.6,6.3c3.3,2.2,9.5,1.1,9-0.8
						C80.1,94.9,79.1,89,73.8,86.5z"/>
				</g>
			</g>
			<g>
				<g>
					<path class="st3" d="M31.8,129.4c-4,0.1-7.9,1.7-10.2,1.3v26.6c0,0,1.4,1.1,5.4,0c5.2-1.5,7.5,0.1,7.5,0.1v-26.9
						C34.5,130.5,33.9,129.3,31.8,129.4z"/>
					<path class="st3" d="M46,240.8c4,1.1,5.4,0,5.4,0v-26.6c-2.3,0.4-6.2-1.2-10.2-1.3c-2.1-0.1-2.7,1.2-2.7,1.2V241
						C38.6,240.9,40.9,239.3,46,240.8z"/>
					<path class="st3" d="M132.8,129.4c-2.1-0.1-2.8,1.2-2.8,1.2v26.9c0,0,2.3-1.6,7.5-0.1c4,1.1,5.4,0,5.4,0v-26.6
						C140.7,131.1,136.8,129.5,132.8,129.4z"/>
					<path class="st3" d="M41.3,129.4c-2.1-0.1-2.7,1.2-2.7,1.2v26.9c0,0,2.3-1.6,7.5-0.1c4,1.1,5.4,0,5.4,0v-26.6
						C49.2,131.1,45.3,129.5,41.3,129.4z"/>
					<path class="st3" d="M34.5,240.9V214c0,0-0.6-1.2-2.7-1.2c-4,0.1-7.9,1.7-10.2,1.3v26.6c0,0,1.4,1.1,5.4,0
						C32.2,239.3,34.5,240.9,34.5,240.9z"/>
					<path class="st3" d="M130.6,214v26.9c0,0,2.3-1.6,7.5-0.1c4,1.1,5.4,0,5.4,0v-26.6c-2.3,0.4-6.2-1.2-10.1-1.3
						C131.1,212.8,130.6,214,130.6,214z"/>
					<path class="st3" d="M123.3,129.4c-4,0.1-7.9,1.7-10.2,1.3v26.6c0,0,1.4,1.1,5.4,0c5.2-1.5,7.5,0.1,7.5,0.1v-26.9
						C126,130.5,125.4,129.3,123.3,129.4z"/>
					<path class="st3" d="M113.6,214.2v26.6c0,0,1.4,1.1,5.4,0c5.2-1.5,7.5,0.1,7.5,0.1V214c0,0-0.6-1.2-2.7-1.2
						C119.8,213,115.9,214.6,113.6,214.2z"/>
				</g>
				<g>
					<path class="st3" d="M160.2,117.5H96.3v57.9h63.9L160.2,117.5L160.2,117.5z M150.6,163.6h-18.3v2.3h-7.6v-2.3h-18.3v-30.9h3.9
						v-5.6c4,1,10.5-1.2,13.3-1.2c3.2,0,4.9,1.4,4.9,1.4s1.7-1.4,4.9-1.4c2.9,0,9.4,2.2,13.3,1.2v5.6h3.9V163.6z"/>
					<path class="st3" d="M68.4,117.5h-64v57.9h63.9L68.4,117.5L68.4,117.5z M58.7,163.6H40.3v2.3h-7.6v-2.3H14.4v-30.9h3.9v-5.6
						c4,1,10.5-1.2,13.3-1.2c3.2,0,4.9,1.4,4.9,1.4s1.7-1.4,4.9-1.4c2.9,0,9.4,2.2,13.3,1.2v5.6h3.9L58.7,163.6L58.7,163.6z"/>
					<path class="st3" d="M96.3,279.1c16.1-4.7,32.1-10.9,42.9-20.8c3.8-3.5,7-7.1,9.7-11.1h-16.5v2.3h-7.6v-2.3h-18.3v-30.9h3.9
						v-5.6c4,1,10.4-1.2,13.3-1.2c3.2,0,4.9,1.4,4.9,1.4s1.7-1.4,4.9-1.4c2.9,0,9.4,2.2,13.3,1.2v5.6h3.9v28
						c5.9-10.2,8.7-22.6,9.6-40.1l-0.1-2.6H96.3V279.1z"/>
					<path class="st3" d="M14.4,243.9v-27.7h3.9v-5.6c4,1,10.4-1.2,13.3-1.2c3.2,0,4.9,1.4,4.9,1.4s1.7-1.4,4.9-1.4
						c2.9,0,9.4,2.2,13.3,1.2v5.6h3.9v30.9H40.3v2.3h-7.6v-2.3H16.4c2.6,4,5.7,7.6,9.3,11c10.2,9.5,26.2,16,42.6,20.8v-77.6H4.4
						l0.1,2.5C5.2,219.9,8.2,233,14.4,243.9z"/>
				</g>
			</g>
		</g>
		<g>
			<g>
				<path d="M167.3,63.9c-1-0.7-11.1-2-12.7-2c-1.5,0-10.3,0.1-13.7,0.6c-5.3,0.8-14.3,0.8-21.1,0c-2.5-0.3-5.2,0.3-7.5,1
					c0.4-0.4,0.9-0.8,1.5-1.4c2-2.1,4.3-6,8.3-8c1-0.5,2-1,2.9-1.5c3.4,1.7,8.7,2.8,15.3-0.3c9.8,4.9,15.7,1.6,17.8-0.2
					c2.5-2.1,4-5.3,4-8.5c0-1.1-0.2-2.2-0.5-3.3c-1.4-4.3-5.3-7-10.7-7.6c-0.3-1.1-0.8-2.2-1.4-3.2c0.6-0.8,1.2-1.5,1.6-2
					c0.5-0.6,2.1-3.3-2.2-1c-0.2,0.1-0.6,0.3-1.2,0.6c-0.6-0.6-1.3-1.2-2-1.6c-4-2.5-9.5-2.8-15.1-1.3c-0.8-3-2.3-5.5-4.6-7
					c-2.5-1.5-5.6-2-9.3-1.4c0.2-0.5,0.4-1,0.6-1.4c1.6-3.4,0.8-4.3-1-2.8c-1.9,1.7-3.2,2.9-4.1,3.9c-3.5-5.6-8.1-9.3-13.5-10.8
					C94,3.5,88.9,4.1,84.4,6.3C84.1,4,83.8,2.1,83.5,1c-0.9-2.8-1.9-0.6-2,0.3c-0.2,1.2-0.5,2.8-0.8,4.6c-4.6-2.4-9.6-3.1-14.4-1.7
					c-5.2,1.6-9.2,5.5-11.5,10.9c-1.9-0.7-3.6-1.1-5.2-1.4c-1-1.3-2.4-2.8-4.3-4.6c-1.3-1.2-2.4-0.6-1.6,1.8
					c0.3,0.9,0.6,1.7,0.8,2.5c-3.7,0.2-6.4,1.4-8.3,2.8c-3.6,2.8-5.1,6.8-5.4,9.3c-0.2,0.1-0.5,0.1-0.5,0.1c-3,0.7-7.1,1.8-9.7,5.9
					c-0.5-0.3-0.8-0.5-0.9-0.6c-7.6-5.1-4.1,1.5-1.2,4.3C8.2,37.1,5.3,42,4.6,44.9c-0.2,0.7-0.3,1.5-0.3,2.2c0,3.3,1.7,6.6,4.6,8.6
					c3.4,2.3,7.5,2.2,11.2-0.2c4.8,1.5,11.5,1.3,16.4-2.2c2.8,3,5.1,5.2,6.3,6.4c3,3,7.5,5.3,9.8,6.2c-2.3-0.9-6-1.8-9.8-1.3
					c-8.1,1.1-13.5-0.3-17-0.7c-5.7-0.6-11.6,0.4-14.6,0.4c-3.1,0-7.5,1.5-9.6,1.8c-2.3,0.3-2.2,1.9,1.1,2.7
					c3.2,0.9,9.2,1.4,10.8,2.1c5.2,2.3,13.9,4.1,20,3.6c4.3-0.3,8.7,1.8,9.8,2.1c2.2,0.7,7.5,2.1,9.7,2.1c0-0.1,0,3.1,0.2,4.6
					c-0.8,0.3-1.6,0.6-2.3,0.9c-2.4-1.5-13.1-5.8-26.1-0.4c-2.7-0.9-8.6-4.2-16.5-1.5c-9.8,3.2-8.2,12.2-5,16.4
					c4.4,5.6,12.5,4.4,14.8,1.6c5.3,3.5,10.7,2.3,14.6-0.1c2.6,1.5,15.2,4,24.8,0.1c1.3,1,6.6,3.7,13.4,0.3
					c3.9,2.3,10.4,2.5,13.7-0.4c1.2,1,4.8,2.5,12.5,2.4c9.2-0.1,11.4-1.5,12.7-2.6c2,0.9,7.2,3.6,13.6,0.9c3.5,2.2,10.4,2,14.1-0.4
					c6.8,3.1,19.2,1.7,22.3-0.5c5.6-3.9,2.9-11.7-3.3-15.5c-12-6.1-23.3-1.4-26.2,0.2c-3.5-2.4-11-3.9-18.7-2.5c0.1-0.9,0-2,0-3.1
					c0-0.1,0-0.2,0-0.4c1.5-0.5,3.7-2.1,8.1-2.4c6-0.4,20.2-0.2,27.3-3.9c4.1-2.1,18.1-4.8,20-5.9C168.8,65.4,168.3,64.6,167.3,63.9
					z M115.6,55.7c-5.1,6-7.7,8.1-8.6,8.1c-1-2-3.2-4.3-4.6-5.6c1.8-2,9.8-5.8,13.5-8.6c0.5-0.4,2.2-1.4,2.9-1.8
					c1,1.1,2.1,2.2,3.4,3.1C119,52.8,117.2,53.8,115.6,55.7z M41.8,42.7c4.3,0.7,9.3-0.3,12.9-3.6c4.5,7.1,4.6,13.6,8.9,18.1
					c-5.4-5.3-10.2-5.2-18-9.4c-1.3-0.7-3.4-2-3.9-2.3l0,0c0.1-0.7,0.1-1.3,0.1-2.1C41.9,43.1,41.8,42.9,41.8,42.7z M75,50.6
					l0.1,0.2c0,0-2.4-3.6-2.7-4c-0.8-1.2-1.9-2.5-3.1-4c-1.9-2.2-3.5-4.1-4.7-5.4c3.1-0.8,6.7-2.5,10.5-6.1c0.4,0.3,0.8,0.5,1.2,0.8
					c-0.2,1.2-0.4,2.3-0.5,3.1c-0.9,4.8-0.9,8.5-1,10.1C74.8,46.9,74.9,49.2,75,50.6z M68.2,46.2c1.9,2.5,3.6,5.4,4,6
					c-1.6,0.6-4.4,2-6,3.1c-3-3.1-5.4-12.6-6.9-15.1c-0.6-1-1-1.6-1.3-2.1c1,0.4,2.7,0.3,3.7,0.3C62,38.8,64.6,41.4,68.2,46.2z
					 M82.3,53.2c14.9,0,26.6,11.7,26.6,26.6c0,1-0.1,2.5-0.3,3.9c-1.6,0.5-3.2,1-4.7,1.8c-7.7-4.5-18.2-4.2-25.5-0.1
					c-4.5-3.6-14.6-3.9-22.3-2.1c-0.2-1.4-0.4-2.9-0.4-3.6C55.7,65.1,67.6,53.2,82.3,53.2z M78.5,43.1c0.3-4.9,1.2-8.3,1.4-8.9
					c1,0.5,2.3,0.9,3.6,1.3c1,2.1,2.6,10.3,1.9,15.2c-2.2-0.2-4.9-0.2-6.4,0C78.4,49.7,78.3,45.7,78.5,43.1z M102,43.6
					c-1.5,3.2-0.7,7.4-4.6,11.2c-0.5-0.4-4.4-2.3-5.9-2.9c0.6-5.1,5.4-11.5,8.5-14.2c1,1.1,2.3,2.1,3.6,2.7
					C103.3,41.1,102.7,42.2,102,43.6z M106.1,42.6c0.1-0.2,0.3-0.5,0.4-0.8c2.9,1,6,1.2,9.1,0.9c0.3,1,0.8,2.1,1.4,3.2
					c0,0,0,0-0.1,0c-1.5,0.7-6.1,3.9-12.9,7.6c-1.7,1-2.8,1.9-3.4,2.5c0.7-1,1.7-2.3,2.2-3.8C104,49.2,103.7,46.8,106.1,42.6z
					 M89.8,46.5c-0.7,1.9-1,2.8-1.3,3.9c0.6-4-0.5-9.8-1.7-14.8c3.5,0.1,7-0.8,10.5-2.8c0.3,0.8,0.6,1.5,1,2.2
					C96.3,36.6,91.6,41.8,89.8,46.5z M35.3,50.6c-4,3.2-10.6,3.5-14.6,2c-0.5-0.2-1.1-0.1-1.5,0.2c-2.7,2-5.7,2.1-8.1,0.5
					s-3.7-4.7-3-7.3c1-3.8,5.5-6.3,12.4-7c0.7-0.1,1.3-0.6,1.4-1.3c1.2-6.3,5.3-7.3,9.3-8.2l1.7-0.4c0.8-0.2,1.3-1,1.2-1.8
					C34,26.1,35,22,38.3,19.4c3.9-3,9.7-3.1,16.9-0.2c0.4,0.2,0.9,0.2,1.3,0c0.4-0.2,0.7-0.5,0.9-0.9c1.8-5.2,5.4-8.8,10-10.3
					c4.8-1.5,10.1-0.4,14.5,2.9c0.5,0.4,1.3,0.4,1.9,0.1c4.3-3,9.5-3.9,14.2-2.6c5.2,1.4,9.7,5.3,12.8,11.4c0.4,0.7,1.2,1,2,0.8
					c4.9-1.7,8.9-1.7,11.5-0.1c2.5,1.5,3.4,4.2,3.7,6.2c0.1,0.5,0.3,0.9,0.8,1.2c0.4,0.3,0.9,0.3,1.4,0.2c5.2-1.7,10.4-1.5,14,0.7
					c2.3,1.4,3.8,3.5,4.2,6.1c0.1,0.8,0.7,1.3,1.5,1.4c4.5,0.3,7.8,2.3,8.8,5.5c1,2.9,0,6.2-2.4,8.3c-3.4,2.9-8.9,2.7-14.9-0.5
					c-0.5-0.3-1-0.3-1.5,0c-4.7,2.4-9.2,2.6-13.3,0.5c-4.8-2.5-7.6-7.3-7.9-9.8c-0.1-0.4-0.3-0.8-0.6-1.1c-0.4-0.3-0.8-0.4-1.2-0.3
					c-3.4,0.5-14.5,1.5-16.8-9.2c-0.1-0.5-0.5-1-1-1.2S98,28.7,97.6,29c-7.2,4.8-14.3,4.5-21.2-1c-0.6-0.5-1.6-0.6-2.2,0
					c-7.8,7.9-14.2,7.3-17.3,6c-0.7-0.3-1.6-0.1-2,0.6c-3,4.8-9.5,5.8-14,4.3c-0.5-0.2-1.1-0.2-1.6,0.1c-0.4,0.4-0.6,0.9-0.6,1.5
					C39.3,44.8,38.1,48.2,35.3,50.6z M39,52c0.7-1,1.5-2.7,1.9-3.9c0.4,0.3,0.8,0.5,0.9,0.6c0.1,0.1,2.7,1.8,4.2,2.5
					c6.7,3.2,11,4,15.6,7.7c-1.7,1.8-3.4,4-4.4,5.8C47.6,62,40.1,53.4,39,52z M44,73.5c-0.9-0.3-6.4-2.3-9.7-2.1
					c-6.7,0.5-15.3-1.6-19.5-3.3c-1.1-0.4-10.3-1.2-1.3-1.2c3,0,6.6-0.8,12.6,0c3.5,0.5,9.5,1.1,18.6,0.4c4.5-0.4,7.9,1.1,9.6,2.8
					c-0.5,1.4-1,4.6-1.1,5.6C50.8,75.8,46.4,74.4,44,73.5z M21.3,98c-4.1-2.9-6.8-8.3-9.7-7.4c-1.2,0.4-1.3,2.5,0.3,2.5
					c1.1,0,3.1,3,4.3,4.3c-0.3,1.6-4.4,3.2-8.6,0.7c-1.9-1.1-5-5.1-2.3-9.7c1.4-2.5,5.5-3.9,10.4-3.8c9.5,0.2,12.1,11,14.3,13
					C30,98.6,24.9,100.6,21.3,98z M35,97.8c-3.6-1.6-6.4-9.8-7.5-10.9c-0.4-0.4,6.3-2.9,13.2-2.3c11.7,1,11.7,8.2,14.6,11.9
					C56.4,97.8,45.9,100.9,35,97.8z M73.2,98.5c-1.1-0.7-4.4-4.9-5.6-6.3s-3.4-2.7-4.3-1.4c-0.6,0.8,0,1.7,1,2.2
					c1.1,0.6,3.9,4.2,4.2,4.9c-0.2,1.1-5.4,3-8.5-0.7c-1.6-1.9-4.6-7.7-6.5-10.1c6.6-2.4,14.6-3.2,20.2-0.6
					c5.4,2.5,6.3,8.4,8.5,11.2C82.7,99.6,76.5,100.8,73.2,98.5z M87.9,98.4c-3.6-1.6-6.4-9.8-7.5-10.9c-0.4-0.4,6.3-2.9,13.2-2.3
					c11.7,1,11.7,8.2,14.6,11.8C109.2,98.4,98.7,101.5,87.9,98.4z M146.2,84.9c11.7,1,14.4,8.7,13.3,11.2c-1,2.2-8.2,5-19,2
					c-3.6-1.6-6.4-9.8-7.5-10.9C132.6,86.7,139.4,84.3,146.2,84.9z M126.4,86.7c5.4,2.5,6.6,8.3,8.4,11.2c0.5,1.9-6,2.5-9,0.9
					c-1.1-0.7-4.4-4.9-5.6-6.3s-3-2.4-4-1c-0.6,0.8,0.1,1.7,1.1,2.3c1.3,0.7,3.4,3.8,3.8,4.5c-0.2,1.1-4.8,2.6-8.2-0.8
					c-1.7-1.7-4.8-7.8-6-10.2C113.6,84.8,120.8,84.1,126.4,86.7z M157.7,66.3c-3.4,0.7-7.6,1.7-12.5,3.6c-6.7,2.6-19.8,3.3-25.2,3.2
					c-5.1-0.1-6.9,2.2-8.7,1.9c-0.1-2.8-1.7-6.8-1.7-6.8c1.5-0.8,6.4-2.4,10.6-2.3c5.7,0.2,16,0.6,21.3-0.2
					c2.6-0.4,12.1-0.4,13.6-0.5c1.1,0,2.8,0.2,3.3,0.3C160.6,65.9,158.9,66.1,157.7,66.3z"/>
				<g>
					<path d="M21.1,43.7c-2.8,0-5.1,0.1-7.1,2.2c-2.1,2.3-1.6,3.6-2,4c-0.6,0.6-2.1-0.4-2-1.6c0.1-5.5,6.7-7.6,10.6-7.1
						C22,41.4,22.4,43.7,21.1,43.7"/>
					<path d="M32.6,34.5c-4.2,0.5-5.4,2.5-6.1,4.8c-0.3,0.9-2.6,0.2-2.3-1.5c1.1-5.1,6.7-6.4,8.7-5.9C33.6,32.1,33.4,34.4,32.6,34.5
						"/>
					<path d="M50.8,23.4c-7.4-2.9-11.1,2.7-12.3,7.1c-0.2,0.6-2.6,0.4-2.3-1.5c0.9-4.5,5.3-11.1,15.4-8.6
						C52.8,20.8,52.1,23.9,50.8,23.4"/>
					<path d="M78.4,16.1c-6.8-4.7-12.1-0.9-15,2.5c-1.4,1.6-2.8-1.1-2.2-2c2.4-3.9,10.8-9.8,18.3-3.3C80.3,14,79.3,16.7,78.4,16.1"
						/>
					<path d="M106.3,22.4c-0.6,0.4-0.9-0.5-1.3-1.1c-6.1-9.6-17-7.1-20-2.6c-0.6,0.9-2.2-1.5-1.4-2.8c2.7-4.3,16.6-8.4,23.7,3.9
						C108.1,21.1,107.1,21.9,106.3,22.4"/>
					<path d="M123.4,28.5c-1.7-4.5-4.9-4.3-8.8-3.1c-1.8,0.6-1.3-2.4-0.8-2.6c3.7-1.3,10-1.9,11.7,4.3
						C126,28.8,123.8,29.7,123.4,28.5"/>
					<path d="M143.4,38.1c-3.1-5.6-8-5.6-12.1-4c-0.9,0.4-1.8-2-0.3-2.8c4-2.3,12.1-1.9,14.7,5.4C146,37.8,144.4,39.9,143.4,38.1"/>
					<path d="M156.1,46.9c-0.2,0.9-2.5,1-2.5,0c0.4-4.6-1.9-5-5-4.9c-1.1,0-1.1-2.4-0.2-2.6C152.5,38.4,157.5,41.4,156.1,46.9"/>
				</g>
				<g>
					<path d="M76.5,70.7c-0.1,1.7-1.5,3-3.2,2.9s-3-1.5-2.9-3.2v-0.3c-0.3-0.4-1.7-0.9-3.7,0.4c-1,0.6-2.2,0.2-0.4-1.4
						c1.9-1.7,3.7-2.6,5.3-2.8h0.1c2.7-0.2,6.2,0.4,7.8,1c0.7,0.3,0,3.6-0.2,3.6c-0.6-0.1-1.8-0.6-2.8-0.4L76.5,70.7"/>
					<path d="M85.4,80c-0.5,1.6-6.1,2.1-7.2,0c-0.4-0.8-1-2.9-0.2-2.5c1.2,0.7,5.7,0.2,6.6,0c0.8-0.2,0.3-1.2,0.7-1.1
						C85.9,76.6,85.9,78.5,85.4,80"/>
					<path d="M98.5,71.3c-1.4-1.2-3.2-1.7-3.9-1.2v0.2c0.1,1.7-1.1,3.2-2.8,3.4c-1.7,0.2-3.2-1.1-3.3-2.8v-0.1
						c-1.1-0.4-2.9,0.3-3.1,0.2c-0.1-0.1-0.9-3.2,0.1-3.6c2.7-1.1,11.3-1.6,13.8,3.2C99.4,71.1,99.2,71.9,98.5,71.3"/>
				</g>
			</g>
			<g>
				<path d="M96.3,117.5h63.9v57.9H96.3V117.5z M4.4,117.5h63.9v57.9H4.4V117.5z M68.4,279c-16.5-4.8-32.4-11.3-42.6-20.8
					c-3.6-3.4-6.7-7.1-9.3-11h16.3v2.3h7.6v-2.3h18.3v-30.9h-3.9v-5.6c-4,0.9-10.4-1.2-13.3-1.2c-3.2,0-4.9,1.4-4.9,1.4
					s-1.6-1.4-4.9-1.4c-2.9,0-9.4,2.2-13.3,1.2v5.6h-3.9V244c-6.2-10.9-9.2-24-9.9-40l-0.1-2.5h63.9V279z M21.6,240.8v-26.6
					c2.3,0.4,6.2-1.2,10.2-1.3c2.1-0.1,2.7,1.2,2.7,1.2V241c0,0-2.3-1.6-7.5-0.1C23.1,241.9,21.6,240.8,21.6,240.8z M38.6,240.9V214
					c0,0,0.6-1.2,2.7-1.2c4,0.1,7.9,1.7,10.2,1.3v26.6c0,0-1.4,1.1-5.4,0C40.9,239.3,38.6,240.9,38.6,240.9z M92.9,280.1l-10.6,2.7
					L71.7,280v-82.1H4.4V179h67.3v-61.5h21.2V179h67.2v18.9H92.9V280.1z M150.6,244.2v-28h-3.9v-5.6c-4,0.9-10.4-1.2-13.3-1.2
					c-3.2,0-4.9,1.4-4.9,1.4s-1.6-1.4-4.9-1.4c-2.9,0-9.4,2.2-13.3,1.2v5.6h-3.9v30.9h18.3v2.3h7.6v-2.3h16.5
					c-2.7,4-5.8,7.6-9.7,11.1c-10.8,9.9-26.8,16.1-42.9,20.8v-77.6h63.9l0.1,2.6C159.3,221.6,156.5,234,150.6,244.2z M143.4,214.2
					v26.6c0,0-1.4,1.1-5.4,0c-5.2-1.5-7.5,0.1-7.5,0.1V214c0,0,0.6-1.2,2.7-1.2C137.3,213,141.2,214.6,143.4,214.2z M126.5,214v26.9
					c0,0-2.3-1.6-7.5-0.1c-4,1.1-5.4,0-5.4,0v-26.6c2.3,0.4,6.2-1.2,10.2-1.3C125.9,212.8,126.5,214,126.5,214z M0.5,113.6v85.7
					c0,28.3,7.1,48,22.2,61.8c15,13.7,37.6,20.6,59.6,25.8c22.6-5.3,44.4-12,59.6-25.8c15.1-13.8,22.2-33.4,22.2-61.8v-85.7
					L0.5,113.6L0.5,113.6z"/>
				<path d="M54.8,132.7v-5.6c-4,0.9-10.4-1.2-13.3-1.2c-3.2,0-4.9,1.4-4.9,1.4s-1.6-1.4-4.9-1.4c-2.9,0-9.4,2.2-13.3,1.2v5.6h-3.9
					v30.9h18.3v2.3h7.6v-2.3h18.3v-30.9H54.8z M34.5,157.4c0,0-2.3-1.6-7.5-0.1c-4,1.1-5.4,0-5.4,0v-26.6c2.3,0.4,6.2-1.2,10.2-1.3
					c2.1-0.1,2.7,1.2,2.7,1.2V157.4z M51.5,157.3c0,0-1.4,1.1-5.4,0c-5.2-1.5-7.5,0.1-7.5,0.1v-26.9c0,0,0.6-1.2,2.7-1.2
					c4,0.1,7.9,1.7,10.2,1.3V157.3z"/>
				<path d="M146.7,132.7v-5.6c-4,0.9-10.4-1.2-13.3-1.2c-3.2,0-4.9,1.4-4.9,1.4s-1.6-1.4-4.9-1.4c-2.9,0-9.4,2.2-13.3,1.2v5.6h-3.9
					v30.9h18.3v2.3h7.6v-2.3h18.3v-30.9H146.7z M126,157.4c0,0-2.3-1.6-7.5-0.1c-4,1.1-5.4,0-5.4,0v-26.6c2.3,0.4,6.2-1.2,10.2-1.3
					c2.1-0.1,2.7,1.2,2.7,1.2L126,157.4z M143,157.3c0,0-1.4,1.1-5.4,0c-5.2-1.5-7.5,0.1-7.5,0.1v-26.9c0,0,0.6-1.2,2.8-1.2
					c4,0.1,7.9,1.7,10.2,1.3v26.7L143,157.3L143,157.3z"/>
			</g>
		</g>
		<g>
			<polygon class="st4" points="71.7,280 82.3,282.8 92.9,280.1 92.9,197.9 160.2,197.9 160.2,179 92.9,179 92.9,117.5 71.7,117.5
				71.7,179 4.4,179 4.4,197.9 71.7,197.9 			"/>
			<g>
				<path class="st4" d="M40.8,84.7c-6.9-0.6-13.6,1.9-13.2,2.3c1.1,1.1,3.9,9.3,7.5,10.9c10.8,3,21.3,0,20.3-1.3
					C52.5,92.9,52.4,85.7,40.8,84.7z"/>
				<path class="st4" d="M93.6,85.3c-6.9-0.6-13.6,1.8-13.2,2.3c1.1,1.1,3.9,9.3,7.5,10.9c10.8,3.1,21.3,0,20.3-1.3
					C105.3,93.5,105.3,86.3,93.6,85.3z"/>
				<path class="st4" d="M140.5,98c10.8,3.1,18,0.2,19-2c1.2-2.5-1.6-10.2-13.3-11.2c-6.9-0.6-13.6,1.8-13.2,2.3
					C134.1,88.2,136.9,96.4,140.5,98z"/>
			</g>
		</g>
	</g>
</g>
</svg>
